<?xml version="1.0" encoding="UTF-8" standalone="no"?>
<!-- Generator: Adobe Illustrator 24.1.0, SVG Export Plug-In . SVG Version: 6.00 Build 0)  -->

<svg
   version="1.1"
   id="Layer_1"
   x="0px"
   y="0px"
   viewBox="0 0 24 24"
   xml:space="preserve"
   sodipodi:docname="icons8-contacts-copi.svg"
   width="24"
   height="24"
   inkscape:version="1.3.2 (091e20e, 2023-11-25, custom)"
   xmlns:inkscape="http://www.inkscape.org/namespaces/inkscape"
   xmlns:sodipodi="http://sodipodi.sourceforge.net/DTD/sodipodi-0.dtd"
   xmlns:xlink="http://www.w3.org/1999/xlink"
   xmlns="http://www.w3.org/2000/svg"
   xmlns:svg="http://www.w3.org/2000/svg"><defs
   id="defs18"><linearGradient
     inkscape:collect="always"
     xlink:href="#SVGID_1_"
     id="linearGradient30"
     gradientUnits="userSpaceOnUse"
     gradientTransform="matrix(0,0.53281853,-0.53281853,0,61.019305,35.444015)"
     x1="-52.5"
     y1="80.986702"
     x2="-52.5"
     y2="76.258797" /><linearGradient
     inkscape:collect="always"
     xlink:href="#SVGID_2_"
     id="linearGradient31"
     gradientUnits="userSpaceOnUse"
     gradientTransform="matrix(0,0.53281853,-0.53281853,0,61.019305,35.444015)"
     x1="-45"
     y1="80.986702"
     x2="-45"
     y2="76.258797" /><linearGradient
     inkscape:collect="always"
     xlink:href="#SVGID_3_"
     id="linearGradient32"
     gradientUnits="userSpaceOnUse"
     gradientTransform="matrix(0,0.53281853,-0.53281853,0,61.019305,35.444015)"
     x1="-37"
     y1="80.986702"
     x2="-37"
     y2="76.258797" /><linearGradient
     inkscape:collect="always"
     xlink:href="#SVGID_4_"
     id="linearGradient33"
     gradientUnits="userSpaceOnUse"
     gradientTransform="matrix(0,0.53281853,-0.53281853,0,61.019305,35.444015)"
     x1="-29"
     y1="80.986603"
     x2="-29"
     y2="76.279701" /><linearGradient
     inkscape:collect="always"
     xlink:href="#SVGID_5_"
     id="linearGradient34"
     gradientUnits="userSpaceOnUse"
     gradientTransform="matrix(0,0.53281853,-0.53281853,0,61.019305,35.444015)"
     x1="-59.5"
     y1="80.986603"
     x2="-59.5"
     y2="76.258698" /><linearGradient
     inkscape:collect="always"
     xlink:href="#SVGID_6_"
     id="linearGradient35"
     gradientUnits="userSpaceOnUse"
     x1="13.1324"
     y1="4.5836"
     x2="31.3647"
     y2="42.374199"
     gradientTransform="matrix(0.53281853,0,0,0.53281853,-0.78764479,-0.78764479)" /><radialGradient
     inkscape:collect="always"
     xlink:href="#SVGID_7_"
     id="radialGradient35"
     gradientUnits="userSpaceOnUse"
     cx="23"
     cy="18"
     r="5"
     gradientTransform="matrix(0.53281853,0,0,0.53281853,-0.78764479,-0.78764479)" /><linearGradient
     inkscape:collect="always"
     xlink:href="#SVGID_1_"
     id="linearGradient36"
     gradientUnits="userSpaceOnUse"
     gradientTransform="matrix(0,0.53281853,-0.53281853,0,61.019305,35.444015)"
     x1="-52.5"
     y1="80.986702"
     x2="-52.5"
     y2="76.258797" /><linearGradient
     inkscape:collect="always"
     xlink:href="#SVGID_2_"
     id="linearGradient37"
     gradientUnits="userSpaceOnUse"
     gradientTransform="matrix(0,0.53281853,-0.53281853,0,61.019305,35.444015)"
     x1="-45"
     y1="80.986702"
     x2="-45"
     y2="76.258797" /><linearGradient
     inkscape:collect="always"
     xlink:href="#SVGID_3_"
     id="linearGradient38"
     gradientUnits="userSpaceOnUse"
     gradientTransform="matrix(0,0.53281853,-0.53281853,0,61.019305,35.444015)"
     x1="-37"
     y1="80.986702"
     x2="-37"
     y2="76.258797" /><linearGradient
     inkscape:collect="always"
     xlink:href="#SVGID_4_"
     id="linearGradient39"
     gradientUnits="userSpaceOnUse"
     gradientTransform="matrix(0,0.53281853,-0.53281853,0,61.019305,35.444015)"
     x1="-29"
     y1="80.986603"
     x2="-29"
     y2="76.279701" /><linearGradient
     inkscape:collect="always"
     xlink:href="#SVGID_5_"
     id="linearGradient40"
     gradientUnits="userSpaceOnUse"
     gradientTransform="matrix(0,0.53281853,-0.53281853,0,61.019305,35.444015)"
     x1="-59.5"
     y1="80.986603"
     x2="-59.5"
     y2="76.258698" /><linearGradient
     inkscape:collect="always"
     xlink:href="#SVGID_6_"
     id="linearGradient41"
     gradientUnits="userSpaceOnUse"
     x1="13.1324"
     y1="4.5836"
     x2="31.3647"
     y2="42.374199"
     gradientTransform="matrix(0.53281853,0,0,0.53281853,-0.78764479,-0.78764479)" /></defs><sodipodi:namedview
   id="namedview18"
   pagecolor="#ffffff"
   bordercolor="#000000"
   borderopacity="0.25"
   inkscape:showpageshadow="2"
   inkscape:pageopacity="0.0"
   inkscape:pagecheckerboard="0"
   inkscape:deskcolor="#d1d1d1"
   inkscape:zoom="11.446291"
   inkscape:cx="5.6786954"
   inkscape:cy="5.8097422"
   inkscape:window-width="1920"
   inkscape:window-height="991"
   inkscape:window-x="-9"
   inkscape:window-y="-9"
   inkscape:window-maximized="1"
   inkscape:current-layer="Layer_1" />
<linearGradient
   id="SVGID_1_"
   gradientUnits="userSpaceOnUse"
   x1="-52.5"
   y1="80.986702"
   x2="-52.5"
   y2="76.258797"
   gradientTransform="rotate(90,24,92)">
	<stop
   offset="0.3005"
   style="stop-color:#9C6500"
   id="stop1" />
	<stop
   offset="0.6507"
   style="stop-color:#F2D33A"
   id="stop2" />
</linearGradient>

<linearGradient
   id="SVGID_2_"
   gradientUnits="userSpaceOnUse"
   x1="-45"
   y1="80.986702"
   x2="-45"
   y2="76.258797"
   gradientTransform="rotate(90,24,92)">
	<stop
   offset="0.3004"
   style="stop-color:#1A7317"
   id="stop3" />
	<stop
   offset="0.6497"
   style="stop-color:#6DD669"
   id="stop4" />
</linearGradient>

<linearGradient
   id="SVGID_3_"
   gradientUnits="userSpaceOnUse"
   x1="-37"
   y1="80.986702"
   x2="-37"
   y2="76.258797"
   gradientTransform="rotate(90,24,92)">
	<stop
   offset="0.3004"
   style="stop-color:#0670AD"
   id="stop5" />
	<stop
   offset="0.6503"
   style="stop-color:#08B7E8"
   id="stop6" />
</linearGradient>

<linearGradient
   id="SVGID_4_"
   gradientUnits="userSpaceOnUse"
   x1="-29"
   y1="80.986603"
   x2="-29"
   y2="76.279701"
   gradientTransform="rotate(90,24,92)">
	<stop
   offset="0.3008"
   style="stop-color:#5829A1"
   id="stop7" />
	<stop
   offset="0.6496"
   style="stop-color:#8F4FE8"
   id="stop8" />
</linearGradient>

<linearGradient
   id="SVGID_5_"
   gradientUnits="userSpaceOnUse"
   x1="-59.5"
   y1="80.986603"
   x2="-59.5"
   y2="76.258698"
   gradientTransform="rotate(90,24,92)">
	<stop
   offset="0.3019"
   style="stop-color:#A63F62"
   id="stop9" />
	<stop
   offset="0.6503"
   style="stop-color:#E86B97"
   id="stop10" />
</linearGradient>

<linearGradient
   id="SVGID_6_"
   gradientUnits="userSpaceOnUse"
   x1="13.1324"
   y1="4.5836"
   x2="31.3647"
   y2="42.374199">
	<stop
   offset="0"
   style="stop-color:#FC7D5B"
   id="stop11" />
	<stop
   offset="0.0906"
   style="stop-color:#F87855"
   id="stop12" />
	<stop
   offset="0.6827"
   style="stop-color:#DF5731"
   id="stop13" />
	<stop
   offset="1"
   style="stop-color:#D64B24"
   id="stop14" />
</linearGradient>

<radialGradient
   id="SVGID_7_"
   cx="23"
   cy="18"
   r="5"
   gradientUnits="userSpaceOnUse">
	<stop
   offset="0.4864"
   style="stop-color:#000000"
   id="stop15" />
	<stop
   offset="1"
   style="stop-color:#000000;stop-opacity:0"
   id="stop16" />
</radialGradient>





<rect
   x="17.861004"
   y="5.6061778"
   style="fill:url(#linearGradient30);stroke-width:0.532819"
   width="2.6640925"
   height="3.7297297"
   id="rect2" /><rect
   x="17.861004"
   y="9.335907"
   style="fill:url(#linearGradient31);stroke-width:0.532819"
   width="2.6640925"
   height="4.2625484"
   id="rect4" /><rect
   x="17.861004"
   y="13.598455"
   style="fill:url(#linearGradient32);stroke-width:0.532819"
   width="2.6640925"
   height="4.2625484"
   id="rect6" /><path
   style="fill:url(#linearGradient33);stroke-width:0.532819"
   d="m 20.525096,21.057915 v -3.196911 h -2.664092 v 4.262548 h 1.598455 c 0.588765,0 1.065637,-0.476873 1.065637,-1.065637 z"
   id="path8" /><path
   style="fill:url(#linearGradient34);stroke-width:0.532819"
   d="m 20.525096,2.9420849 c 0,-0.5887645 -0.476872,-1.065637 -1.065637,-1.065637 h -1.598455 v 3.7297297 h 2.664092 z"
   id="path10" /><path
   style="fill:url(#linearGradient35);stroke-width:0.532819"
   d="m 18.926641,2.9420849 c 0,-0.5887645 -0.476873,-1.065637 -1.065637,-1.065637 H 4.5405405 c -0.5887645,0 -1.065637,0.4768725 -1.065637,1.065637 V 21.057915 c 0,0.588764 0.4768725,1.065637 1.065637,1.065637 H 17.861004 c 0.588764,0 1.065637,-0.476873 1.065637,-1.065637 z"
   id="path14" /><circle
   style="opacity:0.15;fill:url(#radialGradient35);stroke-width:0.532819"
   cx="11.467181"
   cy="8.8030891"
   r="2.6640925"
   id="circle16" /><path
   style="opacity:0.05;stroke-width:0.532819"
   d="m 7.7374517,15.72973 v 1.126378 c 0,0.554664 0.4502316,1.004896 1.0048957,1.004896 h 5.4491356 c 0.555196,0 1.005428,-0.450232 1.005428,-1.004896 V 15.72973 c 0,-2.664093 -1.669853,-4.262549 -3.72973,-4.262549 -2.059876,0 -3.7297293,1.598456 -3.7297293,4.262549 z"
   id="path16" /><path
   style="opacity:0.07;stroke-width:0.532819"
   d="m 8.003861,15.530456 v 1.295281 c 0,0.424657 0.3442007,0.768857 0.7688571,0.768857 h 5.3889269 c 0.424656,0 0.768857,-0.3442 0.768857,-0.768857 V 15.46332 c 0,-2.231444 -1.577143,-3.75637 -3.51234,-3.729197 -1.9048261,0.02664 -3.414301,1.588865 -3.414301,3.796333 z"
   id="path17" /><circle
   style="fill:#ffffff;stroke-width:0.532819"
   cx="11.467181"
   cy="8.8030891"
   r="2.1312742"
   id="circle17" /><path
   style="fill:#ffffff;stroke-width:0.532819"
   d="m 14.664093,15.196911 c 0,-1.798262 -1.484966,-3.24966 -3.295483,-3.195313 -1.7492433,0.05222 -3.0983398,1.578742 -3.0983398,3.329583 v 1.464186 c 0,0.294116 0.2387027,0.532818 0.5328186,0.532818 h 5.3281852 c 0.294116,0 0.532819,-0.238702 0.532819,-0.532818 z"
   id="path18" /><rect
   x="17.861004"
   y="5.6061778"
   style="fill:url(#linearGradient36);stroke-width:0.532819"
   width="2.6640925"
   height="3.7297297"
   id="rect18" /><rect
   x="17.861004"
   y="9.335907"
   style="fill:url(#linearGradient37);stroke-width:0.532819"
   width="2.6640925"
   height="4.2625484"
   id="rect19" /><rect
   x="17.861004"
   y="13.598455"
   style="fill:url(#linearGradient38);stroke-width:0.532819"
   width="2.6640925"
   height="4.2625484"
   id="rect20" /><path
   style="fill:url(#linearGradient39);stroke-width:0.532819"
   d="m 20.525096,21.057915 v -3.196911 h -2.664092 v 4.262548 h 1.598455 c 0.588765,0 1.065637,-0.476873 1.065637,-1.065637 z"
   id="path20" /><path
   style="fill:url(#linearGradient40);stroke-width:0.532819"
   d="m 20.525096,2.9420849 c 0,-0.5887645 -0.476872,-1.065637 -1.065637,-1.065637 h -1.598455 v 3.7297297 h 2.664092 z"
   id="path21" /><path
   style="fill:url(#linearGradient41);stroke-width:0.532819"
   d="m 18.926641,2.9420849 c 0,-0.5887645 -0.476873,-1.065637 -1.065637,-1.065637 H 4.5405405 c -0.5887645,0 -1.065637,0.4768725 -1.065637,1.065637 V 21.057915 c 0,0.588764 0.4768725,1.065637 1.065637,1.065637 H 17.861004 c 0.588764,0 1.065637,-0.476873 1.065637,-1.065637 z"
   id="path22" /><g
   id="g9"
   transform="matrix(0.61820099,0,0,0.61820099,2.2645131,-2.1567894)"
   style="fill:#ffffff;fill-opacity:1"><path
     fill="#057093"
     d="M 20.997707,17.794413 H 7.8400868 c -0.2136178,0 -0.3869888,-0.208235 -0.3869888,-0.464811 v -0.929623 c 0,-0.256576 0.173371,-0.464812 0.3869888,-0.464812 H 20.997707 c 0.213617,0 0.386988,0.208236 0.386988,0.464812 v 0.929623 c 0,0.256576 -0.173371,0.464811 -0.386988,0.464811 z"
     id="path3-5"
     style="fill:#ffffff;fill-opacity:1;stroke-width:0.848238" /><path
     fill="#057093"
     d="M 16.171847,21.911708 H 7.734348 c -0.15525,0 -0.28125,-0.224 -0.28125,-0.5 v -1 c 0,-0.276 0.126,-0.5 0.28125,-0.5 h 8.437499 c 0.155251,0 0.281251,0.224 0.281251,0.5 v 1 c 0,0.276 -0.126,0.5 -0.281251,0.5 z"
     id="path4-3"
     style="fill:#ffffff;fill-opacity:1;stroke-width:0.75" /><path
     fill="#057093"
     d="M 21.068423,25.757202 H 7.8421073 c -0.2147331,0 -0.3890093,-0.209323 -0.3890093,-0.467238 v -0.934477 c 0,-0.257915 0.1742762,-0.467238 0.3890093,-0.467238 H 21.068423 c 0.214733,0 0.389009,0.209323 0.389009,0.467238 v 0.934477 c 0,0.257915 -0.174276,0.467238 -0.389009,0.467238 z"
     id="path5-8"
     style="fill:#ffffff;fill-opacity:1;stroke-width:0.852667" /><path
     fill="#057093"
     d="M 19.078097,29.86479 H 7.828098 c -0.207,0 -0.375,-0.224 -0.375,-0.5 v -1 c 0,-0.276 0.168,-0.5 0.375,-0.5 h 11.249999 c 0.207001,0 0.375001,0.224 0.375001,0.5 v 1 c 0,0.276 -0.168,0.5 -0.375001,0.5 z"
     id="path6-8"
     style="fill:#ffffff;fill-opacity:1;stroke-width:0.866026" /></g></svg>
