<?xml version="1.0" encoding="UTF-8" standalone="no"?>
<!-- Generator: Adobe Illustrator 24.1.0, SVG Export Plug-In . SVG Version: 6.00 Build 0)  -->

<svg
   version="1.1"
   id="Layer_1"
   x="0px"
   y="0px"
   viewBox="0 0 24 24"
   xml:space="preserve"
   sodipodi:docname="icons8-scroll.svg"
   width="24"
   height="24"
   inkscape:version="1.3.2 (091e20e, 2023-11-25, custom)"
   xmlns:inkscape="http://www.inkscape.org/namespaces/inkscape"
   xmlns:sodipodi="http://sodipodi.sourceforge.net/DTD/sodipodi-0.dtd"
   xmlns:xlink="http://www.w3.org/1999/xlink"
   xmlns="http://www.w3.org/2000/svg"
   xmlns:svg="http://www.w3.org/2000/svg"><defs
   id="defs9"><linearGradient
     inkscape:collect="always"
     xlink:href="#SVGID_1_"
     id="linearGradient16"
     gradientUnits="userSpaceOnUse"
     x1="41.944901"
     y1="8.5"
     x2="37.950901"
     y2="8.5" /><linearGradient
     inkscape:collect="always"
     xlink:href="#SVGID_2_"
     id="linearGradient17"
     gradientUnits="userSpaceOnUse"
     x1="14.0025"
     y1="6.7926002"
     x2="35.436501"
     y2="42.139999" /><linearGradient
     inkscape:collect="always"
     xlink:href="#SVGID_3_"
     id="linearGradient18"
     gradientUnits="userSpaceOnUse"
     x1="20"
     y1="37.284401"
     x2="20"
     y2="42.009899" /><linearGradient
     inkscape:collect="always"
     xlink:href="#SVGID_1_"
     id="linearGradient19"
     gradientUnits="userSpaceOnUse"
     x1="41.944901"
     y1="8.5"
     x2="37.950901"
     y2="8.5" /><linearGradient
     inkscape:collect="always"
     xlink:href="#SVGID_2_"
     id="linearGradient20"
     gradientUnits="userSpaceOnUse"
     x1="14.0025"
     y1="6.7926002"
     x2="35.436501"
     y2="42.139999" /><linearGradient
     inkscape:collect="always"
     xlink:href="#SVGID_3_"
     id="linearGradient21"
     gradientUnits="userSpaceOnUse"
     x1="20"
     y1="37.284401"
     x2="20"
     y2="42.009899" /></defs><sodipodi:namedview
   id="namedview9"
   pagecolor="#ffffff"
   bordercolor="#000000"
   borderopacity="0.25"
   inkscape:showpageshadow="2"
   inkscape:pageopacity="0.0"
   inkscape:pagecheckerboard="0"
   inkscape:deskcolor="#d1d1d1"
   inkscape:zoom="9.6637927"
   inkscape:cx="13.814452"
   inkscape:cy="23.127566"
   inkscape:window-width="1920"
   inkscape:window-height="991"
   inkscape:window-x="-9"
   inkscape:window-y="-9"
   inkscape:window-maximized="1"
   inkscape:current-layer="Layer_1" />
<linearGradient
   id="SVGID_1_"
   gradientUnits="userSpaceOnUse"
   x1="41.944901"
   y1="8.5"
   x2="37.950901"
   y2="8.5">
	<stop
   offset="0"
   style="stop-color:#0D61A9"
   id="stop1" />
	<stop
   offset="1"
   style="stop-color:#16528C"
   id="stop2" />
</linearGradient>

<linearGradient
   id="SVGID_2_"
   gradientUnits="userSpaceOnUse"
   x1="14.0025"
   y1="6.7926002"
   x2="35.436501"
   y2="42.139999">
	<stop
   offset="0"
   style="stop-color:#7DD8F3"
   id="stop3" />
	<stop
   offset="1"
   style="stop-color:#45B0D0"
   id="stop4" />
</linearGradient>

<linearGradient
   id="SVGID_3_"
   gradientUnits="userSpaceOnUse"
   x1="20"
   y1="37.284401"
   x2="20"
   y2="42.009899">
	<stop
   offset="0"
   style="stop-color:#0176D0"
   id="stop5" />
	<stop
   offset="1"
   style="stop-color:#16538C"
   id="stop6" />
</linearGradient>




<g
   id="g16"
   transform="matrix(0.56097561,0,0,0.56097561,-0.90243903,-1.4634146)"><path
     style="fill:url(#linearGradient16)"
     d="m 37,11 h 5 V 8 C 42,6.895 41.105,6 40,6 h -3 z"
     id="path2" /><path
     style="fill:url(#linearGradient17)"
     d="M 36,42 H 10 C 8.895,42 8,41.105 8,40 V 8 C 8,6.895 8.895,6 10,6 h 30 c -1.105,0 -2,0.895 -2,2 v 32 c 0,1.105 -0.895,2 -2,2 z"
     id="path4" /><path
     style="fill:url(#linearGradient18)"
     d="M 34,40 V 37 H 4 v 3 c 0,1.105 0.895,2 2,2 h 30 c -1.105,0 -2,-0.895 -2,-2 z"
     id="path6" /><path
     style="fill:#057093"
     d="m 32.5,19 h -19 C 13.224,19 13,18.776 13,18.5 v -2 C 13,16.224 13.224,16 13.5,16 h 19 c 0.276,0 0.5,0.224 0.5,0.5 v 2 c 0,0.276 -0.224,0.5 -0.5,0.5 z"
     id="path7" /><path
     style="fill:#057093"
     d="m 32.5,25 h -19 C 13.224,25 13,24.776 13,24.5 v -2 C 13,22.224 13.224,22 13.5,22 h 19 c 0.276,0 0.5,0.224 0.5,0.5 v 2 c 0,0.276 -0.224,0.5 -0.5,0.5 z"
     id="path8" /><path
     style="fill:#057093"
     d="m 32.5,31 h -19 C 13.224,31 13,30.776 13,30.5 v -2 C 13,28.224 13.224,28 13.5,28 h 19 c 0.276,0 0.5,0.224 0.5,0.5 v 2 c 0,0.276 -0.224,0.5 -0.5,0.5 z"
     id="path9" /><g
     id="g15"><path
       style="fill:url(#linearGradient19)"
       d="m 37,11 h 5 V 8 C 42,6.895 41.105,6 40,6 h -3 z"
       id="path10" /><path
       style="fill:url(#linearGradient20)"
       d="M 36,42 H 10 C 8.895,42 8,41.105 8,40 V 8 C 8,6.895 8.895,6 10,6 h 30 c -1.105,0 -2,0.895 -2,2 v 32 c 0,1.105 -0.895,2 -2,2 z"
       id="path11" /><path
       style="fill:url(#linearGradient21)"
       d="M 34,40 V 37 H 4 v 3 c 0,1.105 0.895,2 2,2 h 30 c -1.105,0 -2,-0.895 -2,-2 z"
       id="path12" /><path
       style="fill:#057093"
       d="m 32.5,19 h -19 C 13.224,19 13,18.776 13,18.5 v -2 C 13,16.224 13.224,16 13.5,16 h 19 c 0.276,0 0.5,0.224 0.5,0.5 v 2 c 0,0.276 -0.224,0.5 -0.5,0.5 z"
       id="path13" /><path
       style="fill:#057093"
       d="m 32.5,25 h -19 C 13.224,25 13,24.776 13,24.5 v -2 C 13,22.224 13.224,22 13.5,22 h 19 c 0.276,0 0.5,0.224 0.5,0.5 v 2 c 0,0.276 -0.224,0.5 -0.5,0.5 z"
       id="path14" /><path
       style="fill:#057093"
       d="m 32.5,31 h -19 C 13.224,31 13,30.776 13,30.5 v -2 C 13,28.224 13.224,28 13.5,28 h 19 c 0.276,0 0.5,0.224 0.5,0.5 v 2 c 0,0.276 -0.224,0.5 -0.5,0.5 z"
       id="path15" /></g></g></svg>
