<?xml version="1.0" encoding="UTF-8" standalone="no"?>
<!-- Generator: Adobe Illustrator 24.1.0, SVG Export Plug-In . SVG Version: 6.00 Build 0)  -->

<svg
   version="1.1"
   id="Layer_1"
   x="0px"
   y="0px"
   viewBox="0 0 24 24"
   xml:space="preserve"
   sodipodi:docname="icons8-download-from-the-cloud.svg"
   width="24"
   height="24"
   inkscape:version="1.3.2 (091e20e, 2023-11-25, custom)"
   inkscape:export-filename="..\..\Users\Calci\OneDrive\Escritorio\backup.svg"
   inkscape:export-xdpi="96"
   inkscape:export-ydpi="96"
   xmlns:inkscape="http://www.inkscape.org/namespaces/inkscape"
   xmlns:sodipodi="http://sodipodi.sourceforge.net/DTD/sodipodi-0.dtd"
   xmlns="http://www.w3.org/2000/svg"
   xmlns:svg="http://www.w3.org/2000/svg"><defs
   id="defs5" /><sodipodi:namedview
   id="namedview5"
   pagecolor="#ffffff"
   bordercolor="#000000"
   borderopacity="0.25"
   inkscape:showpageshadow="2"
   inkscape:pageopacity="0.0"
   inkscape:pagecheckerboard="0"
   inkscape:deskcolor="#d1d1d1"
   inkscape:zoom="16.1875"
   inkscape:cx="7.2895753"
   inkscape:cy="14.671815"
   inkscape:window-width="1920"
   inkscape:window-height="991"
   inkscape:window-x="-9"
   inkscape:window-y="-9"
   inkscape:window-maximized="1"
   inkscape:current-layer="Layer_1" />
<linearGradient
   id="SVGID_1_"
   gradientUnits="userSpaceOnUse"
   x1="14.242"
   y1="8.3582001"
   x2="30.171801"
   y2="38.695">
	<stop
   offset="0"
   style="stop-color:#2AA4F4"
   id="stop1" />
	<stop
   offset="1"
   style="stop-color:#007AD9"
   id="stop2" />
</linearGradient>



<g
   id="g5"
   transform="matrix(0.48005148,0,0,0.48005148,0.47876448,1.1988417)"><path
     style="fill:url(#SVGID_1_)"
     d="M 48,26 C 48,32.63 42.63,38 36,38 34.2,38 11.34,38 9.5,38 4.25,38 0,33.75 0,28.5 0,23.96 3.18,20.16 7.45,19.22 9.15,12.21 15.46,7 23,7 28.51,7 33.36,9.78 36.24,14.01 42.76,14.13 48,19.45 48,26 Z"
     id="path2" /><path
     style="opacity:0.05"
     d="m 27,25 v -7 c 0,-1.105 -0.895,-2 -2,-2 h -2 c -1.105,0 -2,0.895 -2,2 v 7 h -2.648 c -1.336,0 -2.006,1.616 -1.061,2.561 l 5.295,5.295 c 0.781,0.781 2.047,0.781 2.828,0 l 5.295,-5.295 C 31.654,26.616 30.985,25 29.648,25 Z"
     id="path3" /><path
     style="opacity:0.07"
     d="M 26.5,25.5 V 18 c 0,-0.828 -0.672,-1.5 -1.5,-1.5 h -2 c -0.828,0 -1.5,0.672 -1.5,1.5 v 7.5 h -3.021 c -0.938,0 -1.408,1.134 -0.745,1.798 l 5.129,5.13 c 0.627,0.627 1.644,0.627 2.271,0 l 5.129,-5.13 C 30.926,26.635 30.457,25.5 29.518,25.5 Z"
     id="path4" /><path
     style="fill:#ffffff"
     d="M 29.393,26 H 26 v -8 c 0,-0.552 -0.448,-1 -1,-1 h -2 c -0.552,0 -1,0.448 -1,1 v 8 h -3.393 c -0.54,0 -0.81,0.653 -0.428,1.034 l 4.964,4.964 c 0.473,0.473 1.241,0.473 1.714,0 l 4.964,-4.964 C 30.203,26.653 29.933,26 29.393,26 Z"
     id="path5" /></g>
</svg>
