<?xml version="1.0" encoding="UTF-8" standalone="no"?>
<svg
   viewBox="0 0 24 24"
   width="24"
   height="24"
   version="1.1"
   id="svg8"
   sodipodi:docname="news.svg"
   inkscape:version="1.3.2 (091e20e, 2023-11-25, custom)"
   inkscape:export-filename="..\..\Users\Calci\OneDrive\Escritorio\form.svg"
   inkscape:export-xdpi="96"
   inkscape:export-ydpi="96"
   xmlns:inkscape="http://www.inkscape.org/namespaces/inkscape"
   xmlns:sodipodi="http://sodipodi.sourceforge.net/DTD/sodipodi-0.dtd"
   xmlns="http://www.w3.org/2000/svg"
   xmlns:svg="http://www.w3.org/2000/svg">
  <defs
     id="defs8" />
  <sodipodi:namedview
     id="namedview8"
     pagecolor="#ffffff"
     bordercolor="#000000"
     borderopacity="0.25"
     inkscape:showpageshadow="2"
     inkscape:pageopacity="0.0"
     inkscape:pagecheckerboard="0"
     inkscape:deskcolor="#d1d1d1"
     inkscape:zoom="19.327585"
     inkscape:cx="14.150759"
     inkscape:cy="14.668154"
     inkscape:window-width="1920"
     inkscape:window-height="991"
     inkscape:window-x="-9"
     inkscape:window-y="-9"
     inkscape:window-maximized="1"
     inkscape:current-layer="svg8" />
  <linearGradient
     id="eo9Iz~gJX5QQxF9vIcujya"
     x1="41.018002"
     x2="45.175999"
     y1="26"
     y2="26"
     gradientUnits="userSpaceOnUse">
    <stop
       offset="0"
       stop-color="#3537b0"
       id="stop1" />
    <stop
       offset="1"
       stop-color="#4646cf"
       id="stop2" />
  </linearGradient>
  <g
     id="g8"
     transform="matrix(0.51345084,0,0,0.51345084,-0.32282014,-0.32282014)">
    <path
       fill="url(#eo9Iz~gJX5QQxF9vIcujya)"
       d="m 43,11 h -3 v 30 h 3 c 1.105,0 2,-0.895 2,-2 V 13 c 0,-1.105 -0.895,-2 -2,-2 z"
       id="path2"
       style="fill:url(#eo9Iz~gJX5QQxF9vIcujya)" />
    <path
       fill="#5286ff"
       d="M 41,39 V 9 C 41,7.895 40.105,7 39,7 H 5 C 3.895,7 3,7.895 3,9 v 30 c 0,1.105 0.895,2 2,2 h 38 c -1.105,0 -2,-0.895 -2,-2 z"
       id="path3" />
    <path
       fill="#ffffff"
       d="M 37,17 H 7 C 6.448,17 6,16.552 6,16 v -2 c 0,-0.552 0.448,-1 1,-1 h 30 c 0.552,0 1,0.448 1,1 v 2 c 0,0.552 -0.448,1 -1,1 z"
       id="path4" />
    <path
       fill="#ffffff"
       d="M 19,36 H 7 C 6.448,36 6,35.552 6,35 V 22 c 0,-0.552 0.448,-1 1,-1 h 12 c 0.552,0 1,0.448 1,1 v 13 c 0,0.552 -0.448,1 -1,1 z"
       id="path5" />
    <path
       fill="#ffffff"
       d="M 38,24 H 24 v -2 c 0,-0.552 0.448,-1 1,-1 h 12 c 0.552,0 1,0.448 1,1 z"
       id="path6" />
    <rect
       width="14"
       height="3"
       x="24"
       y="24"
       fill="#e6eeff"
       id="rect6" />
    <rect
       width="14"
       height="3"
       x="24"
       y="27"
       fill="#ccdcff"
       id="rect7" />
    <rect
       width="14"
       height="3"
       x="24"
       y="30"
       fill="#b3cbff"
       id="rect8" />
    <path
       fill="#9abaff"
       d="M 37,36 H 25 c -0.552,0 -1,-0.448 -1,-1 v -2 h 14 v 2 c 0,0.552 -0.448,1 -1,1 z"
       id="path8" />
  </g>
</svg>
