<?xml version="1.0" encoding="UTF-8" standalone="no"?>
<!-- Generator: Adobe Illustrator 23.0.3, SVG Export Plug-In . SVG Version: 6.00 Build 0)  -->

<svg
   version="1.1"
   id="Layer_1"
   x="0px"
   y="0px"
   viewBox="0 0 24 24"
   xml:space="preserve"
   sodipodi:docname="icons8-bookmark.svg"
   width="24"
   height="24"
   inkscape:version="1.3.2 (091e20e, 2023-11-25, custom)"
   xmlns:inkscape="http://www.inkscape.org/namespaces/inkscape"
   xmlns:sodipodi="http://sodipodi.sourceforge.net/DTD/sodipodi-0.dtd"
   xmlns="http://www.w3.org/2000/svg"
   xmlns:svg="http://www.w3.org/2000/svg"><defs
   id="defs9" /><sodipodi:namedview
   id="namedview9"
   pagecolor="#ffffff"
   bordercolor="#000000"
   borderopacity="0.25"
   inkscape:showpageshadow="2"
   inkscape:pageopacity="0.0"
   inkscape:pagecheckerboard="0"
   inkscape:deskcolor="#d1d1d1"
   inkscape:zoom="13.666667"
   inkscape:cx="24"
   inkscape:cy="12.256098"
   inkscape:window-width="1920"
   inkscape:window-height="991"
   inkscape:window-x="-9"
   inkscape:window-y="-9"
   inkscape:window-maximized="1"
   inkscape:current-layer="Layer_1" />








<g
   id="g9"
   transform="matrix(0.50807729,0,0,0.50807729,-0.19385499,-0.44789359)"><path
     style="fill:#0078d4"
     d="M 43,8 H 24 v 32 h 19 c 1.105,0 2,-0.895 2,-2 V 10 C 45,8.895 44.105,8 43,8 Z"
     id="path1" /><path
     style="fill:#1b9de2"
     d="M 24,8 H 5 C 3.895,8 3,8.895 3,10 v 28 c 0,1.105 0.895,2 2,2 h 19 z"
     id="path2" /><path
     style="fill:#1b9de2"
     d="m 21,38 c 0,1.657 1.343,3 3,3 v -6 c -1.657,0 -3,1.343 -3,3 z"
     id="path3" /><path
     style="fill:#0078d4"
     d="m 27,38 c 0,-1.657 -1.343,-3 -3,-3 v 6 c 1.657,0 3,-1.343 3,-3 z"
     id="path4" /><path
     style="fill:#ffffff"
     d="M 24,8 H 6 C 5.448,8 5,8.448 5,9 v 28 c 0,0.552 0.448,1 1,1 h 18 z"
     id="path5" /><path
     style="fill:#f0f0f0"
     d="M 42,8 H 24 v 30 h 18 c 0.552,0 1,-0.448 1,-1 V 9 C 43,8.448 42.552,8 42,8 Z"
     id="path6" /><path
     style="opacity:0.05;enable-background:new"
     d="m 30,8 v 15.6 c 0,0.8 0.6,1.4 1.4,1.4 0.2,0 0.5,-0.1 0.7,-0.2 L 35,23 l 2.9,1.8 c 0.2,0.1 0.4,0.2 0.7,0.2 0.4,0 0.7,-0.1 1,-0.4 0.2,-0.3 0.4,-0.6 0.4,-1 V 8 Z"
     id="path7" /><path
     style="opacity:0.07;enable-background:new"
     d="m 30.5,8 v 15.5 c 0,0.5 0.4,0.9 0.9,0.9 0.2,0 0.4,0 0.5,-0.1 l 3.1,-1.9 3.1,2 c 0.2,0.1 0.3,0.1 0.5,0.1 0.2,0 0.5,-0.1 0.6,-0.4 0.2,-0.1 0.3,-0.4 0.3,-0.6 V 8 Z"
     id="path8" /><path
     style="fill:#cf1928"
     d="m 39,8 h -8 v 15.6 c 0,0.3 0.3,0.5 0.6,0.3 l 3.4,-2.1 3.4,2.1 c 0.3,0.2 0.6,0 0.6,-0.3 z"
     id="path9" /></g>
</svg>
