<svg height="24" viewBox="0 0 24 24" width="24" xmlns="http://www.w3.org/2000/svg" xmlns:xlink="http://www.w3.org/1999/xlink"><linearGradient id="a" gradientUnits="userSpaceOnUse" x1="6" x2="42" y1="41" y2="41"><stop offset="0" stop-color="#c8d3de"/><stop offset="1" stop-color="#c8d3de"/></linearGradient><linearGradient id="b" gradientUnits="userSpaceOnUse" x1="14.095" x2="31.385" y1="10.338" y2="43.786999"><stop offset="0" stop-color="#fcfcfc"/><stop offset=".495" stop-color="#f4f4f4"/><stop offset=".946" stop-color="#e8e8e8"/><stop offset="1" stop-color="#e8e8e8"/></linearGradient><linearGradient id="c" gradientUnits="userSpaceOnUse" x1="24" x2="24" y1="1.684" y2="23.695999"><stop offset="0" stop-color="#d43a02"/><stop offset="1" stop-color="#b9360c"/></linearGradient><linearGradient id="d" gradientUnits="userSpaceOnUse" x1="28.049999" x2="35.613998" y1="25.049999" y2="32.613998"><stop offset="0" stop-color="#33bef0"/><stop offset="1" stop-color="#0a85d9"/></linearGradient><g transform="matrix(.53347306 0 0 .53347306 -.803354 -.003144)"><path d="m42 39h-36v2c0 1.105.895 2 2 2h32c1.105 0 2-.895 2-2z" fill="url(#a)"/><path d="m42 39h-36v-19l18-17 18 17z" fill="url(#b)"/><path d="m13 25h10c.552 0 1 .448 1 1v17h-12v-17c0-.552.448-1 1-1z" fill="#de490d"/><path d="m24 4c-.474 0-.948.168-1.326.503l-5.359 4.811-11.315 10.686v5.39l18-15.962 18 15.962v-5.39l-11.315-10.686-5.359-4.811c-.378-.335-.852-.503-1.326-.503z" opacity=".05"/><path d="m24 3c-.474 0-.948.167-1.326.5l-5.359 4.784-11.315 10.625v5.359l18-15.871 18 15.871v-5.359l-11.315-10.625-5.359-4.784c-.378-.333-.852-.5-1.326-.5z" opacity=".07"/><path d="m44.495 19.507-19.169-17.004c-.378-.335-.852-.503-1.326-.503s-.948.168-1.326.503l-19.169 17.004c-.42.374-.449 1.02-.064 1.43l1.636 1.745c.369.394.984.424 1.39.067l17.533-15.321 17.533 15.322c.405.356 1.021.327 1.39-.067l1.636-1.745c.385-.411.356-1.057-.064-1.431z" fill="url(#c)"/><path d="m29 25h6c.552 0 1 .448 1 1v6c0 .552-.448 1-1 1h-6c-.552 0-1-.448-1-1v-6c0-.552.448-1 1-1z" fill="url(#d)"/></g></svg>