<?xml version="1.0" encoding="UTF-8" standalone="no"?>
<!-- Generator: Adobe Illustrator 23.0.3, SVG Export Plug-In . SVG Version: 6.00 Build 0)  -->

<svg
   version="1.1"
   id="Layer_1"
   x="0px"
   y="0px"
   viewBox="0 0 24 24"
   xml:space="preserve"
   sodipodi:docname="icons8-bookmark - copia.svg"
   inkscape:version="1.3.2 (091e20e, 2023-11-25, custom)"
   inkscape:export-filename="..\..\Users\Calci\Downloads\trial_balance.svg"
   inkscape:export-xdpi="96"
   inkscape:export-ydpi="96"
   width="24"
   height="24"
   xmlns:inkscape="http://www.inkscape.org/namespaces/inkscape"
   xmlns:sodipodi="http://sodipodi.sourceforge.net/DTD/sodipodi-0.dtd"
   xmlns="http://www.w3.org/2000/svg"
   xmlns:svg="http://www.w3.org/2000/svg"><defs
   id="defs9" /><sodipodi:namedview
   id="namedview9"
   pagecolor="#ffffff"
   bordercolor="#000000"
   borderopacity="0.25"
   inkscape:showpageshadow="2"
   inkscape:pageopacity="0.0"
   inkscape:pagecheckerboard="0"
   inkscape:deskcolor="#d1d1d1"
   inkscape:zoom="8.09375"
   inkscape:cx="5.1891892"
   inkscape:cy="17.976834"
   inkscape:window-width="1920"
   inkscape:window-height="991"
   inkscape:window-x="-9"
   inkscape:window-y="-9"
   inkscape:window-maximized="1"
   inkscape:current-layer="Layer_1" />









<g
   id="g1"
   transform="matrix(0.49402464,0,0,0.49402464,0.14340864,-0.10360372)"><path
     style="fill:#21a366;fill-opacity:1"
     d="M 43,8 H 24 v 32 h 19 c 1.105,0 2,-0.895 2,-2 V 10 C 45,8.895 44.105,8 43,8 Z"
     id="path1" /><path
     style="fill:#33c481;fill-opacity:1"
     d="M 24,8 H 5 C 3.895,8 3,8.895 3,10 v 28 c 0,1.105 0.895,2 2,2 h 19 z"
     id="path2" /><path
     style="fill:#33c481;fill-opacity:1"
     d="m 21,38 c 0,1.657 1.343,3 3,3 v -6 c -1.657,0 -3,1.343 -3,3 z"
     id="path3" /><path
     style="fill:#21a366;fill-opacity:1"
     d="m 27,38 c 0,-1.657 -1.343,-3 -3,-3 v 6 c 1.657,0 3,-1.343 3,-3 z"
     id="path4" /><path
     style="fill:#ffffff"
     d="M 24,8 H 6 C 5.448,8 5,8.448 5,9 v 28 c 0,0.552 0.448,1 1,1 h 18 z"
     id="path5" /><path
     style="fill:#f0f0f0"
     d="M 42,8 H 24 v 30 h 18 c 0.552,0 1,-0.448 1,-1 V 9 C 43,8.448 42.552,8 42,8 Z"
     id="path6" /><g
     id="g9"
     transform="translate(0.044735,0.1000215)"
     style="fill:#33c481;fill-opacity:1"><path
       fill="#057093"
       d="M 20.997707,17.794413 H 7.8400868 c -0.2136178,0 -0.3869888,-0.208235 -0.3869888,-0.464811 v -0.929623 c 0,-0.256576 0.173371,-0.464812 0.3869888,-0.464812 H 20.997707 c 0.213617,0 0.386988,0.208236 0.386988,0.464812 v 0.929623 c 0,0.256576 -0.173371,0.464811 -0.386988,0.464811 z"
       id="path3-5"
       style="fill:#33c481;fill-opacity:1;stroke-width:0.848238" /><path
       fill="#057093"
       d="M 16.171847,21.911708 H 7.734348 c -0.15525,0 -0.28125,-0.224 -0.28125,-0.5 v -1 c 0,-0.276 0.126,-0.5 0.28125,-0.5 h 8.437499 c 0.155251,0 0.281251,0.224 0.281251,0.5 v 1 c 0,0.276 -0.126,0.5 -0.281251,0.5 z"
       id="path4-3"
       style="fill:#33c481;fill-opacity:1;stroke-width:0.75" /><path
       fill="#057093"
       d="M 21.068423,25.757202 H 7.8421073 c -0.2147331,0 -0.3890093,-0.209323 -0.3890093,-0.467238 v -0.934477 c 0,-0.257915 0.1742762,-0.467238 0.3890093,-0.467238 H 21.068423 c 0.214733,0 0.389009,0.209323 0.389009,0.467238 v 0.934477 c 0,0.257915 -0.174276,0.467238 -0.389009,0.467238 z"
       id="path5-8"
       style="fill:#33c481;fill-opacity:1;stroke-width:0.852667" /><path
       fill="#057093"
       d="M 19.078097,29.86479 H 7.828098 c -0.207,0 -0.375,-0.224 -0.375,-0.5 v -1 c 0,-0.276 0.168,-0.5 0.375,-0.5 h 11.249999 c 0.207001,0 0.375001,0.224 0.375001,0.5 v 1 c 0,0.276 -0.168,0.5 -0.375001,0.5 z"
       id="path6-8"
       style="fill:#33c481;fill-opacity:1;stroke-width:0.866026" /></g><text
     xml:space="preserve"
     style="font-size:19.2793px;fill:#107c42;fill-opacity:1;stroke-width:0.109002"
     x="28.63781"
     y="29.020081"
     id="text9"><tspan
       sodipodi:role="line"
       id="tspan9"
       x="28.63781"
       y="29.020081"
       style="font-style:normal;font-variant:normal;font-weight:bold;font-stretch:normal;font-size:19.2793px;font-family:Calibri;-inkscape-font-specification:'Calibri Bold';fill:#107c42;fill-opacity:1;stroke-width:0.109002">$</tspan></text></g></svg>
