<svg width="20" height="28" viewBox="0 0 20 28" fill="none" xmlns="http://www.w3.org/2000/svg">
<path d="M19.3172 3.63468C19.3164 2.86643 19.0109 2.12989 18.4677 1.58666C17.9244 1.04343 17.1879 0.73789 16.4197 0.737091H2.89759C2.12934 0.73789 1.3928 1.04343 0.849566 1.58666C0.306336 2.12989 0.000799005 2.86643 0 3.63468V24.8836C0.000799005 25.6519 0.306336 26.3884 0.849566 26.9317C1.3928 27.4749 2.12934 27.7804 2.89759 27.7812H16.4197C17.1879 27.7804 17.9244 27.4749 18.4677 26.9317C19.0109 26.3884 19.3164 25.6519 19.3172 24.8836V3.63468ZM4.34638 24.8836C4.05983 24.8836 3.77973 24.7987 3.54147 24.6395C3.30322 24.4803 3.11752 24.254 3.00787 23.9893C2.89821 23.7245 2.86952 23.4332 2.92542 23.1522C2.98133 22.8712 3.11931 22.613 3.32193 22.4104C3.52454 22.2078 3.78269 22.0698 4.06373 22.0139C4.34477 21.958 4.63608 21.9867 4.90081 22.0963C5.16554 22.206 5.39181 22.3917 5.55101 22.6299C5.7102 22.8682 5.79517 23.1483 5.79517 23.4348C5.79517 23.8191 5.64253 24.1876 5.37083 24.4593C5.09913 24.731 4.73062 24.8836 4.34638 24.8836ZM4.34638 20.0543C4.05983 20.0543 3.77973 19.9694 3.54147 19.8102C3.30322 19.651 3.11752 19.4247 3.00787 19.16C2.89821 18.8952 2.86952 18.6039 2.92542 18.3229C2.98133 18.0419 3.11931 17.7837 3.32193 17.5811C3.52454 17.3785 3.78269 17.2405 4.06373 17.1846C4.34477 17.1287 4.63608 17.1574 4.90081 17.267C5.16554 17.3767 5.39181 17.5624 5.55101 17.8006C5.7102 18.0389 5.79517 18.319 5.79517 18.6055C5.79517 18.9898 5.64253 19.3583 5.37083 19.63C5.09913 19.9017 4.73062 20.0543 4.34638 20.0543ZM4.34638 15.225C4.05983 15.225 3.77973 15.14 3.54147 14.9809C3.30322 14.8217 3.11752 14.5954 3.00787 14.3307C2.89821 14.0659 2.86952 13.7746 2.92542 13.4936C2.98133 13.2125 3.11931 12.9544 3.32193 12.7518C3.52454 12.5492 3.78269 12.4112 4.06373 12.3553C4.34477 12.2994 4.63608 12.3281 4.90081 12.4377C5.16554 12.5474 5.39181 12.7331 5.55101 12.9713C5.7102 13.2096 5.79517 13.4897 5.79517 13.7762C5.79517 14.1605 5.64253 14.529 5.37083 14.8007C5.09913 15.0724 4.73062 15.225 4.34638 15.225ZM9.65862 24.8836C9.37208 24.8836 9.09197 24.7987 8.85371 24.6395C8.61546 24.4803 8.42976 24.254 8.32011 23.9893C8.21045 23.7245 8.18176 23.4332 8.23766 23.1522C8.29357 22.8712 8.43155 22.613 8.63417 22.4104C8.83679 22.2078 9.09494 22.0698 9.37597 22.0139C9.65701 21.958 9.94831 21.9867 10.213 22.0963C10.4778 22.206 10.7041 22.3917 10.8632 22.6299C11.0224 22.8682 11.1074 23.1483 11.1074 23.4348C11.1074 23.8191 10.9548 24.1876 10.6831 24.4593C10.4114 24.731 10.0429 24.8836 9.65862 24.8836ZM9.65862 20.0543C9.37208 20.0543 9.09197 19.9694 8.85371 19.8102C8.61546 19.651 8.42976 19.4247 8.32011 19.16C8.21045 18.8952 8.18176 18.6039 8.23766 18.3229C8.29357 18.0419 8.43155 17.7837 8.63417 17.5811C8.83679 17.3785 9.09494 17.2405 9.37597 17.1846C9.65701 17.1287 9.94831 17.1574 10.213 17.267C10.4778 17.3767 10.7041 17.5624 10.8632 17.8006C11.0224 18.0389 11.1074 18.319 11.1074 18.6055C11.1074 18.9898 10.9548 19.3583 10.6831 19.63C10.4114 19.9017 10.0429 20.0543 9.65862 20.0543ZM9.65862 15.225C9.37208 15.225 9.09197 15.14 8.85371 14.9809C8.61546 14.8217 8.42976 14.5954 8.32011 14.3307C8.21045 14.0659 8.18176 13.7746 8.23766 13.4936C8.29357 13.2125 8.43155 12.9544 8.63417 12.7518C8.83679 12.5492 9.09494 12.4112 9.37597 12.3553C9.65701 12.2994 9.94831 12.3281 10.213 12.4377C10.4778 12.5474 10.7041 12.7331 10.8632 12.9713C11.0224 13.2096 11.1074 13.4897 11.1074 13.7762C11.1074 14.1605 10.9548 14.529 10.6831 14.8007C10.4114 15.0724 10.0429 15.225 9.65862 15.225ZM16.4197 23.4348C16.4197 23.8191 16.267 24.1876 15.9953 24.4593C15.7236 24.731 15.3551 24.8836 14.9709 24.8836C14.5866 24.8836 14.2181 24.731 13.9464 24.4593C13.6747 24.1876 13.5221 23.8191 13.5221 23.4348V18.6055C13.5221 18.2213 13.6747 17.8528 13.9464 17.5811C14.2181 17.3094 14.5866 17.1567 14.9709 17.1567C15.3551 17.1567 15.7236 17.3094 15.9953 17.5811C16.267 17.8528 16.4197 18.2213 16.4197 18.6055V23.4348ZM14.9709 15.225C14.6843 15.225 14.4042 15.14 14.166 14.9809C13.9277 14.8217 13.742 14.5954 13.6323 14.3307C13.5227 14.0659 13.494 13.7746 13.5499 13.4936C13.6058 13.2125 13.7438 12.9544 13.9464 12.7518C14.149 12.5492 14.4072 12.4112 14.6882 12.3553C14.9693 12.2994 15.2606 12.3281 15.5253 12.4377C15.79 12.5474 16.0163 12.7331 16.1755 12.9713C16.3347 13.2096 16.4197 13.4897 16.4197 13.7762C16.4197 14.1605 16.267 14.529 15.9953 14.8007C15.7236 15.0724 15.3551 15.225 14.9709 15.225ZM16.1365 9.14673C15.9555 9.32789 15.7099 9.42973 15.4538 9.42985H3.86345C3.60729 9.42985 3.36161 9.32809 3.18048 9.14695C2.99935 8.96582 2.89759 8.72015 2.89759 8.46399V4.60054C2.89759 4.34438 2.99935 4.09871 3.18048 3.91757C3.36161 3.73644 3.60729 3.63468 3.86345 3.63468H15.4538C15.71 3.63468 15.9556 3.73644 16.1368 3.91757C16.3179 4.09871 16.4197 4.34438 16.4197 4.60054V8.46399C16.4195 8.7201 16.3177 8.96569 16.1365 9.14673Z" fill="#323232"/>
</svg>
