<svg width="27" height="22" viewBox="0 0 27 22" fill="none" xmlns="http://www.w3.org/2000/svg">
<path d="M2.65368 7.95323V18.568H23.8831V7.95323L13.2684 11.9338L2.65368 7.95323ZM2.65368 2.64587V5.29955L13.2684 9.28007L23.8831 5.29955V2.64587H2.65368ZM2.65368 -0.0078125H23.8831C24.5869 -0.0078125 25.2619 0.271771 25.7596 0.769433C26.2572 1.26709 26.5368 1.94207 26.5368 2.64587V18.568C26.5368 19.2718 26.2572 19.9467 25.7596 20.4444C25.2619 20.9421 24.5869 21.2216 23.8831 21.2216H2.65368C1.94988 21.2216 1.27491 20.9421 0.777245 20.4444C0.279583 19.9467 0 19.2718 0 18.568V2.64587C0 1.94207 0.279583 1.26709 0.777245 0.769433C1.27491 0.271771 1.94988 -0.0078125 2.65368 -0.0078125Z" fill="#323232"/>
</svg>
