<svg width="19" height="30" viewBox="0 0 19 30" fill="none" xmlns="http://www.w3.org/2000/svg">
<path d="M9.65864 0.106003C4.61424 0.106003 0.526855 4.17695 0.526855 9.21952C0.526855 17.9386 9.65864 29.3095 9.65864 29.3095C9.65864 29.3095 18.7904 17.9367 18.7904 9.21952C18.7904 4.17878 14.703 0.106003 9.65864 0.106003ZM9.65864 14.2621C8.35081 14.2621 7.09655 13.7426 6.17178 12.8178C5.24701 11.893 4.72748 10.6388 4.72748 9.33093C4.72748 8.02311 5.24701 6.76885 6.17178 5.84407C7.09655 4.9193 8.35081 4.39977 9.65864 4.39977C10.9665 4.39977 12.2207 4.9193 13.1455 5.84407C14.0703 6.76885 14.5898 8.02311 14.5898 9.33093C14.5898 10.6388 14.0703 11.893 13.1455 12.8178C12.2207 13.7426 10.9665 14.2621 9.65864 14.2621Z" fill="#323232"/>
</svg>
