<svg width="24" height="25" viewBox="0 0 24 25" fill="none" xmlns="http://www.w3.org/2000/svg">
<path d="M20.9986 0.274017H2.60126C1.9359 0.274017 1.2978 0.542294 0.82732 1.01983C0.356841 1.49737 0.0925293 2.14504 0.0925293 2.82038L0.0925293 21.4937C0.0925293 22.1691 0.356841 22.8167 0.82732 23.2943C1.2978 23.7718 1.9359 24.0401 2.60126 24.0401H20.9986C21.664 24.0401 22.3021 23.7718 22.7726 23.2943C23.2431 22.8167 23.5074 22.1691 23.5074 21.4937V2.82038C23.5074 2.14504 23.2431 1.49737 22.7726 1.01983C22.3021 0.542294 21.664 0.274017 20.9986 0.274017ZM20.142 16.5798L19.358 20.028C19.3182 20.2033 19.221 20.3597 19.0823 20.4718C18.9437 20.5838 18.7717 20.6448 18.5944 20.6449C10.232 20.6449 3.43751 13.7639 3.43751 5.26065C3.44373 5.08243 3.50614 4.91094 3.61556 4.77142C3.72498 4.6319 3.87563 4.53171 4.04535 4.4856L7.44259 3.68986C7.50054 3.67742 7.55951 3.67049 7.61873 3.66917C7.77033 3.67694 7.91712 3.72575 8.04386 3.81055C8.1706 3.89534 8.27267 4.01303 8.33946 4.15139L9.90742 7.86483C9.94582 7.96496 9.96721 8.07097 9.97066 8.17835C9.9579 8.41391 9.8547 8.63502 9.6832 8.79426L7.70287 10.4388C8.90279 13.0201 10.9496 15.0977 13.4928 16.3156L15.113 14.3055C15.2699 14.1315 15.4878 14.0267 15.7198 14.0138C15.8256 14.0172 15.9301 14.0389 16.0287 14.078L19.6873 15.6694C19.8237 15.7371 19.9397 15.8407 20.0232 15.9694C20.1068 16.098 20.1548 16.2471 20.1624 16.401C20.1613 16.4611 20.1545 16.521 20.142 16.5798Z" fill="#323232"/>
</svg>
