<?xml version="1.0" encoding="UTF-8" standalone="no"?>
<svg
   version="1.1"
   viewBox="0 0 800 600.03998"
   id="svg34"
   sodipodi:docname="mosque-8008801.svg"
   width="800"
   height="600.03998"
   inkscape:version="1.3.2 (091e20e, 2023-11-25, custom)"
   xmlns:inkscape="http://www.inkscape.org/namespaces/inkscape"
   xmlns:sodipodi="http://sodipodi.sourceforge.net/DTD/sodipodi-0.dtd"
   xmlns="http://www.w3.org/2000/svg"
   xmlns:svg="http://www.w3.org/2000/svg">
  <defs
     id="defs34" />
  <sodipodi:namedview
     id="namedview34"
     pagecolor="#ffffff"
     bordercolor="#000000"
     borderopacity="0.25"
     inkscape:showpageshadow="2"
     inkscape:pageopacity="0.0"
     inkscape:pagecheckerboard="0"
     inkscape:deskcolor="#d1d1d1"
     inkscape:zoom="0.18222326"
     inkscape:cx="104.2677"
     inkscape:cy="447.25354"
     inkscape:window-width="1920"
     inkscape:window-height="991"
     inkscape:window-x="-9"
     inkscape:window-y="-9"
     inkscape:window-maximized="1"
     inkscape:current-layer="svg34" />
  <g
     id="g34"
     transform="matrix(0.49372838,0,0,0.49372838,133.3864,-224.07368)">
    <g
       fill="#de833a"
       id="g1">
      <path
         d="m -269,453.84 c -0.30805,0 -0.60345,0.12238 -0.82129,0.34021 -0.21783,0.21783 -0.34021,0.51324 -0.34021,0.82127 l 10e-4,1213.00002 c 0,0.6415 0.52002,1.1615 1.1615,1.1615 l 1618,10e-4 c 0.3081,0 0.6035,-0.1224 0.8213,-0.3402 0.2177,-0.2178 0.3403,-0.5132 0.3403,-0.8213 V 455.00248 c 0,-0.64148 -0.52,-1.1615 -1.1616,-1.1615 l -1618,-10e-4 z"
         id="path1" />
    </g>
    <g
       fill="#fdf3d8"
       id="g2">
      <path
         d="m 1095.8,857.11 -3.4331,51.031 q -24.408,154.22 -142.83,246.68 -119.24,92.388 -280.84,74.926 -154.22,-24.408 -246.68,-142.83 -29.626,-38.28 -48.806,-83.422 l -16.12,-46.409 q -13.284,-47.901 -13.434,-99.975 4.0327,-159.81 110.15,-265.92 106.12,-106.12 265.92,-110.15 159.81,4.0327 265.92,110.15 106.12,106.12 110.15,265.92"
         id="path2" />
    </g>
    <path
       d="m 1196,1475.1 h -5.0662 c -7.9197,-45.967 -9.1968,-93.128 -36.647,-120.05 -26.893,-26.367 -62.059,-34.526 -85.39,-55.866 v -9.9892 c 2.1374,-1.0238 3.6277,-3.1892 3.6277,-5.7121 0,-2.5232 -1.49,-4.6921 -3.6277,-5.714 v -4.2478 c 0.5559,-0.6386 0.9045,-1.4623 0.9045,-2.3762 0,-2.0054 -3.6274,-12.34 -3.6274,-12.34 0,0 -3.6297,10.334 -3.6297,12.34 0,0.9139 0.3506,1.7396 0.9085,2.378 v 4.246 c -2.1377,1.0239 -3.6316,3.1908 -3.6316,5.7159 0,2.5227 1.4917,4.6898 3.6316,5.7122 v 9.9872 c -23.335,21.34 -58.501,29.5 -85.39,55.866 -27.452,26.922 -28.726,74.083 -36.647,120.05 h -5.0661 l -8.7122,22.498 h 277.07 l -8.7104,-22.502 z"
       id="path3" />
    <path
       d="M 1350,1493.4 H -270 l 0.88355,175.64 1618.10005,0.01 1.0053,-175.65 z"
       id="path4" />
    <path
       d="m 762.94,1497.6 h 126.75 l -2e-4,-156 h 11.965 l -1.5e-4,-39 h -23.929 v -151.57 h 23.93 l -1.5e-4,-39 h -37.717 l 10e-5,-98.855 c -10e-5,-18.137 -12.837,-33.271 -29.916,-36.825 V 951.7 c 6.0643,-2.8933 10.272,-9.0657 10.272,-16.219 0,-7.1532 -4.211,-13.326 -10.272,-16.219 v -11.983 c 1.5779,-1.8039 2.5678,-4.1397 2.5678,-6.7296 0,-5.6744 -10.275,-34.932 -10.275,-34.932 0,0 -10.269,29.257 -10.269,34.932 0,2.5869 0.99017,4.9229 2.5682,6.7296 v 11.98 c -6.0613,2.8928 -10.272,9.0656 -10.272,16.219 -10e-5,7.1533 4.2109,13.329 10.272,16.219 l 10e-5,24.647 c -17.079,3.5552 -29.916,18.685 -29.916,36.825 l -3e-5,98.849 h -37.716 v 38.994 h 23.929 l -10e-5,151.56 h -23.929 l 4e-5,38.994 h 11.965 l 10e-5,156 z"
       id="path5" />
    <path
       d="m 661.11,1348.3 c 0,-1.8826 -1.0248,-3.511 -2.5365,-4.4009 6.1948,-5.6912 10.04,-12.273 10.04,-21.666 0,-27.69 -33.754,-33.143 -33.754,-45.879 0,12.736 -33.754,18.19 -33.754,45.879 0,9.3928 3.8446,15.975 10.04,21.666 -1.5117,0.8899 -2.5365,2.5173 -2.5365,4.4019 0,2.7331 2.1419,4.9443 4.8391,5.091 v 27.358 c -2.6972,0.1453 -4.8391,2.3577 -4.8391,5.0908 0,2.7342 2.1419,4.9485 4.8391,5.094 v 14.284 h -63.276 v -20.836 l -7.2624,10e-4 v -14.346 l -0.6018,10e-4 c 12.802,-12.468 20.645,-26.958 20.645,-47.187 -10e-5,-57.1 -63.174,-72.586 -74.839,-96.592 2.0487,0.5096 4.1594,0.7852 6.2879,0.7852 7.9518,0 15.379,-3.5405 20.376,-9.7134 1.7378,-2.1513 3.1231,-4.5473 4.1155,-7.1225 l 0.15416,-0.4004 -0.36041,0.2339 c -4.203,2.7238 -9.0849,4.164 -14.117,4.164 -5.903,0 -11.688,-2.0505 -16.291,-5.7737 -8.7446,-7.0817 -11.923,-18.897 -7.906,-29.402 l 0.15306,-0.3994 -0.35949,0.2331 c -2.3101,1.4991 -4.3656,3.3521 -6.1082,5.5064 -4.4028,5.438 -6.4248,12.264 -5.6919,19.222 0.73205,6.958 4.1328,13.215 9.5717,17.616 2.104,1.7026 4.4616,3.0402 6.9573,4.0148 -10.314,24.607 -75.308,39.71 -75.308,97.626 0,20.228 7.8396,34.72 20.643,47.186 l -0.60176,10e-4 v 14.344 l -7.2605,9e-4 v 20.834 l -63.278,7e-4 v -14.349 c 2.7,-0.1458 4.8486,-2.3589 4.8486,-5.0913 0,-2.7332 -2.1486,-4.9463 -4.8486,-5.0911 v -27.36 c 2.7,-0.1456 4.8486,-2.3577 4.8486,-5.0909 0,-1.8816 -1.0287,-3.509 -2.5432,-4.3979 6.1929,-5.6892 10.04,-12.271 10.04,-21.665 0,-27.69 -33.758,-33.146 -33.758,-45.884 0,12.737 -33.75,18.194 -33.75,45.884 0,9.395 3.8475,15.976 10.042,21.665 -1.5135,0.8896 -2.5403,2.5163 -2.5403,4.3979 0,2.7322 2.1467,4.9446 4.843,5.0909 v 27.36 c -2.6963,0.1465 -4.843,2.3589 -4.843,5.0911 0,2.7314 2.1467,4.9448 4.843,5.0913 v 14.348 l -0.0295,7e-4 6e-5,94.696 42.047,10e-4 v -36.51 c 0,-15.155 21.714,-25.084 21.714,-25.084 0,0 21.712,9.928 21.712,25.084 v 36.509 l 54.107,10e-4 v -52.121 c -6e-5,-21.25 30.448,-35.171 30.448,-35.171 0,0 30.446,13.922 30.446,35.171 v 52.12 l 54.107,10e-4 v -36.51 c 0,-15.155 21.712,-25.084 21.712,-25.084 0,0 21.714,9.928 21.714,25.084 v 36.509 l 42.047,10e-4 -10e-5,-94.697 h -0.0276 v -14.285 c 2.6963,-0.1445 4.841,-2.3586 4.841,-5.0937 0,-2.7334 -2.1448,-4.9468 -4.841,-5.0911 v -27.358 c 2.6952,-0.1455 4.8401,-2.3586 4.8401,-5.0917 z"
       id="path6" />
    <path
       d="M -182.26,1371.9 H 237.3 q 0,87.329 0,174.66 -209.78,6e-4 -419.56,0 0,-87.331 0,-174.66"
       id="path7" />
    <path
       d="m 148.06,1400.7 h 48.348 v -59.505 h 4.5639 v -14.876 h -9.1278 v -57.815 h 9.1278 v -14.876 h -14.387 v -37.708 c 0,-6.9185 -4.8967,-12.691 -11.412,-14.047 v -9.4028 c 2.3132,-1.1037 3.9183,-3.458 3.9183,-6.1867 0,-2.7285 -1.6063,-5.0832 -3.9183,-6.1867 v -4.571 c 0.60193,-0.6881 0.97952,-1.5791 0.97952,-2.567 0,-2.1644 -3.9195,-13.325 -3.9195,-13.325 0,0 -3.9171,11.16 -3.9171,13.325 0,0.9868 0.37769,1.8778 0.97962,2.567 v 4.5699 c -2.3121,1.1033 -3.9183,3.458 -3.9183,6.1867 0,2.7285 1.6063,5.0841 3.9183,6.1867 v 9.4013 c -6.5148,1.3562 -11.412,7.1275 -11.412,14.047 v 37.706 h -14.387 v 14.874 h 9.1278 v 57.813 h -9.1278 v 14.874 h 4.5639 l 3e-5,59.506 z"
       id="path8" />
    <path
       d="m 106.33,1386.3 h -3.2586 c -5.0938,-29.566 -5.9153,-59.9 -23.571,-77.216 -17.297,-16.96 -39.916,-22.207 -54.923,-35.933 v -6.4249 c 1.3749,-0.6586 2.3333,-2.0513 2.3333,-3.6741 0,-1.6229 -0.95836,-3.0178 -2.3333,-3.6752 v -2.7321 c 0.3576,-0.4108 0.58187,-0.9407 0.58187,-1.5285 0,-1.2899 -2.3333,-7.9369 -2.3333,-7.9369 0,0 -2.3345,6.647 -2.3345,7.9369 0,0.5878 0.22545,1.1189 0.58422,1.5296 v 2.731 c -1.3749,0.6586 -2.3357,2.0523 -2.3357,3.6764 0,1.6227 0.95948,3.0166 2.3357,3.6741 v 6.4237 c -15.009,13.726 -37.628,18.974 -54.923,35.933 -17.657,17.316 -18.476,47.65 -23.571,77.215 h -3.2586 l -5.6037,14.47 h 178.21 l -5.6025,-14.473 z"
       id="path9" />
    <path
       d="m -150.75,1400.7 h 48.348 v -59.505 h 4.5639 v -14.876 h -9.1278 v -57.815 h 9.1278 v -14.876 h -14.387 v -37.708 c 0,-6.9185 -4.8955,-12.691 -11.412,-14.047 v -9.4028 c 2.312,-1.1037 3.9183,-3.458 3.9183,-6.1867 0,-2.7285 -1.6063,-5.0832 -3.9183,-6.1867 v -4.571 c 0.60191,-0.6881 0.97958,-1.5791 0.97958,-2.567 0,-2.1621 -3.9207,-13.322 -3.9207,-13.322 0,0 -3.9171,11.16 -3.9171,13.325 0,0.9866 0.37765,1.8778 0.97957,2.5668 v 4.5699 c -2.312,1.1035 -3.9183,3.458 -3.9183,6.1867 0,2.7287 1.6063,5.0843 3.9183,6.1866 v 9.4017 c -6.516,1.3558 -11.412,7.1273 -11.412,14.047 l 2e-5,37.705 h -14.387 v 14.874 h 9.1278 v 57.813 h -9.1278 v 14.874 h 4.5639 v 59.504 z"
       id="path10" />
    <path
       d="m 32.431,1038.9 c 8.224,-0.4683 9.6082,-3.2572 15.654,-2.8705 6.3307,0.4072 7.7354,-3.9287 18.137,-4.071 2.4428,-0.041 2.687,0.061 4.0916,1.5876 0.81433,0.8958 1.3842,1.7712 1.2825,1.9746 -0.3053,0.4886 -3.2979,1.2009 -3.2979,1.7708 1e-5,0.5704 -1.2822,0.1833 -1.5878,1.0384 -0.12207,0.3462 -1.1399,1.0991 -2.2391,1.6692 -1.9541,1.0178 -1.9948,1.0791 -1.7098,2.8294 2.626,16.753 -4.7836,31.613 -3.9897,31.613 -0.14258,0.4073 -0.65149,0.3257 -1.995,-0.2644 -1.5674,-0.7126 -2.0763,-1.3233 -3.8472,-4.7635 -2.5039,-4.8652 -2.3003,-3.6438 -4.2953,-7.6743 -3.1145,-6.2901 -0.26453,-5.3741 -2.8905,-11.216 -1.8932,-4.2341 -2.1985,-6.1882 -3.1349,-6.9009 -1.3027,-0.9973 -5.0686,-0.6514 -8.631,0.7534 -3.9899,1.5877 -4.0712,1.6079 -5.9236,0.3257 -1.71,-1.1604 -1.8932,-2.4834 -0.59033,-4.3157 0.7937,-1.1806 1.0992,-1.2619 4.9668,-1.4858 z"
       id="path11" />
    <path
       d="m 203.83,1028.6 c 8.1627,-1.0789 10.667,-3.9898 12.946,-4.4783 0.73279,-0.1628 2.5243,-0.8142 3.9899,-1.4453 3.0127,-1.3232 3.1145,-1.1604 17.669,-1.3232 l 3.1958,2.9314 c -5.7201,1.3843 -9.2621,5.0687 -8.8142,6.4937 0.54968,1.7708 1.3435,0.2646 2.3206,6.9006 0.30542,2.0559 -0.40711,10.239 -1.1807,13.761 -0.73278,3.3181 -2.7684,8.6108 -3.5214,9.2214 0.061,0.061 -1.5473,1.3233 -4.8245,-0.407 -1.9134,-1.0178 -1.8524,-0.8955 -2.626,-5.6794 -0.24414,-1.5066 -0.50891,-2.1985 -2.3613,-6.7991 -0.71242,-1.771 -0.32581,-4.3154 -0.93642,-4.3154 -0.6311,0 -0.28491,-1.323 -0.8346,-1.323 -0.56994,0 -0.81433,-3.99 -1.4045,-3.99 -0.57006,0 -0.1018,-0.9771 -1.3027,-3.3384 -1.5472,-3.0534 0.24414,-3.0332 -4.9873,-2.6462 -8.7328,0.6513 0.16284,1.0993 -12.092,1.0993 -0.0408,-1.9951 -0.5293,-3.9697 4.7634,-4.6618 z"
       id="path12" />
    <path
       d="m -65.707,976.2 c 2.4633,-1.2825 2.382,0.30542 11.42,-3.0532 2.7479,-1.0179 7.5316,-1.262 11.623,-2.5447 3.2979,-1.0381 13.008,-1.5266 15.389,-0.77346 1.8931,0.6106 2.7684,3.5216 1.0789,3.5216 -1.2214,0 -1.5876,1.0586 -3.0533,1.5266 -1.486,0.4685 -2.0967,1.9136 -1.2214,2.8909 3.9085,4.3154 2.463,27.23596 1.3231,26.80896 -0.32581,-0.1221 -0.93653,-0.02 -1.3843,0.2446 -0.99732,0.5901 -0.93628,0.5699 -1.8728,0.081 -1.8116,-0.977 -7.7556,-10.44296 -9.6488,-12.47796 -2.0967,-2.2798 0.32568,-2.5649 -3.4197,-6.5344 -2.0562,-2.1577 -3.2162,-5.4146 -4.7632,-6.1882 -4.5193,-2.3003 -10.117,2.8093 -14.718,0.6311 -1.2011,-0.56982 -1.6285,-1.0789 -1.7913,-2.1172 -0.16308,-1.1399 -2.45e-4,-1.4654 1.0378,-2.0152 z"
       id="path13" />
    <path
       d="m 234.91,983.53 c -7.2059,-2.7483 -18.259,-0.18336 -19.216,-1.7102 -0.73267,-1.1807 0.30541,-2.178 2.5447,-2.4834 9.7301,-1.323 9.6896,-2.0559 11.725,-3.9895 -0.12219,-2.3816 -0.46838,-12.051 -1.2214,-13.883 -0.85498,-2.0965 -4.743,-5.6387 -5.028,-6.4121 -0.224,-0.61059 -2.1781,-3.4196 -2.6056,-4.0713 1.5267,-2.056 2.7887,-4.0914 6.1678,-2.7479 2.6871,1.0789 3.5828,2.2799 6.6769,3.8065 3.318,1.6284 4.7225,3.5622 5.4148,3.5622 0.6311,0 6.1068,5.4758 6.7786,6.7583 1.2824,2.4834 -0.18323,8.285 1.5063,9.3433 1.832,1.1399 -0.38684,1.6695 3.2162,1.6695 3.6032,0 5.4758,0.69187 6.514,2.4018 0.50892,0.8145 0.91614,1.5877 0.91614,1.71 0,0.1223 -0.73303,0.36644 -1.6489,0.5293 -2.3613,0.44774 -11.277,4.9668 -14.555,5.6997 0,-0.061 -4.9059,0.67187 -7.1858,-0.1831 z"
       id="path14" />
    <path
       d="m 395.59,941.25 c 2.3817,-0.89576 2.5851,-1.0789 2.8295,-2.6057 0.50891,-3.1758 5.9032,-7.491 6.6362,-9.8116 0.36644,-1.1399 2.5444,-3.99 4.3968,-5.6997 1.3639,-1.2622 3.8881,-1.7302 4.458,-0.79396 0.10193,0.1831 4.4172,12.03 1.0586,13.089 -0.99744,0.32593 -0.83459,1.5064 -0.83459,2.5447 l 6.0458,-0.57005 c 3.3182,3.3994 4.2137,3.9287 0.73278,4.1324 -2.0967,0.12204 -3.6438,3.3181 -4.6615,3.7658 -0.6311,0.28491 -0.3258,2.5445 0.57002,4.2953 1.0178,1.9949 1.3639,5.0684 1.4656,13.394 0.0611,4.8853 -0.0407,5.9031 -0.59034,6.0457 0,-0.0408 -0.16284,0.1629 -2.8905,0.2239 -1.9135,0.0408 -2.4426,-0.1426 -3.8473,-1.3843 -1.6285,-1.4451 -3.1755,-3.9693 -3.2366,-5.2315 -0.0205,-0.6716 -1.995,-3.4199 -5.3944,-7.552 -2.1577,-2.626 -2.7074,-3.664 -3.0738,-5.9032 -0.38684,-2.3413 -1.5267,-2.789 -5.4352,-2.1987 -7.145,1.0994 -9.893,3.3998 -9.8931,-0.3054 0,-5.1297 4.9872,-2.9312 11.664,-5.4348 z"
       id="path15" />
    <path
       d="m 227.48,911.93 c -0.3053,-0.12207 -1.4249,-0.0408 -2.5038,0.16287 -2.8497,0.5493 -7.5115,0.50876 -7.5115,-0.0611 0,-1.9341 3.3589,-2.1172 19.44,-5.5776 3.1146,-0.6719 8.0814,-0.5498 8.0814,0.2034 0,1.1196 -1.1195,2.4834 -0.44775,4.9465 0.52918,1.9746 2.1578,2.6669 6.2289,2.6669 2.5854,0 2.9517,0.12205 4.2952,1.4248 1.771,1.7102 1.8727,2.5852 0.28492,2.5852 -1.8727,0 -9.2416,3.7253 -11.562,5.8625 -8.8753,8.0816 -22.31,11.888 -22.555,12.071 -9.2825,3.5215 7.776,-10.544 7.776,-12.01 0,-0.6921 -6.0254,-1.1399 -8.2036,-0.6108 -2.5037,0.6108 -6.066,0.5293 -6.982,-0.1626 -0.44776,-0.3462 -0.77356,-1.1809 -0.77356,-1.9746 0,-4.7024 14.209,-1.2214 15.125,-5.7202 0.32553,-1.7506 0.0202,-3.5216 -0.69229,-3.8065 z"
       id="path16" />
    <path
       d="m 138,930.05 c 5.2112,-0.73291 7.145,-2.3003 9.0992,-2.5042 1.6082,-0.16283 1.9745,-1.5061 0.89563,-3.1551 -0.59033,-0.89573 -0.67175,-2.0762 -0.46814,-7.2468 0.50891,-13.17 1.5673,-7.1042 1.5673,-11.44 0,-2.7072 1.0383,-3.5625 4.051,-3.257 1.4452,0.1423 2.4426,0.46823 2.6869,0.916 0.67176,1.1806 1.0178,0.97704 2.5446,3.8474 1.8116,3.3994 4.4784,5.8014 4.4784,6.473 3e-5,0.93667 2.5241,0.95693 2.7685,6.86 l 0.12207,2.8909 c 6.6362,0.3662 7.4707,0.3459 8.2036,2.1983 1.1195,2.8296 3.6438,1.8523 0.73279,3.0737 -2.463,1.0381 -2.9517,0.448 -2.9517,1.6692 0,0.89575 -0.89551,1.9136 -3.6233,4.2139 -3.5624,2.9719 -1.5064,0.22387 -19.684,-0.69202 -4.5597,-0.22385 -8.7938,-0.22385 -10.707,0.0405 -3.6439,0.48875 -5.4962,0.0205 -5.4962,-1.3638 -2e-5,-1.3028 1.4656,-1.934 5.7811,-2.524 z"
       id="path17" />
    <path
       d="m 573.17,900.76 c 2.9314,-0.28491 3.3182,-0.448 4.9466,-2.1172 2.1986,-2.2188 5.7406,-4.3562 7.5318,-4.5393 4.8855,-0.50876 9.771,-4.865 12.58,-3.3589 2.3816,1.2622 -3.3181,4.4988 3.9287,3.4809 3.9491,-0.54953 5.0484,-0.2849 6.0661,1.4248 0.77355,1.3233 0.77355,1.3438 -0.0611,1.3438 -6.0458,0 -15.003,13.761 -26.605,19.542 v 2.5e-4 c -1.9949,0.9973 -1.6692,0.91577 -2.5241,0.5901 -0.38687,-0.1426 -0.69217,-0.5496 -0.69217,-0.9163 -3e-5,-2.1983 5.7608,-10.972 5.7608,-11.399 0,-0.42749 -9.3233,-0.30543 -11.338,0.14257 -2.4224,0.5496 -3.5623,0.2849 -4.2341,-0.9568 -0.38687,-0.7329 -0.30537,-1.0991 0.48853,-1.9338 0.7735,-0.7737 1.6692,-1.0586 4.1526,-1.3028 z"
       id="path18" />
    <path
       d="m 254.46,911.65 -1.486,2e-4 c 0.0406,-6.4936 0.69202,-14.86 0.99744,-18.178 0.16272,-1.7505 -1.9542,-1.6487 -4.8245,0.2444 -1.2825,0.8547 -2.9109,1.5876 -3.603,1.6487 -1.1195,0.0815 -1.262,-0.061 -1.3027,-1.384 -0.12219,-4.3359 -4.397,-0.36643 -7.5318,-1.7915 -4.9467,-2.2595 6.8396,-2.7683 12.376,-6.7784 1.995,-1.4454 9.5674,-4.458 13.252,-5.2725 2.3408,-0.52915 2.6056,-0.4884 3.6642,0.3461 2.4427,1.9134 8.6309,0.50915 11.013,3.3996 0.89576,1.0992 1.0178,2.0356 0.24427,2.0356 -0.3053,0 -1.7709,0.6108 -3.257,1.3434 -3.9085,1.9543 -2.1373,1.6081 -5.1094,7.3078 -1.8321,3.542 -2.8092,5.6792 -3.705,6.4124 -0.97705,0.8142 -0.18311,1.1601 -2.0151,2.9109 -1.995,1.9133 -0.1426,1.2619 -4.2748,5.0686 0.0407,-0.0203 -2.6056,2.687 -4.4377,2.687 z"
       id="path19" />
    <path
       d="m 637.64,881.89 c 1.3029,-1.0789 -0.87535,-1.5471 2.5649,-1.9745 5.7811,-0.7328 12.417,-4.1324 18.89,-6.3106 3.1349,-1.0586 3.5012,-1.0788 8.3868,-0.6512 4.1119,0.3662 5.2722,0.63096 5.9847,1.323 2.972,2.972 -4.7837,0.42734 -5.9846,5.4352 -2.8296,11.745 -8.4683,24.692 -11.196,25.71 -3.4402,1.2822 -0.916,-3.074 -2.1374,-3.8474 -1.4453,-0.91601 -0.40703,-14.554 -1.8524,-17.995 l -0.71255,-1.6693 -3.094,2.7e-4 c -4.8448,-2.7e-4 -9.1196,2.1982 -10.768,2.2187 -0.97704,-2e-4 -1.0178,-1.4658 -0.0814,-2.2392 z"
       id="path20" />
    <path
       d="m 703.21,872.54 c 5.0076,-1.262 9.1196,-3.2366 9.6488,-4.6411 0.54964,-1.4454 0.285,-0.48865 3.7252,-3.0737 2.117,-1.5879 2.8702,-1.9135 3.888,-1.7101 2.5446,0.5089 1.3436,-2.9719 3.7049,-2.9719 0.6107,0 1.0992,-0.2036 1.0992,-0.4276 0,-1.0586 1.4657,0.30555 2.4834,2.2801 l 1.0993,2.178 c -2.0152,1.6285 -3.1145,2.6056 1.8525,2.6056 2.6463,0 3.3384,0.16283 4.1933,0.95666 2.4632,2.3207 -0.10174,0.75317 -4.2137,3.8065 l -2.1985,1.6286 c -0.50887,9.5268 -0.59027,9.3436 -4.234,8.9772 -1.8524,-0.1831 -3.0128,-0.56996 -3.6845,-1.2009 -2.4021,-2.2596 -2.5852,2.1985 -6.392,-3.6846 l -1.8117,-2.789 c -3.3791,-0.2644 -6.3307,-0.63096 -9.5063,0.1222 -5.659,1.3435 -9.1195,0.3462 0.3461,-2.0559 z"
       id="path21" />
    <path
       d="m 163.83,872.6 c 0.28492,-1.4452 2.8702,0.3054 15.043,-5.842 -1.3434,-10.707 -0.1831,-18.565 -0.63112,-27.277 -0.14233,-2.7482 0.26465,-3.3384 2.3206,-3.3181 1.5268,0.0202 1.9136,0.36621 7.3486,6.8804 7.776,9.3029 5.3742,7.7354 9.2825,7.3486 0.44788,-0.0408 -0.10184,-7.0434 -0.63102,-8.0612 -0.5089,-0.97706 -6.4734,-2.8702 -7.7558,-3.8065 -0.81421,-0.5905 -0.79383,-0.6515 0.36657,-1.8322 1.2213,-1.2213 1.2417,-1.2213 7.1653,-1.1194 6.8397,0.10156 10.809,0.67176 13.333,1.954 4.9465,2.5039 2.4428,1.7506 2.4428,6.6159 0,6.8601 7.7354,1.8524 10.463,5.0279 1.2825,1.4861 1.4045,2.5242 0.28492,2.2393 -0.71229,-0.18325 -13.17,5.842 -14.758,7.1448 -0.99756,0.83472 -7.1044,4.336 -7.1044,4.7636 0,0.16284 0.44787,0.44774 0.99756,0.61074 1.3638,0.40696 3.4402,2.4223 3.4402,3.3384 0,1.2212 -1.934,0.32568 -5.7814,2.6867 -6.3917,3.9289 -15.043,3.3386 -22.88,3.3181 -11.216,-0.0202 -13.048,-0.10181 -12.946,-0.67174 z m 34.3,-13.781 c 0.85486,-0.95677 0.65125,-2.239 -0.38684,-2.239 -3.3384,0 -2.2393,5.1296 0.38684,2.239 z"
       id="path22" />
    <path
       d="m 454.45,831.06 c 8.5699,-1.3031 6.0051,-2.0154 14.534,-4.621 8.7938,-2.687 8,-3.0128 11.257,-2.3411 7.8982,1.6286 7.0838,-1.323 10.219,3.074 -1.079,0.2239 -1.9746,0.2644 -5.4147,2.117 -3.3384,1.7914 -3.7864,2.5852 -3.0535,5.3739 0.79388,2.911 -0.40705,14.066 -2.0356,19.929 -2.1373,7.6949 -2.4426,5.211 -3.7048,6.0255 v 2e-4 c -2.6259,1.6689 -2.3206,-5.0892 -3.1348,-5.5981 -0.59033,-0.3666 -0.42748,-2.5039 0.28498,-3.7458 0.85491,-1.4858 0.81427,-2.1168 -0.10176,-2.4224 -1.3639,-0.46815 -3.5216,-3.8878 -3.8066,-6.005 -0.44787,-3.3996 -1.6692,-3.7455 -2.626,-9.6895 -3.3181,-0.16283 -5.4147,-0.42749 -8.9973,0.54944 -3.9491,1.0788 -5.5369,1.1196 -6.1476,0.18347 -0.7126,-1.0788 0.692,-2.504 2.7277,-2.8294 z"
       id="path23" />
    <path
       d="m 422.66,840.71 c -1.4656,-0.20349 -1.8524,1.6896 -2.3614,1.6896 -0.7124,0 -1.323,-1.2417 -1.323,-2.7074 0,-1.6488 -5.3335,-18.239 -6.1069,-20.01 -0.99743,-2.3003 -1.2825,-2.6056 -2.7074,-2.8702 -4.3155,-0.8142 -10.117,3.1144 -12.112,2.2189 l -0.97705,-0.44776 c 4.2952,-4.0306 9.4655,-3.6847 16,-8.0612 1.0992,-0.73278 13.415,-6.9007 17.343,-4.1528 0.65149,0.4684 1.8933,0.9773 2.7482,1.1196 1.6896,0.30556 3.8271,2.4633 2.4427,2.4633 -1.4248,0 -4.1932,1.8118 -5.8218,3.8065 -3.481,4.2544 -0.54968,8.0813 -5.1298,23.512 -0.89563,3.1754 -1.1195,3.5622 -1.9949,3.4399 z"
       id="path24" />
    <path
       d="m 321.24,825.97 c 2.3003,-0.0203 12.336,-2.3206 14.005,-3.1958 0.71252,-0.38686 0.77356,-0.75329 0.46826,-2.9518 -0.54956,-4.0099 -0.46826,-4.4578 -0.59034,-5.4146 -0.061,-0.44785 -6.005,-5.1705 -7.4707,-5.9236 -2.8295,-1.4658 -1.8321,-1.7712 4.8854,-1.4455 13.679,0.6515 15.797,2.2394 18.138,3.42 -0.81445,8.3461 -1.364,8.9973 5.4351,9.0381 3.2568,0.0203 3.5419,0.1018 4.5597,1.2621 1.4044,1.6487 1.3435,2.0763 -0.26463,2.0763 -1.8727,0 -4.8244,1.9338 -7.5521,2.8905 -2.0764,0.7329 -17.527,10.992 -17.73,10.992 -2.0967,1.4859 -2.4429,0.59021 -0.65136,-1.7506 0.6311,-0.81443 1.6489,-2.5853 2.2595,-3.9491 1.7302,-3.766 1.4656,-3.9083 -6.4937,-3.5826 -8.631,0.34605 -10.667,0.9565 -10.667,0.34605 -0.0205,-0.46838 1.201,-1.8119 1.6691,-1.8119 z"
       id="path25" />
    <path
       d="m 801.39,830 c 1.079,-0.89576 0.24435,-1.2622 1.6488,-2.5243 1.5878,-1.4453 8.0203,-0.91587 10.239,-1.954 3.1145,-1.4657 0.71245,-13.435 4.2136,-25.262 0.65134,-2.1985 0.65134,-2.4834 -0.0204,-3.6233 -0.97715,-1.6693 -0.91605,-1.9746 0.48845,-2.6056 1.1604,-0.5294 1.3028,-0.44776 3.3181,1.8118 1.1604,1.3027 2.117,2.5242 2.117,2.7275 0.0204,0.7329 1.14,1.3844 4.8653,8.3868 2.7481,5.1502 2.3613,3.1554 1.9949,8.6514 -0.40716,5.8627 -0.1221,6.2086 5.3536,6.8396 4.3359,0.5089 4.1527,0.6311 6.6361,3.074 -3.9084,0 -2.2392,0.12206 -12.193,3.4197 -5.8626,1.9542 -3.1145,1.6083 -12.438,1.2619 -7.0839,-0.2441 -7.9592,-0.20334 -9.9949,0.61074 0.12214,0 -4.2951,1.7101 -6.1679,0.34606 -0.69205,-0.52916 -0.71245,-0.63097 -0.0611,-1.1601 z"
       id="path26" />
    <path
       d="m 271.62,816.48 c 0,-1.7709 3.8066,0.1018 15.389,-4.2135 -2.3614,-13.639 -1.8932,-13.537 -4.0102,-15.471 -2.5649,-2.3411 -3.8473,-7.6132 -2.3613,-9.6488 0.56995,-0.7736 0.69202,-0.7736 3.1553,0.1424 7.7556,2.911 12.58,6.6361 17.588,11.318 -0.97703,10.341 -1.5063,10.483 4.397,10.483 3.5624,0 3.9288,0.0816 4.8245,1.1196 1.2621,1.4453 1.2213,1.995 -0.1222,1.995 -1.5878,0 -10.3,4.8651 -12.886,5.3333 -0.0408,0 -1.9542,0.36645 -1.9949,0.36645 -0.91602,0.18325 -13.435,-0.89565 -14.351,-1.2417 -2.5446,-0.95665 -9.6284,2.239 -9.6284,-0.18335 z"
       id="path27" />
    <path
       d="m 924.26,773.31 c 1.4452,-0.73305 2.3408,-2.219 1.7912,-2.9722 -1.8931,-2.5038 -1.5674,-16.57 -1.5267,-17.913 0.0814,-2.1577 0.16287,-2.3003 1.3027,-2.4428 1.8118,-0.20364 1.8728,-1.9949 0.12219,-3.664 -1.2825,-1.2215 -1.8524,-3.3385 -0.91606,-3.3385 0.6921,0 0.1222,-2.2188 1.0789,-2.2188 0.34607,0 0.71246,-0.24424 0.8346,-0.54966 0.6514,-1.832 6.2901,5.6591 10.422,13.781 2.0966,4.1323 2.117,4.1729 2.1578,8.7938 0.0407,3.9083 0.18316,4.8245 0.93634,5.8423 1.0382,1.3841 2.7074,1.7098 5.1094,0.9973 3.7048,-1.0992 6.6361,2.6462 4.9669,2.6462 -0.4071,0 -1.3639,0.38687 -2.1168,0.85523 -2.0356,1.2621 -6.9008,2.7684 -9.0382,4.0305 -4.6006,2.7072 -17.323,-0.224 -23.43,1.0991 -2.8091,0.3462 -4.3563,1.4656 -4.1323,-0.54944 0.4071,-3.5421 6.0661,-1.1604 12.438,-4.397 z"
       id="path28" />
    <path
       d="m 168.02,752.4 c -4.3766,2.0152 -0.81434,0.77345 -3.3996,5.9642 -2.7074,5.3945 -16.224,16.427 -18.036,16.529 -0.93653,0.061 -1.0382,-1.8933 -0.18311,-3.2774 1.1399,-1.8728 3.033,-7.1858 3.9083,-8.5496 0.89563,-1.3843 1.262,-6.1068 0.5293,-6.5751 -0.97718,-0.61072 -5.8831,-1.5064 -8.2443,-1.5268 -3.2775,-0.0204 -6.4732,0.97724 -7.9594,0.61078 -0.99731,-0.24424 -1.8931,-1.7304 -1.3435,-2.2799 0.14246,-0.1425 1.8116,-0.4071 3.7048,-0.57 6.4733,-0.5903 5.5369,-3.0533 14.555,-5.7607 10.87,-3.2774 10.626,-3.2366 10.219,-1.3842 -0.36645,1.6896 0.224,1.9337 5.6589,2.2595 4.8855,0.3053 4.3156,0.24415 6.4529,2.9109 -1.4656,0.18311 -2.9108,0.28491 -5.8624,1.6488 z"
       id="path29" />
    <path
       d="m 769.93,769.13 c -3.4198,0 -0.89565,-1.3231 3.196,-1.3231 1.4453,0 8.285,-2.2596 8.9568,-3.9898 1.3027,-3.3385 -0.54976,-28.356 0.77338,-29.822 0.40723,-0.4476 0.97716,-0.8141 1.2622,-0.8141 0.79388,0 9.7302,9.3639 12.478,14.738 1.2213,2.402 1.0381,2.3612 0.48844,13.13 1.6082,1.0585 1.8321,1.4859 5.4759,1.3843 3.6438,-0.10195 3.2367,-0.0815 5.4351,2.463 -5.9644,1.2417 -6.2697,3.3384 -12.784,5.15 -3.1553,0.87535 -3.8474,0.9161 -6.4326,0.46824 -3.2163,-0.56994 -11.196,-0.34604 -13.435,0.36636 -1.8931,0.6108 -5.1908,1.7304 -6.2086,1.7915 -1.2824,0.061 -0.87531,-1.0994 0.63103,-1.7711 2.0357,-0.9364 2.1171,-1.771 0.16285,-1.771 z"
       id="path30" />
    <path
       d="m 683.48,760.58 c 2.626,-0.30527 8.4071,-2.2392 9.2214,-3.0738 0.30535,-0.30544 0.44787,-1.0789 0.3257,-1.7099 -0.1832,-0.89574 -0.63107,-1.2417 -2.1985,-1.6693 -1.0789,-0.285 -2.3613,-0.529 -2.8499,-0.529 -1.6692,0 -1.0381,-2.3206 2.8295,-1.5879 1.5267,0.285 2.4834,-0.3461 3.0941,-2.0559 0.4682,-1.3436 -1.5674,-5.9441 -3.5623,-8.0612 -5.4556,-5.7811 3.7455,-3.0737 11.42,-0.65135 5.1705,1.6286 7.3282,3.3588 6.8804,5.4758 -0.71243,3.2571 -0.73278,6.2696 -0.0611,6.8193 0.36646,0.3052 2.4835,0.67177 4.7226,0.8141 3.7456,0.2444 4.112,0.3462 4.9059,1.4657 0.91603,1.2825 0.7736,1.771 -0.4682,1.771 -1.6896,0 -3.1552,1.832 -8,3.8677 -2.5242,1.0586 -3.6437,1.2214 -9.7302,1.4656 -6.4529,0 -8.7735,0.97715 -9.8116,-0.28491 -1.0586,-1.2823 -9.6488,-0.0202 -11.277,0.34616 1.3232,-1.2418 1.9746,-2.0966 4.5598,-2.4021 z"
       id="path31" />
    <path
       d="m 664.96,757.25 c -3.6844,1.2622 -3.8472,1.2824 -12.743,1.1602 -4.9466,-0.061 -9.14,0.0408 -9.3232,0.20364 0,0.32566 -1.6489,0.56996 -1.4045,-0.24438 0.30529,-0.93626 7.4503,-2.8295 10.748,-5.4146 0.8142,-0.6311 0.8142,-0.77355 0.16285,-2.1171 -0.57,-1.2214 -1.201,-1.6285 -3.888,-2.5444 -1.771,-0.6107 -3.3181,-1.2826 -3.4402,-1.4861 -0.46827,-0.75315 1.0381,-1.1603 4.4172,-1.1603 3.0128,0 3.4809,-0.12204 3.9084,-0.9364 1.4656,-2.7276 -1.6082,-2.2392 -4.6005,-1.5063 -0.9567,0.24426 -1.486,0.0814 -2.2595,-0.6514 -3.1552,-2.9516 3.8472,-5.883 2.7276,-8.3054 -0.9159,-1.995 0.0205,-2.1577 5.252,-0.855 6.6361,1.6692 6.6768,1.6488 6.6564,-3.1755 -0.0407,-5.8626 3.4606,-16.387 4.3155,-17.018 0.18326,-0.1426 0.87531,-1.2621 1.5471,-2.4835 3.9694,-7.267 4.7837,-7.2264 7.1247,0.2851 4.3765,14.005 2.0152,11.969 1.1603,18.483 -0.2647,1.995 -0.1629,2.4021 0.6717,3.2571 0.87533,0.87534 1.2621,0.95664 3.9287,0.69204 2.8906,-0.28493 2.9924,-0.26455 4.2545,1.0788 1.1399,1.2011 1.201,1.364 0.44775,1.364 -2.3206,0.0203 -4.8242,3.3792 -6.8802,3.7658 -0.5496,0.10195 -1.832,1.0178 -2.8092,2.0153 -1.9135,1.9338 -1.6896,1.8932 -5.8219,1.0993 -2.056,-0.38684 -2.6055,0.26453 -2.7888,3.4198 -0.2035,3.2774 0.18327,3.8269 3.1146,4.3562 4.5395,0.83446 2.8499,-3.6438 7.5725,1.9745 -5.4148,0.4479 -5.2316,2.4223 -12.051,4.743 z"
       id="path32" />
    <path
       d="m 423.21,725.57 c -6.3308,0.93626 -8.6718,0.468 -8.6718,-1.7915 0,-0.69204 0.14245,-1.2824 0.32568,-1.323 0.89575,-0.18325 14.84,0.1831 16.407,-2.3003 0.18323,-0.28505 0.46813,-1.832 0.65136,-3.4198 0.87525,-7.9592 2.3816,-5.028 -5.8829,-13.679 2.3409,-1.6491 2.402,-2.0562 8.3663,0.32554 6.2902,2.5039 8.6108,3.7863 11.176,6.0662 4.3561,3.9287 0.99737,3.4402 0.32573,8.7532 -0.24433,1.893 -0.14251,2.2595 0.85492,3.1754 0.99745,0.9365 4.9872,2.0154 7.3894,2.0154 1.1196,0 5.0482,3.1144 1.6487,3.1144 -2.5241,0 -0.48846,0.79394 -8.8549,1.5675 -1.3841,0 -8.346,1.1603 -12.519,-0.61072 -6.4938,-2.748 -9.2214,-2.1781 -11.216,-1.893 z"
       id="path33" />
    <path
       d="m 503.84,650.23 c 1.5267,-0.95664 10.137,-1.5063 13.333,-4.3562 1.0382,-0.9364 0.7125,-2.748 2.7074,-5.3536 1.9338,-2.5242 2.7684,-4.0509 4.1526,-4.5802 1.8524,-0.692 -0.3664,-0.9769 3.8065,-4.4579 4.4173,-3.6641 4.0509,-4.4376 4.8651,-3.6438 1.486,1.4657 2.7074,-1.486 2.4428,6.6159 -0.12215,3.7453 -0.5293,4.8039 -2.7888,7.2467 -1.1195,1.2214 -1.3435,2.4834 -0.4681,2.7888 0.3053,0.1018 1.7709,0.1018 3.257,-0.0205 2.5242,-0.2035 2.7888,-0.1221 3.888,1.0586 2.5038,2.7074 0.56995,0.5699 -3.8066,3.4604 -4.5598,3.0332 -4.2341,2.6464 -4.0101,5.0484 0.20347,2.1781 -0.69213,6.1882 -1.9135,8.5699 -0.5699,1.0992 -0.71244,1.1399 -2.8498,0.81434 -2.7074,-0.42749 -5.8829,-2.0968 -6.0254,-3.196 -0.224,-1.5266 -1.3436,-0.8345 -5.0891,-8.7531 -7.9186,0 -12.153,2.1782 -12.682,1.6489 -0.56995,-0.48853 0.20368,-2.2799 1.1807,-2.8906 z"
       id="path34" />
  </g>
</svg>
