<?xml version="1.0" encoding="UTF-8" standalone="no"?>
<svg
   width="446.05301"
   height="600"
   viewBox="0 0 118.01819 158.75"
   version="1.1"
   id="svg5"
   sodipodi:docname="plant-7413415.svg"
   inkscape:version="1.3.2 (091e20e, 2023-11-25, custom)"
   xmlns:inkscape="http://www.inkscape.org/namespaces/inkscape"
   xmlns:sodipodi="http://sodipodi.sourceforge.net/DTD/sodipodi-0.dtd"
   xmlns="http://www.w3.org/2000/svg"
   xmlns:svg="http://www.w3.org/2000/svg">
  <sodipodi:namedview
     id="namedview1"
     pagecolor="#ffffff"
     bordercolor="#000000"
     borderopacity="0.25"
     inkscape:showpageshadow="2"
     inkscape:pageopacity="0.0"
     inkscape:pagecheckerboard="0"
     inkscape:deskcolor="#d1d1d1"
     inkscape:document-units="mm"
     inkscape:zoom="0.22450524"
     inkscape:cx="-40.088151"
     inkscape:cy="216.03059"
     inkscape:window-width="1920"
     inkscape:window-height="991"
     inkscape:window-x="-9"
     inkscape:window-y="-9"
     inkscape:window-maximized="1"
     inkscape:current-layer="svg5" />
  <defs
     id="defs2" />
  <g
     id="layer2"
     transform="matrix(0.49034495,0,0,0.49034495,7.5228213,6.5587752)">
    <rect
       style="opacity:1;fill:#d9fffc;fill-opacity:1;stroke-width:1.05833;stroke-linecap:round;stroke-linejoin:round"
       id="rect86268"
       width="240.68379"
       height="323.75168"
       x="-15.341896"
       y="-13.375839" />
    <ellipse
       style="opacity:1;fill:#61b5d9;fill-opacity:1;stroke-width:1.05833;stroke-linecap:round;stroke-linejoin:round"
       id="path100313"
       cx="109.99335"
       cy="266.38608"
       rx="22.659723"
       ry="7.1750588" />
    <path
       style="fill:#008080;fill-opacity:1;stroke-width:1.05833;stroke-linecap:round;stroke-linejoin:round"
       d="m 75.567333,85.701988 c 0,0 15.60436,14.842752 22.41166,48.627132 l 1.63879,0.12606 c 0,0 -0.25212,-21.80858 -20.92614,-47.777169 z"
       id="path5803" />
    <path
       style="display:inline;fill:#d82c2c;fill-opacity:1;stroke-width:1.05833;stroke-linecap:round;stroke-linejoin:round"
       d="m 83.411533,239.10965 3.9221,27.27642 c 0,0 3.56555,5.52662 16.044957,5.43748 12.47942,-0.0891 15.8775,-3.71772 17.39286,-4.96568 l 4.1787,-27.74822 c 0,-0.41473 -20.5019,7.96463 -41.538617,0 z"
       id="path5805" />
    <path
       id="path5807"
       style="display:inline;fill:#991f1f;fill-opacity:1;stroke-width:1.05833;stroke-linecap:round;stroke-linejoin:round"
       d="m 105.16154,218.51844 c -23.237697,-0.0715 -24.538167,6.69464 -24.602627,6.64093 l 0.98082,11.58793 c 0,0 0.80206,1.15876 1.87172,2.36213 21.036717,10.96405 41.538547,0 41.538547,0 0,0 1.47086,-1.15839 1.78284,-2.67374 0.31199,-1.51536 1.0697,-9.58236 1.0697,-9.58236 -0.006,0.006 1.29092,-8.26129 -22.641,-8.33489 z" />
    <ellipse
       style="display:inline;fill:#991f1f;fill-opacity:1;stroke-width:1.05833;stroke-linecap:round;stroke-linejoin:round"
       id="ellipse5809"
       cx="104.1022"
       cy="226.38173"
       rx="23.228073"
       ry="7.7153244"
       transform="matrix(0.99999632,0.00271355,0,1,0,0)" />
    <path
       id="path53203"
       style="fill:#321600;fill-opacity:1;stroke-width:1.05833;stroke-linecap:round;stroke-linejoin:round"
       d="m 103.96816,223.2582 c -14.319297,0 -20.428791,4.18473 -22.077198,5.58984 a 23.228084,7.7152925 0.17475527 0 0 22.211058,5.53144 23.228084,7.7152925 0.17475527 0 0 22.42703,-5.64617 c -2.69481,-1.83071 -9.67653,-5.47511 -22.56089,-5.47511 z" />
    <path
       style="fill:#009090;fill-opacity:1;stroke-width:1.05833;stroke-linecap:round;stroke-linejoin:round"
       d="m 106.94414,229.21525 c 0,0 3.47641,1.42622 3.83296,-0.26741 0.35656,-1.69364 0.17828,-29.32663 0.17828,-29.32663 0,0 0.89138,-14.70788 1.24794,-18.62998 0.35655,-3.9221 0.89139,-16.84721 3.83296,-25.85021 2.94158,-9.00301 9.00301,-23.97831 15.51013,-32.17906 6.50712,-8.20076 15.24272,-14.26219 31.73337,-15.33186 0,0 -4.90263,-1.78277 -5.25918,-1.78277 -0.35656,0 -11.14234,2.22847 -11.58803,2.40675 -0.44569,0.17827 -11.49889,6.06143 -20.68017,19.87792 -9.18129,13.81649 -12.30114,26.47418 -12.92511,28.07868 l 0.26742,-35.83375 -0.4457,-2.49588 -1.87191,1.24794 c 0,0 0.89139,18.8974 0.26742,28.61352 -0.62397,9.71611 -1.24794,17.56031 -1.51536,18.62998 -0.26742,1.06966 0.0891,13.45994 -0.26742,14.5296 -0.35655,1.06967 -1.42622,6.77454 -1.60449,9.18129 -0.17828,2.40674 1.24794,7.57678 0.53483,7.75506 -0.71311,0.17828 -1.24794,0.98053 -0.98052,1.96105 0.26741,0.98053 -0.26742,29.41576 -0.26742,29.41576 z"
       id="path5811" />
    <path
       id="path66410"
       style="fill:#006565;fill-opacity:1;stroke-width:1.05833;stroke-linecap:round;stroke-linejoin:round"
       d="m 110.99462,216.40694 c -1.29175,0.089 -2.57545,0.1162 -3.84164,0.0904 -0.0961,6.57616 -0.20876,12.71808 -0.20876,12.71808 0,0 3.47628,1.42595 3.83284,-0.26768 0.15499,-0.73616 0.20611,-6.40265 0.21756,-12.54083 z" />
    <path
       style="fill:#008080;fill-opacity:1;stroke-width:1.05833;stroke-linecap:round;stroke-linejoin:round"
       d="m 96.088073,229.12708 c 0,0 -1.00849,-13.74066 -1.13455,-15.00127 -0.12606,-1.26062 1.13455,-0.94546 0.75637,-1.82789 -0.37819,-0.88243 -2.08001,-2.77334 -1.26061,-15.37946 l 2.77334,-4.41214 c 0,0 0.12606,15.75764 0.31515,17.27038 0.18909,1.51273 0.8194,2.52122 1.07152,3.46668 0.25212,0.94546 1.449697,16.07279 0.69334,16.95522 -0.75637,0.88243 -3.27759,0.31515 -3.21456,-1.07152 z"
       id="path5813" />
    <path
       style="fill:#008080;fill-opacity:1;stroke-width:1.05833;stroke-linecap:round;stroke-linejoin:round"
       d="m 104.26998,228.14559 c 0,0 -2.67416,1.06966 -2.85244,-0.53483 -0.17828,-1.6045 1.51536,-17.29291 1.51536,-20.23448 0,-2.94158 0.44569,-9.09215 -0.35656,-12.12286 -0.80224,-3.03072 -1.1588,-4.18952 -1.24794,-8.11162 -0.0891,-3.9221 1.69364,-13.81649 1.33708,-16.04496 -0.35655,-2.22847 -2.852437,-29.9506 -2.852437,-29.9506 0,0 -0.89138,-15.51012 0.891387,-21.92811 1.78278,-6.41798 5.79402,-31.020258 12.30114,-44.391059 6.50712,-13.3708 14.26218,-18.006012 14.26218,-18.006012 0,0 2.49589,-3.38727 4.54608,-4.278656 2.05019,-0.891387 4.27865,-0.713111 5.5266,-2.139329 1.24794,-1.426218 0.44569,-2.495883 2.76329,-3.030714 2.31761,-0.534832 12.6577,-0.356556 12.6577,-0.356556 0,0 -19.43224,4.278657 -30.66371,18.095151 -11.23147,13.816494 -15.42099,38.864465 -15.42099,38.864465 0,0 -4.54607,15.59927 -3.29813,38.77532 1.24794,23.17606 3.11986,39.84499 1.87191,43.67795 -1.24794,3.83296 1.78278,11.58803 0.98053,21.6607 -0.80225,10.07267 -1.96105,20.0562 -1.96105,20.0562 z"
       id="path5823" />
    <path
       style="fill:#00b0b0;fill-opacity:1;stroke-width:1.05833;stroke-linecap:round;stroke-linejoin:round"
       d="m 146.13434,114.41146 c 0,0 -3.71881,-0.69334 -7.12246,0.69334 -3.40365,1.38667 -1.82788,2.8994 -7.18548,3.02546 -5.3576,0.12606 -7.12245,1.51274 -8.69822,1.57577 -1.57576,0.063 -1.63879,-4.66426 0.063,-6.24003 1.70183,-1.57576 15.0643,-2.01698 15.8837,-2.39516 0.8194,-0.37818 0.94546,-0.44121 0.94546,-0.44121 0,0 -8.76125,-3.52971 -6.99639,-6.36609 1.76486,-2.83638 7.81579,-5.483663 9.76974,-6.996396 1.95394,-1.512733 3.59274,-3.340618 6.87033,-3.340618 0,0 -4.79032,5.105471 -6.30306,7.437614 -1.51273,2.33213 -0.94546,4.97941 0.12606,3.78183 1.07152,-1.19758 2.89941,-8.004885 4.5382,-9.51762 1.6388,-1.512732 4.16002,-1.26061 7.12245,-2.458191 2.96244,-1.197581 8.06792,-2.773343 10.7152,-1.323642 2.64728,1.449703 6.74427,2.773344 6.74427,2.773344 0,0 -12.54308,-0.315153 -18.21583,2.080009 -5.67275,2.395157 -4.47517,5.54669 -3.15153,4.41214 1.32364,-1.134553 8.95034,-6.61821 11.47156,-6.61821 2.52122,0 11.72369,0.441214 14.434,0.441214 2.71031,0 7.05942,0.630307 7.43761,4.664263 0,0 -3.27759,0.18909 -7.75276,-0.063 -4.47517,-0.25212 -12.54308,2.458193 -11.59763,3.403653 0.94546,0.94546 5.48366,-3.466683 8.95035,-3.970933 3.46667,-0.504239 9.26549,0.315161 9.32852,2.269103 0.063,1.95395 -0.94546,3.9079 0.69333,4.79033 1.6388,0.88242 2.01698,1.32364 2.01698,1.32364 0,0 -8.00488,-0.75637 -10.40004,-0.44122 -2.39516,0.31516 -7.68973,3.34062 -10.46307,2.58426 -2.77335,-0.75637 -5.92488,-2.64729 -7.94185,-2.64729 -2.01698,0 -4.79033,0.56728 -4.28608,1.51274 0.50424,0.94546 2.96243,4.34911 5.10547,5.42063 2.14304,1.07151 5.98791,5.1685 5.98791,5.1685 0,0 -5.73578,-0.063 -11.03035,-0.44121 -5.29457,-0.37819 -6.99639,-2.89941 -7.05942,-4.09699 z"
       id="path5815" />
    <path
       style="fill:#258295;fill-opacity:1;stroke-width:1.05833;stroke-linecap:round;stroke-linejoin:round"
       d="m 112.64901,120.06495 c 0,0 -1.11423,-0.71311 -1.7382,0.5794 -0.62397,1.29251 -1.42622,2.45131 -3.87753,2.05019 -2.45132,-0.40112 -7.621357,-2.05019 -9.270417,-2.67416 -1.64907,-0.62397 -5.88316,-3.07528 -8.02248,-7.44308 -2.13933,-4.3678 -2.31761,-5.97229 -1.33708,-5.43746 0.98052,0.53483 4.99176,2.31761 8.51274,2.94158 3.520977,0.62397 6.195137,1.33708 4.144947,0.13371 -2.050187,-1.20338 -8.958437,-2.09476 -14.083907,-5.17005 -5.12547,-3.07528 -2.94158,-8.468174 -1.82734,-8.557312 1.11423,-0.08914 5.79401,3.07528 7.26479,3.966672 1.47079,0.89139 4.76892,3.3427 6.77454,4.45694 2.005627,1.11423 6.328847,3.65468 6.596257,3.43183 0.26742,-0.22284 -3.61011,-4.18951 -6.328837,-5.70487 -2.71873,-1.51536 -8.06705,-2.45131 -9.44869,-3.164423 -1.38166,-0.71312 -5.03634,-1.871916 -4.81349,-3.387275 0.22284,-1.515356 4.54607,-6.239705 6.8191,-6.640829 2.27304,-0.401124 3.43184,6.729968 6.41798,8.913867 2.986147,2.1839 7.755067,4.9472 8.289897,4.76892 0.53483,-0.17828 -4.45693,-5.303754 -7.131087,-6.551695 -2.67416,-1.247942 -5.03634,-2.941574 -6.28428,-4.991764 -1.24794,-2.05019 -1.82734,-2.406746 -0.0446,-2.406746 1.78277,0 5.83859,1.158804 8.022477,2.451315 2.1839,1.29251 4.41237,5.392888 5.92773,6.417984 1.51535,1.025093 3.25356,2.094766 2.49588,0.490263 -0.75768,-1.604497 -3.92211,-5.080905 -6.06143,-7.086526 -2.13933,-2.005619 -3.699257,-3.208991 -3.699257,-3.208991 0,0 2.317607,0.71311 4.011237,0.935955 1.69364,0.222848 4.45694,0.579403 4.81349,2.273036 0.35656,1.693635 1.0251,3.922105 1.91648,3.47641 0.89139,-0.445693 6.95282,0.935957 9.31499,1.24794 2.36218,0.311987 7.17567,1.337083 7.17567,1.337083 0,0 -8.64645,-0.178279 -7.62136,1.203374 1.0251,1.381652 6.77454,-1.025098 8.11162,-1.51536 1.33708,-0.490263 2.89701,-1.426219 4.63521,-0.71311 1.7382,0.71311 5.21461,1.470788 6.106,1.693634 0.89139,0.222848 1.69363,1.426216 -2.1839,1.426216 -3.87753,0 -13.90563,2.585022 -15.51013,3.654692 -1.60449,1.06966 -4.76892,3.74382 -3.9221,3.3427 0.84682,-0.40112 7.04196,-2.7633 8.78016,-3.43184 1.7382,-0.66854 6.37342,-0.44569 8.46817,0.35656 2.09476,0.80224 3.7884,4.18951 2.54046,4.18951 -1.24794,0 -3.47641,-1.02509 -5.43746,-1.42622 -1.96105,-0.40112 -13.19252,2.98615 -10.87492,2.98615 2.3176,0 6.95282,-1.33708 8.95844,-1.38165 2.00562,-0.0446 9.13671,0.44569 9.80525,0.5794 0.66854,0.13371 4.23409,2.1839 1.96105,2.98615 -2.27303,0.80225 -15.51013,-0.26742 -17.02548,0.22284 -1.51536,0.49027 -3.11986,0.17828 0.75767,1.11424 3.87753,0.93595 15.59927,2.27303 18.22886,2.49588 2.62959,0.22285 3.3427,0.40112 2.13933,2.3176 -1.20337,1.91649 -2.45131,4.23409 -6.28428,3.11986 -3.83296,-1.11423 -7.66592,-2.27304 -9.62697,-2.98615 -1.96105,-0.71311 -4.99177,-0.80224 -4.41237,0.13371 0.5794,0.93596 1.82735,1.64907 4.27866,2.31761 2.45131,0.66854 8.91387,2.09476 8.82473,2.98614 -0.0891,0.89139 -6.106,3.16443 -11.85545,2.22847 -5.74944,-0.93596 -9.80525,-0.35655 -11.45431,-0.35655 -1.64907,0 -3.38727,-2.36218 -1.91649,-4.99177 z"
       id="path5817" />
    <path
       style="fill:#00b0b0;fill-opacity:1;stroke-width:1.05833;stroke-linecap:round;stroke-linejoin:round"
       d="m 97.807433,98.047694 c 0,0 -8.15619,-2.674159 -11.09777,-4.367794 -2.94157,-1.693635 -2.54045,-0.891387 -5.0809,-1.559928 -2.54045,-0.668541 -7.97791,-6.77454 -13.14795,-9.047575 -5.17005,-2.273035 -16.08953,-8.869299 -20.01164,-10.696641 -3.9221,-1.827342 -10.78578,-5.30375 -14.12848,-6.239706 -3.3427,-0.935958 -14.79701,-5.170042 -16.04496,-5.571167 -1.24794,-0.401124 1.96105,-0.401124 4.50151,-1.47079 2.54045,-1.069662 4.27865,-1.515355 7.2648,-0.891385 2.98614,0.623972 2.85244,0.66854 5.21461,1.693635 2.36218,1.025092 7.97791,5.170042 9.49327,6.952816 0,0 -1.78278,-5.036336 -7.44308,-5.526598 l -6.23971,-4.234088 c 0,0 5.83859,0.980528 7.53222,0.534834 1.69364,-0.445693 2.89701,-2.005621 6.90825,0.534832 4.01124,2.540452 9.003,6.952816 10.29551,9.003006 1.29251,2.05019 3.03072,5.259181 3.38727,4.412363 0.35656,-0.846817 -2.49588,-6.997385 -7.17566,-7.576785 l -5.12547,-4.323226 c 0,0 6.50712,2.050188 8.69102,3.030715 2.1839,0.980525 7.48765,1.559925 9.22585,3.431838 1.7382,1.871911 3.47641,2.495881 4.32323,6.284275 0.84681,3.788394 1.42621,5.259181 2.3176,4.546073 0.89139,-0.71311 0.22285,-7.48765 -5.61574,-9.314992 l -1.64906,-1.738204 c 0,0 5.43746,2.852439 7.62136,3.520977 2.18389,0.668542 8.15618,2.80787 8.55731,4.412364 0.40112,1.604497 -1.33708,5.125474 -0.40113,5.392892 0.93596,0.267416 2.89701,-2.80787 -0.26741,-5.972292 0,0 7.2648,5.526598 9.04757,6.417985 1.78278,0.891387 3.11985,1.693635 2.7633,2.273035 -0.35655,0.579403 -6.72997,0.623973 -5.25918,2.228469 1.47079,1.604495 6.37341,-0.490265 6.6854,-1.470789 0,0 8.913857,8.512743 7.131087,10.652072 -1.782767,2.139328 -3.387267,1.961049 -3.387267,1.961049 0,0 2.94158,2.228469 1.11424,2.71873 z"
       id="path5819" />
    <path
       style="fill:#005f5f;fill-opacity:1;stroke-width:1.05833;stroke-linecap:round;stroke-linejoin:round"
       d="m 104.0917,231.26544 c 0,0 2.40675,1.96105 2.94158,0.0891 0.53483,-1.87191 1.1588,-14.26219 2.13932,-19.34309 0.98053,-5.08091 0.4457,-11.67717 6.50713,-20.5019 6.06143,-8.82472 11.7663,-12.39027 19.78878,-15.06443 8.02248,-2.67416 30.57457,-4.63521 30.57457,-4.63521 0,0 -8.37904,-2.40675 -20.41276,-1.42622 -12.03372,0.98052 -26.83074,13.28166 -28.88093,16.04496 -2.05019,2.7633 -8.20075,11.76631 -9.09214,21.39328 0,0 -1.42622,-20.41275 -5.08091,-23.53261 l -1.24794,3.03072 c 0,0 2.7633,3.83296 3.38727,11.94458 0.62397,8.11162 0.4457,12.39027 0.4457,12.39027 0,0 -0.62398,-0.53483 -0.71311,0.71311 -0.0891,1.24795 -2.85244,16.84721 -2.0502,17.82774 0.80225,0.98053 1.78278,-0.26742 1.69364,1.06966 z"
       id="path5821" />
    <path
       style="fill:#008080;fill-opacity:1;stroke-width:1.05833;stroke-linecap:round;stroke-linejoin:round"
       d="m 85.498943,141.01036 c 0,0 4.28608,16.514 7.05942,33.02801 2.77334,16.51401 1.76485,26.47284 1.76485,26.47284 l 2.89941,0.25212 c 0,0 -0.75637,-32.27165 -5.67275,-47.90323 -4.91638,-15.63158 -4.53819,-12.10187 -4.53819,-12.10187 z"
       id="path5825" />
    <path
       style="fill:#00b0b0;fill-opacity:1;stroke-width:1.05833;stroke-linecap:round;stroke-linejoin:round"
       d="m 86.192283,141.89279 c 0,0 0.88242,6.36608 -9.51762,6.49214 -10.40004,0.12606 -11.15641,-4.47517 -14.434,-6.49214 -3.27758,-2.01698 7.18549,-0.50425 10.21096,-0.56728 3.02546,-0.063 9.01337,-1.51273 7.31154,-2.14304 -1.70183,-0.63031 -11.78672,0.8194 -13.6146,2.14304 -1.82789,1.32364 -5.92487,-0.8194 -7.37458,-4.09699 -1.4497,-3.27759 0.75637,-6.36608 0.44122,-6.36608 -0.31516,0 3.7188,1.63879 6.74427,1.89091 3.02546,0.25213 10.08489,3.21456 9.64367,1.82789 -0.44121,-1.38667 -12.92126,-3.7188 -13.74066,-2.58425 -0.8194,1.13455 -3.40365,0.69333 -1.82788,-3.9079 1.57576,-4.60123 1.4497,-4.47517 1.4497,-4.47517 0,0 5.42062,3.7188 9.0764,3.97093 3.65577,0.25212 7.75276,2.33213 7.37457,1.19758 -0.37818,-1.13455 -8.38306,-5.60972 -10.33701,-6.68124 -1.95395,-1.07152 -5.42063,-1.95395 -4.47517,-3.65577 0.94546,-1.70183 6.05094,-3.78184 6.177,-2.77335 0.12606,1.00849 0.063,3.21456 4.16001,5.10548 4.09699,1.89091 5.16851,2.58425 4.60123,1.63879 -0.56727,-0.94546 -8.19397,-6.8073 -7.87882,-8.32003 0.31516,-1.51274 4.60124,1.95394 6.55518,0.75636 1.95395,-1.19758 0.75637,-2.01697 3.27759,-1.07151 2.52123,0.94545 3.65577,-0.63031 5.92488,0.063 2.26909,0.69334 5.48365,0.25213 5.7988,0.75637 0.31515,0.50425 -2.96243,4.41214 -3.59274,6.30306 -0.6303,1.89092 -1.38667,3.84486 0.31516,3.40365 1.70182,-0.44121 2.83637,-1.70183 3.84486,-2.83638 1.00849,-1.13455 2.83637,-0.88242 3.52971,-0.44121 0.69333,0.44121 1.4497,2.33213 0.50424,2.8994 -0.94546,0.56728 -3.21456,2.01698 -4.72729,4.34911 -1.51273,2.33213 -0.69333,2.58426 -0.69333,2.58426 0,0 4.79032,-4.5382 5.42062,-6.11397 0.63031,-1.57576 1.32365,-4.28607 4.286077,-4.72729 2.96244,-0.44122 5.23154,8.00488 6.11396,10.14792 0.88243,2.14304 0.88243,8.06791 -2.8994,11.15641 -3.78184,3.0885 -10.337007,8.95034 -17.648547,0.56728 z"
       id="path5827" />
    <path
       style="fill:#00b0b0;fill-opacity:1;stroke-width:1.05833;stroke-linecap:round;stroke-linejoin:round"
       d="m 92.999573,161.62135 c 0,0 -0.6303,-7.81579 -5.60971,-9.26549 -4.97942,-1.44971 -7.81579,4.34911 -7.81579,4.34911 0,0 -9.8958,3.65577 -12.9843,7.87881 -3.0885,4.22305 -2.83637,7.94186 -2.83637,7.94186 0,0 8.88731,-3.84487 10.65216,-1.76486 1.76486,2.08001 -5.29457,2.20607 -7.68972,1.89092 -2.39517,-0.31516 -8.13095,1.26061 -9.8958,7.75276 -1.76486,6.49215 -0.44122,7.37457 -0.44122,7.37457 0,0 3.15153,-1.76485 4.47517,-2.2691 1.32364,-0.50424 2.52122,-2.45819 4.41214,-5.23154 1.89092,-2.77334 6.74427,-1.76485 4.09699,0.69334 -2.64728,2.45819 -9.64368,4.60123 -10.65217,5.04245 -1.00848,0.44121 -5.1685,3.7188 -5.23153,6.17699 -0.063,2.45819 5.42062,9.95883 5.04244,12.85824 -0.37818,2.8994 -0.37818,4.09698 -0.37818,4.09698 0,0 5.9879,-3.78183 8.44609,-5.23153 2.4582,-1.44971 5.60972,-3.65578 5.98791,-8.25701 0.37818,-4.60123 1.26061,-6.36609 3.02546,-8.13094 0,0 -0.12606,7.56367 -0.75636,9.8958 -0.63031,2.33213 -4.28608,6.36609 -4.28608,6.36609 0,0 11.3455,-2.08001 13.42551,-6.93337 2.08001,-4.85335 -0.18909,-17.96371 -0.18909,-17.96371 0,0 3.46668,3.15153 4.5382,11.03035 1.07151,7.87882 -0.63031,12.03884 -0.63031,12.03884 0,0 10.02185,-5.98791 11.03034,-9.64368 1.00849,-3.65577 -2.08001,-11.91277 -4.60123,-15.37945 -2.52122,-3.46669 -2.14304,-4.28608 -0.063,-3.27759 2.08001,1.00848 6.176997,8.82427 4.22305,13.23642 0,0 0.75637,4.91638 0.18909,6.11396 0,0 5.231537,-6.36609 6.996387,-10.14792 0,0 4.34911,-5.60972 4.28608,-7.6267 -0.063,-2.01698 -4.91638,-5.92487 -8.82428,-6.61821 -3.907887,-0.69333 -6.933357,-0.50424 -6.933357,-0.50424 0,0 7.626697,-3.78184 9.769737,1.4497 0,0 6.49215,4.34911 5.79881,6.55518 0,0 3.7188,-10.65217 -1.32364,-15.06431 -5.04245,-4.41213 -12.227927,-4.72729 -15.253397,0.56728 z"
       id="path5829" />
    <path
       style="fill:#258295;fill-opacity:1;stroke-width:1.05833;stroke-linecap:round;stroke-linejoin:round"
       d="m 80.960223,151.12978 c 0,0 8.11162,-3.03072 11.98915,-3.92211 3.87753,-0.89138 4.32322,0.80225 3.9221,1.69364 -0.40112,0.89139 -2.94158,2.7633 -4.5015,2.89701 0,0 -0.75768,-0.75768 -2.13933,-0.71311 0,0 2.62959,0.75768 1.64906,3.4764 -0.98052,2.71874 -2.94157,4.01125 -8.95843,3.29814 0,0 -1.7382,-1.78278 -2.54045,-1.96106 0,0 0.66854,-1.02509 -1.82734,-1.69363 -2.49589,-0.66854 -3.92211,0.17828 -3.92211,0.17828 0,0 8.73559,1.29251 8.37904,4.23409 -0.35655,2.94157 -5.61574,8.46817 -13.45994,9.89439 0,0 1.64907,-3.96667 -0.26742,-6.106 -1.91648,-2.13933 -3.16442,-2.62959 -4.23408,-1.47079 0,0 5.43746,3.65469 4.41236,8.51274 -1.02509,4.85806 -7.79963,10.65208 -15.109,11.36518 0,0 1.11423,-2.80786 0.89138,-5.21461 -0.22284,-2.40674 1.51536,-6.28427 0.13371,-7.2648 -1.38165,-0.98053 -1.91648,2.98614 -2.1839,5.34832 -0.26741,2.36217 -1.69363,7.75507 -6.28427,10.83035 -4.59064,3.07528 -8.73559,1.78277 -10.74121,4.14495 0,0 0.84681,-1.42622 3.29813,-3.61012 2.45131,-2.1839 3.56554,-5.83858 3.56554,-5.83858 0,0 -2.71872,1.38165 -4.81348,5.03633 -2.09476,3.65469 -2.71873,4.72435 -6.37342,6.41799 -3.65468,1.69363 -4.67978,4.05581 -7.97791,4.63521 0,0 1.60449,-2.85244 -0.53483,-6.15057 -2.13933,-3.29813 -3.74383,-5.34832 -0.98053,-8.51274 2.7633,-3.16442 7.39851,-5.12548 17.60489,-6.72997 0,0 -4.67978,-1.29251 -8.24533,-0.17828 -3.56554,1.11423 -12.52398,4.90263 -12.70226,5.03634 0,0 -0.66854,-6.50713 0.53484,-8.8693 1.20337,-2.36218 3.83296,-4.01124 11.27604,-5.17005 7.44308,-1.1588 17.73859,-0.22284 17.78316,-0.71311 0.0446,-0.49026 -2.897,-0.75767 -4.72435,-1.29251 -1.82734,-0.53483 -4.18951,-1.1588 -9.58241,1.69364 0,0 -7.48764,0.75768 -12.74683,3.25356 0,0 2.27304,-7.39851 8.91387,-11.32061 0,0 4.27866,-2.13933 10.6075,-1.38165 0,0 2.36218,0.13371 3.65469,-0.53483 1.29251,-0.66854 10.91949,2.80787 12.25657,2.67416 1.33708,-0.13371 1.06966,-0.71311 -2.13933,-1.82735 -3.20899,-1.11423 -4.01124,-2.18389 -8.82473,-1.55992 -4.81349,0.62397 -6.64083,0.66854 -5.61574,1.29251 1.0251,0.62397 -9.93896,1.33708 -9.93896,1.33708 0,0 1.69364,-3.16442 4.10038,-4.05581 2.40674,-0.89139 3.29813,-3.03072 6.50712,-4.14495 3.209,-1.11423 9.84983,-2.58502 13.63822,-0.35655 3.78839,2.22846 7.57679,4.01124 7.13109,3.16442 -0.44569,-0.84682 -5.03633,-2.71873 -7.44307,-2.94158 -2.40675,-0.22284 -11.09777,-0.5794 -11.09777,-0.5794 0,0 0.66854,-1.96105 5.57117,-2.45131 4.90262,-0.49026 8.51274,-1.47079 10.07267,-1.78278 1.55992,-0.31198 4.76892,0.84682 6.41798,3.16443 1.64907,2.3176 2.98615,3.65468 2.94158,2.40674 -0.0446,-1.24794 -5.34832,-4.01124 -5.34832,-4.01124 0,0 1.42622,0.0891 4.90262,-0.26741 3.47641,-0.35656 9.18129,-0.66855 11.58803,0.31198 2.40675,0.98053 3.29813,4.01124 1.51536,6.32885 z"
       id="path5831" />
    <path
       style="fill:#258295;fill-opacity:1;stroke-width:1.05833;stroke-linecap:round;stroke-linejoin:round"
       d="m 123.92506,176.48973 c 0,0 -7.26481,0.35655 -6.86368,1.24794 0.40112,0.89139 3.43184,3.07528 7.75506,4.45693 4.32323,1.38165 6.77454,1.29252 6.72997,1.0251 -0.0446,-0.26742 -3.16442,-5.92772 1.38165,-7.97791 0,0 -2.98614,5.52659 3.03072,7.35394 6.01686,1.82734 11.1869,-1.55993 15.37642,-0.5794 0,0 -8.69102,-5.57117 -10.07267,-7.66593 -1.38165,-2.09476 2.13933,-1.47079 3.87753,-0.31198 1.7382,1.1588 4.41236,4.27865 10.69664,5.0809 6.28428,0.80225 13.32623,-0.5794 13.63822,-0.66854 0.31198,-0.0891 -7.75507,-2.58502 -10.11724,-4.10038 -2.36218,-1.51536 -6.77454,-2.98615 -6.77454,-2.98615 0,0 6.41798,-0.0891 11.63259,1.96106 5.21462,2.05019 11.98916,6.59626 20.23448,3.52097 0,0 -12.3457,-3.43184 -16.08953,-5.70487 0,0 7.84421,0.80225 12.70227,1.64906 4.85805,0.84682 7.79963,3.52098 9.35955,2.80787 1.55993,-0.71311 2.67417,-1.1588 4.41237,-0.5794 0,0 -6.01686,-2.62959 -7.97791,-5.5266 -1.96105,-2.897 -12.43485,-1.82734 -12.43485,-1.82734 0,0 6.37342,-1.96105 9.18129,-0.93595 0,0 -4.63521,-1.29252 -6.6854,-2.6296 -2.05019,-1.33708 -4.45694,-3.69925 -7.26481,-3.69925 -2.80786,0 -11.09776,6.19514 -11.09776,5.97229 0,-0.22285 4.81349,-6.37342 11.32061,-7.22023 0,0 -6.86368,0.1337 -8.60188,0.17827 -1.73821,0.0446 -5.70488,-1.87191 -8.37904,-1.69363 -2.67416,0.17828 -3.29813,1.24794 -4.41236,4.18952 -1.11423,2.94157 -2.80787,6.55169 -2.62959,2.98614 0.17828,-3.56554 1.51536,-8.78016 4.36779,-10.1618 2.85244,-1.38166 3.25356,-1.15881 3.25356,-1.15881 0,0 -5.57116,0.49026 -9.13671,1.33708 -3.56554,0.84682 -7.22023,-2.49588 -7.88877,0.0891 -0.66854,2.58502 0.17828,11.85544 -1.47079,12.12286 -1.64907,0.26742 -2.3176,-9.22585 1.47079,-9.71612 0,0 -0.53483,-3.20899 0.66854,-4.41236 0,0 -2.49588,0.22285 -4.59064,1.82734 -2.09476,1.6045 -6.95282,3.03072 -8.11162,3.47641 -1.1588,0.44569 -2.09476,1.91648 -0.93596,3.20899 1.1588,1.29251 3.07529,4.18952 3.07529,4.18952 0,0 -5.5266,-1.55993 -3.43184,-6.19514 0,0 -3.65469,3.03072 -5.74945,4.32323 -2.09476,1.29251 -3.16442,5.57117 -3.38727,6.64083 -0.22284,1.06966 -1.11423,3.56555 -0.22284,4.67978 0.89138,1.11423 9.80525,1.42622 10.16181,1.42622 z"
       id="path5833" />
    <path
       style="fill:#258295;fill-opacity:1;stroke-width:1.05833;stroke-linecap:round;stroke-linejoin:round"
       d="m 119.09423,60.70942 c 0,0 -5.04245,0.693338 -10.77823,-2.143037 -5.73578,-2.836376 -7.50064,-3.214561 -6.42912,-7.122454 1.07152,-3.907895 3.78183,-4.223049 3.78183,-4.223049 0,0 5.10548,3.781835 9.51762,2.395162 0,0 -7.12245,-1.827884 -8.95034,-3.025465 -1.82789,-1.197581 2.2691,-2.773347 3.59274,-4.601231 1.32364,-1.827888 3.59274,-3.214561 3.59274,-3.214561 0,0 4.16002,6.618211 6.49215,8.257006 2.33213,1.638794 4.5382,2.521222 4.22305,1.449702 -0.31515,-1.07152 -4.72729,-6.366087 -8.57216,-6.429118 0,0 -2.77334,-2.521223 -1.89091,-2.584252 0.88242,-0.06303 3.27759,0.756367 5.9879,-0.126061 2.71032,-0.882427 5.3576,-2.647285 5.54669,-1.512734 0.18909,1.13455 2.2691,4.790321 4.28608,6.240026 2.01698,1.449703 5.42063,8.257003 5.42063,6.87033 0,-1.386671 -4.03396,-9.076399 -5.60972,-10.715194 -1.57577,-1.638795 -4.16002,-2.521222 -2.08001,-2.710315 2.08001,-0.189092 5.9879,2.395162 9.01337,0.882428 3.02546,-1.512734 5.92487,-2.710315 5.3576,-0.882428 -0.56728,1.827887 -1.07152,9.454584 0.12606,7.311546 1.19758,-2.14304 0.12606,-7.75276 2.08,-8.193973 1.95395,-0.441214 3.71881,2.395161 7.24852,2.395161 3.52971,0 7.87882,0.252122 4.60123,1.512734 -3.27759,1.26061 -4.03396,2.52122 -2.77335,2.52122 1.26062,0 5.23154,-0.504243 6.177,-0.252121 0.94546,0.252121 10.21095,-1.827885 12.92126,-2.016977 2.71032,-0.189093 5.3576,0.378182 4.41214,2.521222 -0.94545,2.143038 -0.50424,2.20607 -4.41214,2.20607 -3.90789,0 -13.04732,1.19758 -13.04732,1.19758 l 9.32852,-0.819398 c 0,0 -3.27759,2.647283 -8.57216,2.584254 -5.29456,-0.06303 -15.56854,-1.827887 -21.0522,1.134549 0,0 3.0885,0.252122 8.50912,2.14304 5.42063,1.890917 10.14793,2.332131 9.83277,2.332131 -0.31515,0 -9.8958,4.349109 -12.73217,3.781832 -2.83638,-0.567275 -10.14792,-4.475168 -12.03884,-4.223046 -1.89092,0.252121 -1.89092,1.323641 -1.89092,1.323641 0,0 1.57577,1.953948 4.91639,2.395162 3.34062,0.441214 6.8073,1.323642 3.15153,2.080009 -3.65578,0.756367 -11.59763,3.025465 -19.28735,1.260609 z"
       id="path5835" />
    <path
       id="path66395"
       style="fill:#006f6f;fill-opacity:1;stroke-width:1.05833;stroke-linecap:round;stroke-linejoin:round"
       d="m 95.010564,214.80342 c 0.239237,2.90836 1.077463,14.32367 1.077463,14.32367 -0.06302,1.38667 2.458426,1.95368 3.214796,1.07125 0.59039,-0.6888 -0.009,-10.03368 -0.42064,-14.56138 -1.35173,-0.24561 -2.646465,-0.52886 -3.871619,-0.83354 z" />
    <path
       id="path66400"
       style="fill:#006f6f;fill-opacity:1;stroke-width:1.05833;stroke-linecap:round;stroke-linejoin:round"
       d="m 102.26956,216.1501 c -0.45542,5.10949 -0.95406,10.54367 -0.85214,11.4608 0.17828,1.60449 2.85253,0.53485 2.85253,0.53485 0,0 0.59261,-5.153 1.22113,-11.71143 -1.09276,-0.0608 -2.16834,-0.15838 -3.22152,-0.28422 z" />
    <path
       id="path66405"
       style="fill:#004747;fill-opacity:1;stroke-width:1.05833;stroke-linecap:round;stroke-linejoin:round"
       d="m 103.85689,216.31545 c -0.79121,5.0588 -2.03237,13.17927 -1.45883,13.88029 0.80227,0.98053 1.78258,-0.26738 1.69344,1.0697 0,0 2.4066,1.96084 2.94142,0.0889 0.41096,-1.43836 0.87503,-9.07883 1.51257,-14.84974 -1.59101,0.017 -3.15952,-0.0535 -4.6886,-0.18914 z" />
    <path
       style="fill:#321600;fill-opacity:1;stroke-width:1.05833;stroke-linecap:round;stroke-linejoin:round"
       d="m 95.221073,229.14999 c 0,0 0.48792,-1.02317 1.40277,0.13467 0.91482,1.15784 1.0931,2.27207 0.0235,1.96008 -1.06965,-0.31198 -1.42621,-2.09475 -1.42621,-2.09475 z"
       id="path84071" />
    <path
       style="fill:#321600;fill-opacity:1;stroke-width:1.05833;stroke-linecap:round;stroke-linejoin:round"
       d="m 100.62773,228.77181 c 0,0 -0.48792,-1.02317 -1.402767,0.13467 -0.91482,1.15784 -1.0931,2.27207 -0.0235,1.96008 1.069647,-0.31198 1.426207,-2.09475 1.426207,-2.09475 z"
       id="path84972" />
    <path
       style="fill:#321600;fill-opacity:1;stroke-width:1.05833;stroke-linecap:round;stroke-linejoin:round"
       d="m 104.66023,231.52224 c 0,0 6.55519,-1.32364 5.04243,-0.12606 -1.51273,1.19758 -5.92487,2.08001 -5.67274,1.19758 0.25212,-0.88243 0.63031,-1.07152 0.63031,-1.07152 z"
       id="path85007" />
    <path
       style="fill:#321600;fill-opacity:1;stroke-width:1.05833;stroke-linecap:round;stroke-linejoin:round"
       d="m 101.13051,226.98404 c 0,0 -2.269097,0.12606 -0.37817,1.13455 1.89092,1.00849 2.77333,0.44121 2.26909,-0.12606 -0.50424,-0.56728 -1.89092,-1.00849 -1.89092,-1.00849 z"
       id="path85009" />
    <path
       style="fill:#321600;fill-opacity:1;stroke-width:1.05833;stroke-linecap:round;stroke-linejoin:round"
       d="m 111.34146,228.24465 c 0.75637,0.37819 1.07154,2.20607 -0.50424,2.2691 -1.57575,0.063 -2.07999,-0.063 -1.76485,-0.88243 0.31515,-0.81939 2.26909,-1.38667 2.26909,-1.38667 z"
       id="path85011" />
    <path
       style="fill:#321600;fill-opacity:1;stroke-width:1.05833;stroke-linecap:round;stroke-linejoin:round"
       d="m 103.5887,227.67738 c 0.94546,0.50424 1.19758,2.83637 -0.81939,2.14304 -2.01697,-0.69334 -0.69334,-1.6388 0,-1.95395 0.69334,-0.31515 0.81939,-0.18909 0.81939,-0.18909 z"
       id="path85013" />
    <path
       id="path131694"
       style="opacity:1;fill:#bf2727;fill-opacity:1;stroke-width:3.99999;stroke-linecap:round;stroke-linejoin:round"
       d="m 472.25195,903.7207 c -48.0325,103.2829 -142.17187,103.0938 -142.17187,103.0938 0,0 13.47631,20.8876 60.64258,20.5507 47.16631,-0.3367 60.00898,-14.0528 65.73632,-18.7695 z"
       transform="scale(0.26458333)" />
  </g>
</svg>
