<?xml version="1.0" encoding="UTF-8" standalone="no"?>
<!-- Creator: CorelDRAW X7 -->

<svg
   xml:space="preserve"
   width="399.96161"
   height="600.00006"
   version="1.0"
   style="clip-rule:evenodd;fill-rule:evenodd;image-rendering:optimizeQuality;shape-rendering:geometricPrecision;text-rendering:geometricPrecision"
   viewBox="0 0 399.96161 600.00006"
   id="svg76"
   sodipodi:docname="sign-post-5655110.svg"
   inkscape:version="1.3.2 (091e20e, 2023-11-25, custom)"
   xmlns:inkscape="http://www.inkscape.org/namespaces/inkscape"
   xmlns:sodipodi="http://sodipodi.sourceforge.net/DTD/sodipodi-0.dtd"
   xmlns="http://www.w3.org/2000/svg"
   xmlns:svg="http://www.w3.org/2000/svg"><sodipodi:namedview
   id="namedview76"
   pagecolor="#ffffff"
   bordercolor="#000000"
   borderopacity="0.25"
   inkscape:showpageshadow="2"
   inkscape:pageopacity="0.0"
   inkscape:pagecheckerboard="0"
   inkscape:deskcolor="#d1d1d1"
   inkscape:document-units="in"
   inkscape:zoom="0.69219357"
   inkscape:cx="73.678812"
   inkscape:cy="295.43759"
   inkscape:window-width="1920"
   inkscape:window-height="991"
   inkscape:window-x="-9"
   inkscape:window-y="-9"
   inkscape:window-maximized="1"
   inkscape:current-layer="Layer_x0020_1" />
 <defs
   id="defs1">
  <style
   type="text/css"
   id="style1">
   <![CDATA[
    .fil1 {fill:#1A2229}
    .fil41 {fill:#291919}
    .fil17 {fill:#2A2D36}
    .fil46 {fill:#323D44}
    .fil48 {fill:#334146}
    .fil6 {fill:#35434A}
    .fil38 {fill:#36352B}
    .fil16 {fill:#363938}
    .fil7 {fill:#36454C}
    .fil51 {fill:#39464E}
    .fil21 {fill:#3A444B}
    .fil53 {fill:#424D55}
    .fil43 {fill:#464748}
    .fil54 {fill:#4A3533}
    .fil47 {fill:#4C443B}
    .fil42 {fill:#543A43}
    .fil36 {fill:#54636A}
    .fil13 {fill:#56666D}
    .fil34 {fill:#5B656B}
    .fil44 {fill:#6E5D63}
    .fil49 {fill:#737C83}
    .fil29 {fill:#76595B}
    .fil31 {fill:#776667}
    .fil45 {fill:#7C8489}
    .fil12 {fill:#7E6161}
    .fil27 {fill:#7E6163}
    .fil52 {fill:#838993}
    .fil35 {fill:#848485}
    .fil8 {fill:#848A8C}
    .fil24 {fill:#865B59}
    .fil5 {fill:#868A8D}
    .fil39 {fill:#89847C}
    .fil2 {fill:#8A8B8D}
    .fil25 {fill:#8D625B}
    .fil55 {fill:#96877D}
    .fil19 {fill:#989388}
    .fil18 {fill:#9B948A}
    .fil50 {fill:#A5968A}
    .fil32 {fill:#A95C51}
    .fil20 {fill:#B7ACA5}
    .fil15 {fill:#B97365}
    .fil33 {fill:#BC5D6B}
    .fil11 {fill:#BD616C}
    .fil22 {fill:#C57A7E}
    .fil10 {fill:#D48C84}
    .fil40 {fill:#DA9789}
    .fil3 {fill:#E3968B}
    .fil56 {fill:#E59B8B}
    .fil23 {fill:#E59B8B}
    .fil9 {fill:#E98979}
    .fil4 {fill:#EBCCB4}
    .fil37 {fill:#ECDED2}
    .fil26 {fill:#EDDCCC}
    .fil28 {fill:#F2DECA}
    .fil30 {fill:#F4DACB}
    .fil0 {fill:#F4DDCB}
    .fil14 {fill:#FAD5C7}
   ]]>
  </style>
 </defs>
 <g
   id="Layer_x0020_1"
   inkscape:label="Layer 1"
   inkscape:groupmode="layer"
   transform="translate(-662.00047,-638.00046)">
  <metadata
   id="CorelCorpID_0Corel-Layer" />
  <g
   id="_2405174880768"
   transform="matrix(0.05759816,0,0,0.05759816,623.87049,601.25283)">
   <path
   class="fil0"
   d="M 662,638 H 7606 V 11055 H 662 Z"
   id="path1" />
   <path
   class="fil1"
   d="m 2774,7177 c 49,4 108,14 140,29 -9,69 -7,51 -55,80 -33,-67 -56,-33 -85,-109 z M 2576,5769 c -96,69 98,57 -54,178 l 3,50 51,17 -29,69 c 0,0 -26,22 -27,22 l -60,50 -19,42 c 71,13 36,17 114,2 19,-34 23,-43 63,-57 -5,22 -2,24 -15,46 -28,48 -8,14 -31,33 -45,72 -54,58 -119,83 l 12,54 c 47,2 73,-7 107,-17 -11,46 1,17 -17,49 -24,46 -53,45 -112,67 -6,15 -12,65 -36,81 l -2,39 c 80,3 105,-41 167,-42 -40,14 -64,65 -91,89 -53,49 -88,32 -87,126 64,-1 75,-19 130,-31 -26,84 -48,28 -109,146 -18,33 2,3 -22,32 -21,27 -35,25 -37,70 69,10 92,-8 153,-21 -28,50 -37,55 -91,89 -34,23 -59,27 -53,79 94,26 105,-10 181,-15 -42,129 -150,165 -214,194 -112,53 -44,112 64,94 91,-14 68,-33 116,4 -41,19 -101,48 -128,83 110,7 246,-15 352,-4 l 96,6 -49,-60 c 109,-12 136,-3 176,-83 -40,-26 -19,-7 -48,-38 l 123,-20 c -35,101 -88,133 -164,173 l 24,28 368,1 -31,-57 c 62,-8 84,27 188,18 -19,-117 -104,-70 -154,-182 71,18 83,51 153,28 4,-12 8,-5 1,-29 -13,-41 -20,-17 -46,-66 -77,-146 -69,-58 -116,-153 66,10 70,37 137,28 -2,-93 -39,-56 -120,-164 -11,-15 -13,-20 -24,-30 -25,-25 -2,-10 -23,-17 52,3 97,41 130,34 35,-7 5,9 32,-13 -22,-34 -32,-43 -34,-104 -66,-2 -136,-67 -152,-132 84,35 55,61 140,27 -25,-44 -52,-61 -94,-87 -19,-12 -70,-24 -57,-93 l 11,-27 c 78,43 30,76 123,65 4,-72 -29,-76 -74,-120 l -25,-70 c 30,-17 37,-14 56,-42 l -35,-67 c -87,-96 24,-31 -5,-114 -13,-37 -38,-68 -39,-97 -3,-67 27,-5 5,-88 -9,-37 -50,-143 -74,-159 -7,21 -32,109 -33,121 -4,36 12,2 -8,60 -55,162 41,28 -21,142 -28,51 -44,37 -52,108 l 74,-5 c -14,58 -46,95 -85,109 l 1,18 c 22,30 5,13 46,34 3,1 8,3 10,4 2,1 7,2 10,3 -29,68 -129,71 -67,122 38,32 33,3 51,45 -2,3 -7,4 -8,9 l -65,54 c -44,32 -47,14 -43,71 80,18 76,2 142,-16 -18,116 -149,120 -172,198 72,37 98,22 166,-12 -8,52 -32,84 -77,122 -43,36 -81,39 -92,102 58,26 99,-10 149,-25 -13,46 -65,97 -122,130 -53,-20 -166,-109 -188,-196 43,10 110,34 132,10 31,-35 7,20 -8,-75 -1,-3 -1,-8 -2,-10 -8,-56 -99,-49 -145,-161 l 133,30 c 20,-60 15,-32 -18,-62 l -60,-59 c -1,-3 -4,-10 -4,-8 l -14,-26 c -29,-48 -40,-35 -57,-86 44,23 18,29 71,37 59,-41 22,-18 96,-19 -16,-30 -61,-56 -70,-64 -16,-31 -14,-21 -44,-37 -3,-3 -6,-7 -8,-9 l -28,-42 c -10,-19 -15,-30 -26,-52 l 88,24 c 50,9 72,0 60,-52 -51,-23 -82,-46 -99,-96 l -18,-28 82,-14 c -10,-66 -52,-63 -94,-107 l 39,-21 c 26,-15 13,3 34,-24 -19,-36 3,0 -25,-35 -29,-37 -37,-37 -57,-90 25,-10 40,-4 73,-28 -28,-53 -42,-64 -65,-123 -12,-43 -32,-43 -55,-71 l -18,26 c -47,86 13,84 -68,77 z"
   id="path2" />
   <path
   class="fil2"
   d="m 4069,5772 c 48,36 83,42 106,102 -27,-6 -121,-32 -152,-53 -22,-14 -39,-39 -55,-59 -26,-35 -21,-17 -27,-64 60,11 84,41 128,74 z m -879,-362 c 83,12 60,-21 124,-34 66,-14 44,10 44,10 l 46,16 c 2,4 5,9 6,13 13,27 28,58 16,87 65,36 116,88 171,146 156,165 96,85 153,139 16,15 114,172 118,185 17,45 11,85 25,131 15,47 30,45 48,82 -114,-33 -116,-186 -245,-215 l 32,97 c -65,-7 -114,-57 -158,-92 -9,36 1,5 24,64 -95,69 -77,13 -40,28 45,18 6,-23 38,29 -29,121 -26,-25 -41,81 -106,-7 -171,26 -268,-19 -2,-1 -6,-2 -8,-3 -44,-27 -21,0 -32,-45 29,83 -82,18 5,114 26,-21 149,-11 207,-11 73,1 183,2 255,8 40,-20 582,-23 688,-16 51,15 208,9 218,27 6,36 -17,50 -45,54 -16,2 -35,0 -59,0 -41,1 -90,2 -128,1 -81,-1 -154,10 -236,7 -85,-3 -155,-15 -236,-17 -59,-1 -163,22 -205,-3 -66,6 -171,-10 -218,25 l 18,6 c 47,18 61,12 126,11 55,-1 97,9 139,17 -31,70 54,-32 -13,16 l -80,29 c -25,6 -96,20 -111,26 31,33 10,10 70,20 220,35 291,-13 313,-13 -23,-14 -15,-7 -43,-17 l -31,-12 c -3,-1 -7,-3 -10,-4 l -78,-26 c -4,-2 -9,-3 -13,-6 22,-27 56,-32 100,-30 2,0 6,1 8,1 l 709,21 c 84,4 58,-3 124,-33 60,7 48,20 98,20 51,1 104,-37 247,-22 l 384,29 188,-53 c -189,7 -326,-24 -514,-16 -91,4 -173,-4 -264,2 -81,6 -160,21 -243,21 l 3,-54 1160,-5 182,-130 c -66,5 -56,-1 -105,-39 -23,-18 -44,-33 -79,-46 -76,-25 -142,2 -202,32 -72,13 -166,-34 -227,-75 -154,-103 -49,-42 -212,-95 -230,-76 -288,-286 -407,-163 74,-1 65,-21 102,44 39,58 231,189 300,224 59,30 57,25 90,76 -88,42 -189,18 -276,4 58,54 122,43 144,66 39,41 17,56 16,69 l -214,-10 c -1,2 -7,14 -8,11 -2,-3 -7,8 -10,12 l -286,-27 c 8,-52 -12,9 16,-23 21,-23 32,-11 32,-61 l -26,55 -28,-14 c -3,-1 -6,-2 -8,-3 l -48,-18 c -2,-6 -9,-3 -13,-6 7,-127 54,-78 65,-138 -36,-4 -43,-7 -76,-3 0,0 -46,10 -53,12 12,-58 6,-36 66,-79 l 41,-32 54,39 c 90,-84 -12,-25 28,-144 48,-1 52,42 83,41 l 14,-103 c -119,31 -136,2 -251,58 -60,29 -135,75 -196,84 -78,-87 -153,-96 -242,-174 l -105,-42 -206,49 c -72,-74 -330,-301 -366,-379 -49,9 -80,19 -111,43 -7,5 -34,29 -37,32 -30,32 -10,6 -27,36 z"
   id="path3" />
   <path
   class="fil3"
   d="m 5115,2991 c -109,105 -308,18 -474,85 -63,25 -101,5 -132,62 49,27 117,9 180,6 l 413,4 c 69,30 263,-5 377,18 -37,28 -131,9 -179,11 l -138,15 c -34,15 -19,-1 -39,29 22,13 -2,4 39,14 l 237,20 c 49,-3 70,-15 88,15 45,-4 110,5 139,28 112,-9 165,-2 271,7 91,8 196,-4 292,-3 l 73,-26 c -24,-177 0,-194 4,-360 3,-70 -2,-115 11,-179 20,-102 -14,-60 -18,-154 l -15,43 c -162,-42 -176,49 -267,102 -172,101 -224,44 -342,120 -98,62 -146,39 -232,56 -95,19 -183,79 -288,87 z"
   id="path4" />
   <path
   class="fil4"
   d="m 4042,5671 c 89,78 164,87 242,174 61,-9 136,-55 196,-84 115,-56 132,-27 251,-58 l -5,8 c 119,-123 177,87 407,163 163,53 58,-8 212,95 61,41 155,88 227,75 1,-87 19,-150 0,-245 l -502,-41 c 73,-40 171,-17 232,-58 75,7 57,-8 105,-38 33,-21 8,-5 36,-16 33,-13 119,-11 -9,-183 -58,-78 -117,-157 -192,-212 -319,-232 -688,-240 -1021,-19 -154,102 -265,251 -284,397 z"
   id="path5" />
   <path
   class="fil5"
   d="m 3190,5410 c -17,7 -3,-2 -30,18 -107,82 -152,214 -314,255 -58,15 -78,44 -129,54 23,59 37,70 65,123 -33,24 -48,18 -73,28 20,53 28,53 57,90 28,35 6,-1 25,35 -21,27 -8,9 -34,24 l -39,21 c 42,44 84,41 94,107 l -82,14 18,28 273,-10 c 8,-71 24,-57 52,-108 62,-114 -34,20 21,-142 20,-58 4,-24 8,-60 1,-12 26,-100 33,-121 24,16 65,122 74,159 22,83 -8,21 -5,88 1,29 26,60 39,97 11,45 -12,18 32,45 2,1 6,2 8,3 97,45 162,12 268,19 15,-106 12,40 41,-81 -32,-52 7,-11 -38,-29 -37,-15 -55,41 40,-28 -23,-59 -33,-28 -24,-64 -114,-68 -110,-121 -144,-199 -12,-28 -5,-14 -18,-35 -9,-17 -14,-21 -21,-33 2,-3 7,-4 9,-5 l 57,-20 c 2,-3 7,-1 9,-3 -51,-28 -48,-61 -87,-116 -54,-75 -28,-74 -40,-164 40,9 76,52 91,102 12,-29 -3,-60 -16,-87 -1,-4 -4,-9 -6,-13 l -46,-16 c 0,0 22,-24 -44,-10 -64,13 -41,46 -124,34 z"
   id="path6" />
   <path
   class="fil6"
   d="m 2407,6538 -37,29 c -18,-27 -30,-51 -42,-72 89,12 55,8 79,43 z m -288,-185 c -4,161 -7,74 -21,138 l 31,413 c 10,73 -33,449 15,567 87,27 524,30 592,-1 -106,-11 -242,11 -352,4 27,-35 87,-64 128,-83 -48,-37 -25,-18 -116,-4 -108,18 -176,-41 -64,-94 64,-29 172,-65 214,-194 -76,5 -87,41 -181,15 -6,-52 19,-56 53,-79 54,-34 63,-39 91,-89 -61,13 -84,31 -153,21 2,-45 16,-43 37,-70 24,-29 4,1 22,-32 61,-118 83,-62 109,-146 -55,12 -66,30 -130,31 -1,-94 34,-77 87,-126 27,-24 51,-75 91,-89 -62,1 -87,45 -167,42 l 2,-39 c 24,-16 30,-66 36,-81 59,-22 88,-21 112,-67 18,-32 6,-3 17,-49 -34,10 -60,19 -107,17 l -12,-54 -22,-1 c -26,88 -23,6 -51,85 l 32,17 c 3,1 8,2 10,2 4,2 20,3 25,4 -27,33 -28,36 -79,47 l -63,-72 c 43,-47 34,6 33,-60 -145,-49 -187,14 -219,27 z"
   id="path7" />
   <path
   class="fil7"
   d="m 6016,7391 c 38,-15 43,-24 73,-48 l 346,-329 c -4,-11 -14,-27 -14,-36 -6,-60 -3,10 8,-32 7,-26 29,38 4,-37 -7,-20 -12,-17 -27,-26 l 19,-21 c 1,-1 5,-4 6,-6 35,-30 7,-2 6,0 -13,-54 -26,-49 -35,-83 -3,-10 -10,-92 -10,-112 -2,-4 -7,-14 -11,-19 -16,-18 -9,-7 -20,-12 -91,67 -3,115 -84,175 5,88 -15,-70 11,30 11,44 14,-33 4,26 -1,7 18,26 -25,16 -2,0 -82,-52 -88,-58 50,-33 24,5 56,-42 -40,-46 -26,-8 -42,-59 l -10,-76 c -3,-36 -22,-95 -56,-109 -33,56 -24,113 -42,172 -16,52 -21,31 -28,63 -15,70 9,-14 9,78 -130,-48 -16,-164 -113,-230 -11,12 -37,51 -46,72 -58,128 -31,88 -29,121 4,84 -47,-17 12,112 -51,12 -25,-8 -59,37 36,28 23,8 65,26 -80,8 -59,3 -127,-20 -3,-7 17,-6 -12,-20 l 70,-42 c -32,-35 -24,-28 -73,-35 18,-64 11,-19 41,-76 l -57,-146 c 0,0 3,-10 1,-30 -4,-38 -6,-36 -22,-61 -42,19 -49,38 -56,112 l -23,112 c -40,-6 -57,-25 -57,-39 l 7,-30 c 1,-43 0,-10 -9,-40 -27,-96 -3,-126 -56,-159 -38,26 -25,-3 -39,66 -9,41 -12,41 5,69 l -44,21 5,44 c 1,3 4,7 5,9 l 12,16 c -26,23 -28,22 -48,56 13,33 37,11 52,59 -42,17 -45,23 -77,45 10,47 15,42 38,63 -2,2 -6,5 -8,7 l -52,48 c 76,59 33,-2 50,42 -62,23 -76,16 -134,-1 62,-32 36,20 76,-41 -29,-57 -33,-34 -82,-60 l 68,-29 c -48,-82 -39,-3 -49,-105 -7,-71 8,-49 -18,-104 l -21,-23 c -22,-17 4,-6 -40,-21 -5,61 -15,136 -31,181 -59,169 28,39 -29,134 -29,-18 -2,6 -22,-20 -2,-3 -13,-24 -15,-27 l -33,-59 -59,73 c -2,3 -3,7 -4,10 -60,148 22,89 -46,163 22,57 7,-5 36,47 l -56,55 56,21 c -50,57 -64,21 -75,88 l -60,-8 c 7,-30 7,-19 17,-58 -22,-13 -42,-18 -70,-36 l 39,-14 c 16,-4 19,-1 38,-5 -16,-65 -1,-24 -23,-30 -61,-129 0,-46 1,-103 2,-42 2,-4 -77,-70 31,-15 31,0 68,-28 -21,-48 -10,-32 -53,-50 30,-116 12,-37 -18,-164 -28,-116 7,-135 -66,-142 9,62 -8,26 -24,73 -6,19 8,49 -16,113 -1,4 -2,8 -4,11 -36,77 -44,37 -48,35 -1,-3 -2,-8 -2,-10 -1,-3 -2,-8 -2,-11 l -13,-72 c -19,-57 -10,-41 -52,-53 -55,193 19,94 -58,173 5,23 7,22 12,32 2,3 14,20 16,24 -39,17 -36,15 -55,55 19,28 42,28 56,42 -38,43 -41,21 -75,69 7,21 3,30 56,41 l -70,63 c -3,-1 -47,-15 -57,-20 -10,-12 12,-9 -37,-23 13,-17 8,-11 24,-26 l -1,-58 c -32,-59 7,-187 -85,-207 -33,75 6,104 -46,150 -30,-35 -18,-64 -25,-107 -5,-30 -21,-64 -45,-77 -40,24 -54,78 -67,116 -36,108 20,39 -19,122 -7,-1 -120,-50 -135,-64 l 80,-22 c -16,-76 1,-16 -79,-68 l 56,-42 c -39,-56 -32,4 -44,-84 -8,-60 5,-68 -5,-99 -66,-33 6,-44 -63,-61 l -13,64 c -10,113 -68,213 -73,206 -1,-3 -5,8 -9,11 15,-93 16,-126 -31,-189 -45,17 -81,112 -88,157 l 6,39 c -1,56 -25,7 -12,66 7,33 9,-51 13,44 -85,-13 -51,-44 -96,-43 29,-88 31,18 59,-69 l -82,-42 c 4,-3 34,-16 56,-55 l -86,-42 c 52,-12 34,9 86,-33 l -3,-43 c -34,-15 -59,-27 -99,-31 4,-2 9,-5 12,-6 3,-2 8,-5 12,-7 l 45,-33 c -21,-47 -18,-37 -70,-46 l 55,-69 c -30,-16 -57,-21 -58,-120 0,-102 -13,-13 -30,-98 l -18,-6 -15,-7 c -17,67 -21,164 -48,209 -110,-22 -25,-83 -98,-177 -73,23 6,43 -76,79 45,44 78,48 74,120 -93,11 -45,-22 -123,-65 l -11,27 c -13,69 38,81 57,93 42,26 69,43 94,87 -85,34 -56,8 -140,-27 16,65 86,130 152,132 2,61 12,70 34,104 -27,22 3,6 -32,13 -33,7 -78,-31 -130,-34 21,7 -2,-8 23,17 11,10 13,15 24,30 81,108 118,71 120,164 -67,9 -71,-18 -137,-28 47,95 39,7 116,153 26,49 33,25 46,66 7,24 3,17 -1,29 -70,23 -82,-10 -153,-28 50,112 135,65 154,182 -104,9 -126,-26 -188,-18 l 31,57 436,9 184,-9 c 56,-22 480,-24 585,-19 l 154,-1 c 5,0 8,1 13,1 l 26,8 c 4,1 9,2 13,4 118,10 299,5 420,0 66,-2 136,-14 198,-20 70,-7 132,9 197,-8 39,22 234,13 299,13 105,0 204,18 229,-64 z"
   id="path8" />
   <path
   class="fil8"
   d="m 3643,6758 c 62,-1 141,-44 257,-50 l 13,-64 c 69,17 -3,28 63,61 147,-5 228,-246 429,-253 101,-107 282,-115 417,-76 l 70,28 c 102,-35 224,46 324,73 14,-16 6,-9 24,-23 65,-49 170,-86 206,-122 l -384,-29 c -143,-15 -196,23 -247,22 -50,0 -38,-13 -98,-20 -66,30 -40,37 -124,33 l -709,-21 c -2,0 -6,-1 -8,-1 -44,-2 -78,3 -100,30 4,3 9,4 13,6 l 78,26 c 3,1 7,3 10,4 l 31,12 c 28,10 20,3 43,17 -22,0 -93,48 -313,13 -60,-10 -39,13 -70,-20 15,-6 86,-20 111,-26 l 80,-29 c 67,-48 -18,54 13,-16 -42,-8 -84,-18 -139,-17 -65,1 -79,7 -126,-11 17,85 30,-4 30,98 1,99 28,104 58,120 l -55,69 c 52,9 49,-1 70,46 l -45,33 c -4,2 -9,5 -12,7 -3,1 -8,4 -12,6 40,4 65,16 99,31 z"
   id="path9" />
   <path
   class="fil9"
   d="m 5542,4640 c -10,-25 -11,-21 -22,-59 83,4 61,20 120,39 59,19 68,1 113,-4 1,73 -26,65 -77,93 -38,22 -58,52 -105,20 6,-31 66,-62 -29,-89 z m 900,-90 88,-77 56,-54 -326,-323 c -53,-55 -300,-277 -352,-287 -61,-12 -244,-7 -316,-6 -126,2 -186,-11 -293,-23 -201,-23 -433,3 -620,-17 -47,37 -167,37 -216,-1 -276,0 -517,-41 -783,-40 l -20,-1 -95,-5 c 12,65 5,38 80,51 101,56 71,76 97,96 86,38 103,11 156,102 172,-9 45,-66 250,30 105,55 -34,-46 154,74 l 102,49 c 74,46 170,132 290,106 l 383,53 c -8,30 -19,44 -95,46 -189,6 -30,-57 -356,27 -155,40 -293,0 -408,10 l -115,28 c 85,38 140,7 221,23 -16,58 -51,69 -120,65 -69,-3 -114,-2 -181,-3 -148,-1 -190,-50 -341,7 -111,28 -257,-19 -320,-4 -40,10 -22,15 -70,30 -67,21 -175,13 -244,8 -133,-23 -160,-48 -305,-26 -96,16 -233,-53 -307,-17 35,26 52,25 114,29 120,9 281,3 312,69 l -58,22 c -17,3 -36,5 -57,9 -170,37 -276,14 -322,56 -169,28 -160,5 -315,-4 l -49,4 -1,34 21,73 c 2,36 -3,48 4,90 292,23 1021,27 1200,51 101,14 290,26 395,18 132,9 247,-11 383,-1 127,9 269,9 404,13 l 166,25 1,-1 c 179,9 384,21 558,4 142,-13 379,18 539,24 131,5 152,25 232,-46 63,-56 103,-73 163,-129 87,-81 213,-206 316,-261 z"
   id="path10" />
   <path
   class="fil10"
   d="m 2398,2990 c -36,12 -78,27 -108,42 -30,16 -56,44 -87,64 20,16 -49,41 41,5 121,5 160,18 202,126 26,65 -11,17 61,62 79,49 -2,82 151,23 258,26 294,-44 323,50 -1,2 -4,4 -5,8 l -22,22 c -1,2 -6,5 -9,7 l 1,65 c 58,5 97,25 124,29 46,6 48,-30 133,-24 141,9 152,122 167,151 58,0 69,-8 118,12 -52,0 -83,10 -132,10 -53,1 -87,-8 -143,-4 67,31 352,14 454,12 -19,-49 7,-12 -42,-45 -1,-1 -22,-13 -25,-15 -22,-16 -13,-3 -30,-27 l -14,-50 c -42,-23 -13,-17 -67,-39 -28,-11 -45,-10 -67,-28 -35,-29 -28,-72 -86,-121 -122,-103 -193,-62 -352,-34 l 11,-40 c -124,-52 -42,-95 -250,-84 -17,-25 -31,-53 -57,-85 -75,-95 -171,-109 -290,-92 z"
   id="path11" />
   <path
   class="fil11"
   d="m 1776,3013 c -33,7 -13,-7 -23,33 l 333,278 c 134,142 94,109 237,222 40,31 62,35 58,88 28,-33 28,-78 60,-119 40,-50 118,-50 119,-55 1,-5 -78,-13 -63,-55 62,-23 46,14 116,8 17,-46 22,-66 45,-101 -153,59 -72,26 -151,-23 -72,-45 -35,3 -61,-62 -42,-108 -81,-121 -202,-126 l -41,28 c -35,-51 -6,-56 -68,-102 -82,-61 -169,-52 -255,-18 -57,23 -35,2 -104,4 z"
   id="path12" />
   <path
   class="fil12"
   d="m 3787,2135 c -90,15 -97,28 -94,126 2,49 8,154 18,199 v 5 c 102,3 950,-4 959,-10 l 14,-283 c -153,-30 -244,-66 -427,-82 l -70,183 c -41,99 -49,54 -67,171 -26,0 -239,-34 -266,-55 -47,-37 -80,-170 -67,-254 z"
   id="path13" />
   <path
   class="fil13"
   d="m 3976,6705 c 10,31 -3,39 5,99 12,88 5,28 44,84 l -56,42 c 80,52 63,-8 79,68 l -80,22 c 15,14 128,63 135,64 39,-83 -17,-14 19,-122 13,-38 27,-92 67,-116 24,13 40,47 45,77 7,43 -5,72 25,107 52,-46 13,-75 46,-150 92,20 53,148 85,207 l 1,58 c -16,15 -11,9 -24,26 49,14 27,11 37,23 10,5 54,19 57,20 l 70,-63 c -53,-11 -49,-20 -56,-41 34,-48 37,-26 75,-69 -14,-14 -37,-14 -56,-42 19,-40 16,-38 55,-55 -2,-4 -14,-21 -16,-24 -5,-10 -7,-9 -12,-32 77,-79 3,20 58,-173 42,12 33,-4 52,53 l 13,72 c 0,3 1,8 2,11 0,2 1,7 2,10 4,2 12,42 48,-35 2,-3 3,-7 4,-11 24,-64 10,-94 16,-113 16,-47 33,-11 24,-73 73,7 38,26 66,142 30,127 48,48 18,164 43,18 32,2 53,50 -37,28 -37,13 -68,28 79,66 79,28 77,70 -1,57 -62,-26 -1,103 22,6 7,-35 23,30 -19,4 -22,1 -38,5 l -39,14 c 28,18 48,23 70,36 -10,39 -10,28 -17,58 l 60,8 c 11,-67 25,-31 75,-88 l -56,-21 56,-55 c -29,-52 -14,10 -36,-47 68,-74 -14,-15 46,-163 1,-3 2,-7 4,-10 l 59,-73 33,59 c 2,3 13,24 15,27 20,26 -7,2 22,20 57,-95 -30,35 29,-134 16,-45 26,-120 31,-181 44,15 18,4 40,21 l 21,23 c 26,55 11,33 18,104 10,102 1,23 49,105 l -68,29 c 49,26 53,3 82,60 -40,61 -14,9 -76,41 58,17 72,24 134,1 -17,-44 26,17 -50,-42 l 52,-48 c 2,-2 6,-5 8,-7 -23,-21 -28,-16 -38,-63 32,-22 35,-28 77,-45 -15,-48 -39,-26 -52,-59 20,-34 22,-33 48,-56 l -12,-16 c -1,-2 -4,-6 -5,-9 l -5,-44 44,-21 c -17,-28 -14,-28 -5,-69 14,-69 1,-40 39,-66 53,33 29,63 56,159 9,30 10,-3 9,40 l -7,30 c 0,14 17,33 57,39 l 23,-112 c 7,-74 14,-93 56,-112 16,25 18,23 22,61 2,20 -1,30 -1,30 l 57,146 c -30,57 -23,12 -41,76 49,7 41,0 73,35 l -70,42 c 29,14 9,13 12,20 68,23 47,28 127,20 -42,-18 -29,2 -65,-26 34,-45 8,-25 59,-37 -59,-129 -8,-28 -12,-112 -2,-33 -29,7 29,-121 9,-21 35,-60 46,-72 97,66 -17,182 113,230 0,-92 -24,-8 -9,-78 7,-32 12,-11 28,-63 18,-59 9,-116 42,-172 34,14 53,73 56,109 l 10,76 c 16,51 2,13 42,59 -32,47 -6,9 -56,42 6,6 86,58 88,58 43,10 24,-9 25,-16 10,-59 7,18 -4,-26 -26,-100 -6,58 -11,-30 81,-60 -7,-108 84,-175 -31,-69 -119,-119 -177,-167 -14,-11 -18,-17 -30,-25 -22,-14 -13,-10 -35,-15 -28,-47 -120,-128 -182,-146 -53,-14 -243,-6 -303,2 l -188,53 c -36,36 -141,73 -206,122 -18,14 -10,7 -24,23 -100,-27 -222,-108 -324,-73 l -70,-28 c -135,-39 -316,-31 -417,76 -201,7 -282,248 -429,253 z"
   id="path14" />
   <path
   class="fil14"
   d="m 1924,5451 c 71,-68 120,-122 197,-188 48,-40 71,-49 109,-84 214,-204 219,-157 418,-159 131,-2 239,19 374,-3 111,-3 226,2 334,-1 90,-3 276,25 333,-3 l -9,-91 c -105,8 -294,-4 -395,-18 -179,-24 -908,-28 -1200,-51 -7,-42 -2,-54 -4,-90 l -21,-73 c -29,48 -15,181 17,226 2,3 15,17 15,18 l 111,-3 c 19,21 19,3 28,43 61,-92 207,-44 333,-44 l -59,53 c -2,2 -7,10 -10,13 -115,-6 -124,4 -216,105 -92,100 -136,38 -183,120 -42,73 -52,70 -136,148 -39,36 -44,56 -36,82 z"
   id="path15" />
   <path
   class="fil15"
   d="m 3597,9357 c 0,0 -11,25 -21,33 l -23,-28 3,32 -37,-3 c -18,24 -41,31 -66,52 -26,20 -40,42 -61,64 -45,47 -91,65 -70,157 87,84 560,96 674,16 l -6,-106 c -36,-72 14,-38 -52,-86 -59,-44 -21,-4 -63,-63 -60,-83 -73,-62 -184,-67 -22,13 4,8 -23,7 -2,0 -19,-8 -23,-11 -4,29 10,5 -11,24 -31,-11 -18,2 -37,-21 z"
   id="path16" />
   <path
   class="fil16"
   d="m 4590,8837 c -22,73 -53,146 -60,240 -8,94 -6,188 -9,281 -48,-102 -100,-318 -187,-343 16,56 100,180 127,326 -37,-28 -41,-60 -77,-88 -24,39 32,114 51,167 26,68 36,135 60,203 -9,58 -7,62 49,75 24,6 104,7 129,7 l 18,-58 c 32,-116 57,-135 113,-229 46,-78 76,-155 141,-208 18,-36 14,-40 54,-58 -35,-48 12,-11 -23,-12 -33,0 -68,75 -127,100 l -116,205 c -19,35 -21,36 -44,59 6,-119 -1,-352 93,-410 7,-40 25,-61 47,-94 2,-3 27,-41 28,-43 19,-65 25,-24 -11,-46 -23,52 -78,109 -104,173 l -52,95 -15,-98 -11,-69 c -17,23 -13,-22 -16,55 l 13,182 c -3,50 -40,145 -69,189 -15,-41 -47,-448 -6,-455 -7,-122 59,-146 75,-233 -44,17 -43,36 -71,87 z"
   id="path17" />
   <path
   class="fil17"
   d="m 2615,3408 c -70,6 -56,-26 -118,-3 -14,40 45,48 45,52 0,5 -59,4 -101,58 -32,41 -32,86 -60,119 l -14,49 c -15,24 -41,52 -24,94 22,56 42,33 96,53 35,-64 63,-103 114,-148 10,-29 -11,-13 30,-46 l 77,-39 25,39 14,32 c 59,1 118,-4 163,-35 15,-17 21,-21 33,-48 l -140,-67 c 92,-69 177,-69 190,-119 3,-2 8,-5 9,-7 l 22,-22 c 1,-4 4,-6 5,-8 -9,-31 -19,-44 -37,-48 -27,-8 -72,4 -159,4 -57,1 -98,-19 -127,-6 -18,8 -29,58 -43,96 z"
   id="path18" />
   <path
   class="fil18"
   d="m 3054,9384 c -38,45 3,26 -47,56 11,65 4,20 39,80 -69,0 -66,3 -92,26 l 59,-6 48,68 -36,34 c 90,-28 -23,-49 122,-35 52,5 81,10 142,11 l 33,46 c -21,-92 25,-110 70,-157 21,-22 35,-44 61,-64 25,-21 48,-28 66,-52 -19,-32 -27,-36 -39,-76 l 73,47 23,28 c 10,-8 21,-33 21,-33 l -78,-199 c -6,-11 -10,-17 -17,-27 -12,-17 -15,-18 -23,-26 -5,5 -28,33 -28,33 42,136 134,69 68,162 -58,-13 21,-48 -152,-51 41,-41 46,-11 37,-60 -134,-34 -214,25 -219,51 -19,97 -20,12 -36,93 64,29 73,48 117,75 -78,9 -74,-15 -106,-31 -42,-20 -49,-2 -106,7 z"
   id="path19" />
   <path
   class="fil8"
   d="m 4942,6059 c -31,-37 -55,-14 -88,-57 -44,-57 14,-52 -62,-86 2,-2 6,-4 7,-5 2,-1 6,-4 8,-6 2,-1 5,-5 7,-7 21,-23 2,13 19,-31 -15,-14 -77,-95 -5,-112 -37,-65 -28,-45 -102,-44 l 5,-8 -14,103 c -31,1 -35,-42 -83,-41 -40,119 62,60 -28,144 l -54,-39 -41,32 c -60,43 -54,21 -66,79 7,-2 53,-12 53,-12 33,-4 40,-1 76,3 -11,60 -58,11 -65,138 4,3 11,0 13,6 l 48,18 c 2,1 5,2 8,3 l 28,14 26,-55 c 0,50 -11,38 -32,61 -28,32 -8,-29 -16,23 l 286,27 c 3,-4 8,-15 10,-12 1,3 7,-9 8,-11 l 214,10 c 1,-13 23,-28 -16,-69 -22,-23 -86,-12 -144,-66 z"
   id="path20" />
   <path
   class="fil19"
   d="m 4691,9647 c 109,-15 431,-34 509,-2 19,-98 42,-39 70,-132 98,-45 134,-69 246,69 2,2 5,7 8,9 9,-72 9,-9 14,-84 l -93,-28 c -1,-56 -16,-67 -60,-88 -30,-14 -62,-26 -97,-45 54,-98 -18,-106 -97,-124 -58,-14 -50,-29 -96,1 -76,50 11,36 -72,48 -4,-39 3,-9 -34,-29 -52,-28 -31,11 -44,-32 -65,53 -95,130 -141,208 -56,94 -81,113 -113,229 z"
   id="path21" />
   <path
   class="fil20"
   d="m 3570,5975 c 44,35 93,85 158,92 l -32,-97 c 129,29 131,182 245,215 -18,-37 -33,-35 -48,-82 -14,-46 -8,-86 -25,-131 -4,-13 -102,-170 -118,-185 -57,-54 3,26 -153,-139 -55,-58 -106,-110 -171,-146 -15,-50 -51,-93 -91,-102 12,90 -14,89 40,164 39,55 36,88 87,116 -2,2 -7,0 -9,3 l -57,20 c -2,1 -7,2 -9,5 7,12 12,16 21,33 13,21 6,7 18,35 34,78 30,131 144,199 z"
   id="path22" />
   <path
   class="fil21"
   d="m 2805,6471 c 9,8 54,34 70,64 -74,1 -37,-22 -96,19 l 100,-10 c -35,73 -45,47 -96,93 l 60,59 c 33,30 38,2 18,62 l -133,-30 c 46,112 137,105 145,161 1,2 1,7 2,10 15,95 39,40 8,75 -22,24 -89,0 -132,-10 22,87 135,176 188,196 57,-33 109,-84 122,-130 -50,15 -91,51 -149,25 11,-63 49,-66 92,-102 45,-38 69,-70 77,-122 -68,34 -94,49 -166,12 23,-78 154,-82 172,-198 -66,18 -62,34 -142,16 -4,-57 -1,-39 43,-71 l 65,-54 c 1,-5 6,-6 8,-9 -18,-42 -13,-13 -51,-45 -62,-51 38,-54 67,-122 -3,-1 -8,-2 -10,-3 -2,-1 -7,-3 -10,-4 -41,-21 -24,-4 -46,-34 10,58 -1,67 -56,70 v -84 l -77,-10 c -10,50 -9,37 -3,95 -23,11 -30,16 -45,29 7,22 5,12 13,27 1,1 12,15 22,37 z"
   id="path23" />
   <path
   class="fil22"
   d="m 4216,3083 c 33,30 -6,5 51,32 29,14 18,8 43,16 -73,66 -421,24 -452,7 42,-22 95,-26 140,-55 56,0 79,-15 111,-15 52,0 48,27 107,15 z m 1973,219 c -96,-1 -201,11 -292,3 -106,-9 -159,-16 -271,-7 -29,-23 -94,-32 -139,-28 -18,-30 -39,-18 -88,-15 l -237,-20 c -41,-10 -17,-1 -39,-14 20,-30 5,-14 39,-29 l 138,-15 c 48,-2 142,17 179,-11 -114,-23 -308,12 -377,-18 l -413,-4 c -63,3 -131,21 -180,-6 31,-57 69,-37 132,-62 166,-67 365,20 474,-85 105,-8 193,-68 288,-87 86,-17 134,6 232,-56 118,-76 170,-19 342,-120 91,-53 105,-144 267,-102 l 15,-43 -2,-92 c -232,-25 -555,-22 -790,-14 -255,10 -542,-17 -797,-22 -83,54 -1323,-25 -1578,-10 -318,18 -382,-6 -611,3 -86,3 -291,192 -366,255 -66,55 -107,103 -162,156 l -177,154 c 69,-2 47,19 104,-4 86,-34 173,-43 255,18 62,46 33,51 68,102 l 41,-28 c -90,36 -21,11 -41,-5 31,-20 57,-48 87,-64 30,-15 72,-30 108,-42 119,-17 215,-3 290,92 26,32 40,60 57,85 208,-11 126,32 250,84 l -11,40 c 159,-28 230,-69 352,34 58,49 51,92 86,121 22,18 39,17 67,28 54,22 25,16 67,39 l 14,50 c 17,24 8,11 30,27 3,2 24,14 25,15 49,33 23,-4 42,45 l -7,71 20,1 -8,-72 c 85,-3 157,-11 239,-13 88,-3 189,12 252,12 67,0 154,-14 247,-7 84,7 156,20 250,17 -3,55 5,64 12,109 l -209,-6 c 49,38 169,38 216,1 l 8,-99 c 200,-29 1163,4 1462,-4 144,-4 77,-17 97,-144 13,-84 15,-142 16,-240 z"
   id="path24" />
   <g
   id="g25">
    <path
   class="fil23"
   d="m 3356,5016 c -135,22 -577,2 -708,4 -199,2 -204,-45 -418,159 -97,91 -203,172 -306,272 l -170,145 469,427 c 139,-70 224,46 276,-65 v -11 h 23 c 152,-121 -42,-109 54,-178 74,-200 -45,7 50,-250 15,-39 33,-50 50,-60 l 53,244 c -5,43 3,-23 -12,34 51,-10 71,-39 129,-54 162,-41 207,-173 314,-255 27,-20 13,-11 30,-18 17,-30 -3,-4 27,-36 1,-1 29,-32 63,-50 38,-18 82,-23 85,-25 z m 1983,338 c 20,32 46,43 95,109 128,172 42,170 9,183 -28,11 -3,-5 -36,16 -48,30 -30,45 -105,38 -61,41 -159,18 -232,58 l 502,41 c 19,95 1,158 0,245 60,-30 126,-57 202,-32 35,13 56,28 79,46 49,38 39,44 105,39 159,-34 116,-6 232,32 -13,-145 -144,-436 -116,-536 34,-120 145,-432 148,-541 l -170,-3 -50,49 z m -1402,275 c 9,-71 57,-104 72,-162 54,-50 94,-173 235,-248 120,-64 188,-112 361,-127 304,-26 420,12 647,177 76,73 85,82 87,85 0,0 5,-2 7,-4 34,-39 145,-93 181,-106 277,-99 187,-47 525,-195 l -446,-9 -653,-3 c -109,-1 -202,-15 -320,-12 -170,1 -323,13 -485,12 -86,0 -163,-6 -250,-2 -58,2 -177,20 -209,-22 -57,28 -243,0 -333,3 17,81 3,122 5,187 1,20 5,38 8,64 1,11 -10,24 -1,38 5,8 10,15 15,23 71,101 203,202 348,350 z"
   id="path25" />
   </g>
   <path
   class="fil24"
   d="m 3680,3722 c 266,-1 507,40 783,40 l 209,6 c -7,-45 -15,-54 -12,-109 -94,3 -166,-10 -250,-17 -93,-7 -180,7 -247,7 -63,0 -164,-15 -252,-12 -82,2 -154,10 -239,13 z"
   id="path26" />
   <path
   class="fil25"
   d="m 3680,4922 9,91 c 32,42 151,24 209,22 87,-4 164,2 250,2 162,1 315,-11 485,-12 v -66 l -166,-25 c -135,-4 -277,-4 -404,-13 -136,-10 -251,10 -383,1 z"
   id="path27" />
   <path
   class="fil11"
   d="m 2862,3633 c 55,-6 116,-8 175,-8 65,0 109,18 176,13 56,-4 90,5 143,4 49,0 80,-10 132,-10 -49,-20 -60,-12 -118,-12 -15,-29 -26,-142 -167,-151 -85,-6 -87,30 -133,24 -27,-4 -66,-24 -124,-29 l -1,-65 c -13,50 -98,50 -190,119 l 140,67 c -12,27 -18,31 -33,48 z"
   id="path28" />
   <path
   class="fil26"
   d="m 3054,9384 c 57,-9 64,-27 106,-7 32,16 28,40 106,31 -44,-27 -53,-46 -117,-75 16,-81 17,4 36,-93 5,-26 85,-85 219,-51 9,49 4,19 -37,60 173,3 94,38 152,51 66,-93 -26,-26 -68,-162 0,0 23,-28 28,-33 l -17,-43 c 38,17 12,-2 39,20 l 79,-27 c -25,-52 -49,-51 -75,-118 43,17 22,0 56,39 24,29 8,26 43,45 34,-11 48,-23 65,-59 -46,-31 -70,-98 -151,-75 l -55,31 c -43,-54 5,-35 -38,-44 l -4,232 c -73,4 -47,-22 -26,29 -69,-7 -116,8 -153,3 -63,-8 1,-14 -123,-14 -3,323 -81,139 -65,260 z"
   id="path29" />
   <path
   class="fil27"
   d="m 3698,7486 -11,1481 c -1,31 0,61 -2,90 -4,66 4,47 -19,42 11,23 42,86 14,114 l 11,145 c 111,5 124,-16 184,67 42,59 4,19 63,63 66,48 16,14 52,86 211,-4 307,22 505,49 -24,-68 -34,-135 -60,-203 -19,-53 -75,-128 -51,-167 36,28 40,60 77,88 -27,-146 -111,-270 -127,-326 87,25 139,241 187,343 3,-93 1,-187 9,-281 7,-94 38,-167 60,-240 l -1,-1255 c 4,-20 4,-21 5,-40 1,-22 -1,-53 -2,-76 l 81,4 c -4,-2 -9,-3 -13,-4 l -26,-8 c -5,0 -8,-1 -13,-1 l -154,1 c -105,-5 -529,-3 -585,19 z"
   id="path30" />
   <path
   class="fil28"
   d="m 4846,8911 c 36,22 30,-19 11,46 -1,2 -26,40 -28,43 -22,33 -40,54 -47,94 16,28 43,-1 76,58 48,86 -13,47 -9,88 59,-25 94,-100 127,-100 35,1 -12,-36 23,12 46,-23 19,9 38,-42 -14,63 1,46 23,70 16,-65 -17,-24 32,-46 -3,2 5,68 -17,-7 -13,-44 -7,11 3,-22 38,-138 21,-54 21,-238 -277,0 -193,-9 -253,44 z"
   id="path31" />
   <path
   class="fil29"
   d="m 3794,2141 -7,-6 c -13,84 20,217 67,254 27,21 240,55 266,55 18,-117 26,-72 67,-171 l 70,-183 -139,-1 c -22,23 -14,5 -36,41 -51,85 64,213 -156,209 -32,-72 -124,-131 -92,-190 z"
   id="path32" />
   <path
   class="fil30"
   d="m 2862,3633 c -45,31 -104,36 -163,35 l -14,-32 h -102 c -41,33 -20,17 -30,46 75,41 860,30 1012,34 l 95,5 7,-71 c -102,2 -387,19 -454,-12 -67,5 -111,-13 -176,-13 -59,0 -120,2 -175,8 z"
   id="path33" />
   <path
   class="fil31"
   d="m 3707,6274 c 42,25 146,2 205,3 81,2 151,14 236,17 82,3 155,-8 236,-7 l 229,-1 3,-54 c -3,-20 -163,-10 -218,-27 -106,-7 -648,-4 -688,16 z"
   id="path34" />
   <path
   class="fil20"
   d="m 4942,6059 c 87,14 188,38 276,-4 -33,-51 -31,-46 -90,-76 -69,-35 -261,-166 -300,-224 -72,17 -10,98 5,112 -17,44 2,8 -19,31 -2,2 -5,6 -7,7 -2,2 -6,5 -8,6 -1,1 -5,3 -7,5 76,34 18,29 62,86 33,43 57,20 88,57 z"
   id="path35" />
   <path
   class="fil32"
   d="m 5270,9513 c -28,93 -51,34 -70,132 16,52 3,33 58,50 77,24 206,27 277,-1 7,-42 11,-72 -11,-103 -3,-2 -6,-7 -8,-9 -112,-138 -148,-114 -246,-69 z"
   id="path36" />
   <path
   class="fil33"
   d="m 2061,4656 49,-4 c 155,9 146,32 315,4 46,-42 152,-19 322,-56 21,-4 40,-6 57,-9 l 58,-22 c -31,-66 -192,-60 -312,-69 -62,-4 -79,-3 -114,-29 74,-36 211,33 307,17 145,-22 172,3 305,26 69,5 177,13 244,-8 48,-15 30,-20 70,-30 63,-15 209,32 320,4 151,-57 193,-8 341,-7 67,1 112,0 181,3 69,4 104,-7 120,-65 -81,-16 -136,15 -221,-23 l 115,-28 c 115,-10 253,30 408,-10 326,-84 167,-21 356,-27 76,-2 87,-16 95,-46 l -383,-53 c -120,26 -216,-60 -290,-106 l -102,-49 c -188,-120 -49,-19 -154,-74 -205,-96 -78,-39 -250,-30 -53,-91 -70,-64 -156,-102 -26,-20 4,-40 -97,-96 -75,-13 -68,14 -80,-51 -152,-4 -937,7 -1012,-34 -51,45 -79,84 -114,148 -54,-20 -74,3 -96,-53 -17,-42 9,-70 24,-94 l -256,2 c -10,49 -2,79 -10,117 -13,70 -27,16 -25,99 3,95 23,442 8,508 -19,81 -11,156 -23,247 z"
   id="path37" />
   <path
   class="fil12"
   d="m 3794,2141 40,8 c -32,59 60,118 92,190 220,4 105,-124 156,-209 22,-36 14,-18 36,-41 -150,4 -277,22 -324,52 z"
   id="path38" />
   <path
   class="fil34"
   d="m 5958,6097 -182,130 440,1 -26,-99 c -116,-38 -73,-66 -232,-32 z"
   id="path39" />
   <path
   class="fil19"
   d="m 4849,9240 c -4,-41 57,-2 9,-88 -33,-59 -60,-30 -76,-58 -94,58 -87,291 -93,410 23,-23 25,-24 44,-59 z"
   id="path40" />
   <path
   class="fil35"
   d="m 2223,6023 c 26,46 176,163 218,174 l 19,-42 c -1,-50 -6,-76 21,-125 35,13 23,-7 33,52 l 33,1 29,-69 -51,-17 -3,-50 h -23 v 11 c -52,111 -137,-5 -276,65 z"
   id="path41" />
   <path
   class="fil36"
   d="m 3643,6758 c -52,42 -34,21 -86,33 l 86,42 c -22,39 -52,52 -56,55 l 82,42 c -28,87 -30,-19 -59,69 45,-1 11,30 96,43 -4,-95 -6,-11 -13,-44 -13,-59 11,-10 12,-66 l -6,-39 c 7,-45 43,-140 88,-157 47,63 46,96 31,189 4,-3 8,-14 9,-11 5,7 63,-93 73,-206 -116,6 -195,49 -257,50 z"
   id="path42" />
   <path
   class="fil37"
   d="m 3283,6291 191,1 15,7 c 47,-35 152,-19 218,-25 l 3,-53 c -72,-6 -182,-7 -255,-8 -58,0 -181,-10 -207,11 z"
   id="path43" />
   <path
   class="fil38"
   d="m 2346,9508 c -14,-62 -12,-125 -2,-188 14,-90 47,-99 26,-144 -104,63 -87,386 -56,446 l 70,6 c 4,-58 3,-96 21,-149 18,-52 45,-80 21,-126 -45,45 -57,79 -80,155 z"
   id="path44" />
   <path
   class="fil39"
   d="m 4664,9012 c -17,-21 24,-20 -16,-16 -52,85 0,32 -42,45 -29,-32 -8,-6 -20,-58 -41,7 -9,414 6,455 29,-44 66,-139 69,-189 l -13,-182 c 3,-77 -1,-32 16,-55 z"
   id="path45" />
   <path
   class="fil37"
   d="m 2847,6303 31,-8 77,10 55,-4 c 39,-14 71,-51 85,-109 l -74,5 -273,10 c 17,50 48,73 99,96 z"
   id="path46" />
   <path
   class="fil40"
   d="m 3998,3083 c -45,29 -98,33 -140,55 31,17 379,59 452,-7 -25,-8 -14,-2 -43,-16 -57,-27 -18,-2 -51,-32 -59,12 -55,-15 -107,-15 -32,0 -55,15 -111,15 z"
   id="path47" />
   <path
   class="fil36"
   d="m 6435,7014 c 34,-16 0,6 40,-22 13,-9 13,-12 22,-20 -32,-30 -30,10 -3,-28 14,-19 15,-9 35,-20 -24,-88 -29,-56 17,-125 -26,-47 -35,-39 -71,-72 l -83,-66 c 0,20 7,102 10,112 9,34 22,29 35,83 1,-2 29,-30 -6,0 -1,2 -5,5 -6,6 l -19,21 c 15,9 20,6 27,26 25,75 3,11 -4,37 -11,42 -14,-28 -8,32 0,9 10,25 14,36 z"
   id="path48" />
   <path
   class="fil8"
   d="m 3252,6403 c 82,-36 3,-56 76,-79 73,94 -12,155 98,177 27,-45 31,-142 48,-209 l -191,-1 c -19,28 -26,25 -56,42 z"
   id="path49" />
   <path
   class="fil41"
   d="m 2576,5769 c 81,7 21,9 68,-77 l 18,-26 c 23,28 43,28 55,71 15,-57 7,9 12,-34 l -53,-244 c -17,10 -35,21 -50,60 -95,257 24,50 -50,250 z"
   id="path50" />
   <path
   class="fil19"
   d="m 3501,9082 c 56,74 111,172 144,272 4,3 21,11 23,11 27,1 1,6 23,-7 l -11,-145 c -37,-57 -67,-116 -100,-158 z"
   id="path51" />
   <path
   class="fil42"
   d="m 5542,4640 c 95,27 -9,76 -15,107 47,32 111,-16 149,-38 51,-28 111,-48 111,-122 -45,5 -88,52 -147,33 -59,-19 -37,-35 -120,-39 11,38 12,34 22,59 z"
   id="path52" />
   <path
   class="fil43"
   d="m 6338,5386 c 14,15 3,56 32,69 17,-28 12,-92 14,-122 -46,-17 -113,-43 -157,-50 l 80,54 c 7,62 -67,-21 -69,38 -1,63 64,41 64,41 z"
   id="path53" />
   <path
   class="fil44"
   d="m 3853,5169 c 21,28 36,12 41,36 13,32 -19,17 -19,57 61,1 58,-6 73,-19 11,-10 27,11 61,60 23,-58 -12,-87 -12,-149 -23,-24 -32,5 -55,15 -26,11 -65,4 -89,0 z"
   id="path54" />
   <path
   class="fil45"
   d="m 2119,6353 c 32,-13 74,-76 219,-27 1,66 10,13 -33,60 l 63,72 c 51,-11 52,-14 79,-47 -5,-1 -21,-2 -25,-4 -2,0 -7,-1 -10,-2 l -32,-17 c 28,-79 25,3 51,-85 l -311,1 z"
   id="path55" />
   <path
   class="fil20"
   d="m 4175,5874 c -23,-60 -58,-66 -106,-102 -44,-33 -68,-63 -128,-74 6,47 1,29 27,64 16,20 33,45 55,59 31,21 125,47 152,53 z"
   id="path56" />
   <path
   class="fil46"
   d="m 2832,7476 h 62 l -24,-28 c 76,-40 129,-72 164,-173 l -123,20 c 29,31 8,12 48,38 -40,80 -67,71 -176,83 z"
   id="path57" />
   <path
   class="fil47"
   d="m 3025,9642 36,-34 -48,-68 -59,6 c -53,14 -64,23 -71,84 z"
   id="path58" />
   <path
   class="fil38"
   d="m 2145,9361 c 60,133 44,101 74,219 19,76 3,33 40,45 23,-54 4,-112 -19,-163 -45,-100 -42,-96 -95,-101 z"
   id="path59" />
   <path
   class="fil38"
   d="m 3479,9105 c 8,8 11,9 23,26 7,10 11,16 17,27 l 78,199 c 19,23 6,10 37,21 21,-19 7,5 11,-24 -33,-100 -88,-198 -144,-272 -27,-22 -1,-3 -39,-20 z"
   id="path60" />
   <path
   class="fil45"
   d="m 2787,6355 c -44,-2 -36,-15 -36,24 22,22 10,-14 14,21 1,4 -3,29 -4,34 30,16 28,6 44,37 l 60,12 c -10,-22 -21,-36 -22,-37 -8,-15 -6,-5 -13,-27 15,-13 22,-18 45,-29 -6,-58 -7,-45 3,-95 l -31,8 c 12,52 -10,61 -60,52 z"
   id="path61" />
   <path
   class="fil21"
   d="m 6497,6972 c 38,-20 109,-87 128,-126 -32,-32 -37,-38 -79,-47 -46,69 -41,37 -17,125 -20,11 -21,1 -35,20 -27,38 -29,-2 3,28 z"
   id="path62" />
   <path
   class="fil38"
   d="m 3580,9055 c 33,42 63,101 100,158 28,-28 -3,-91 -14,-114 -54,-27 -34,-25 -62,-78 -35,-19 -19,-16 -43,-45 -34,-39 -13,-22 -56,-39 26,67 50,66 75,118 z"
   id="path63" />
   <path
   class="fil48"
   d="m 2774,7177 c 29,76 52,42 85,109 48,-29 46,-11 55,-80 -32,-15 -91,-25 -140,-29 z"
   id="path64" />
   <path
   class="fil49"
   d="m 2783,6637 c 51,-46 61,-20 96,-93 l -100,10 c -53,-8 -27,-14 -71,-37 17,51 28,38 57,86 l 14,26 c 0,-2 3,5 4,8 z"
   id="path65" />
   <path
   class="fil50"
   d="m 3604,9021 c 28,53 8,51 62,78 23,5 15,24 19,-42 2,-29 1,-59 2,-90 l -18,-5 c -17,36 -31,48 -65,59 z"
   id="path66" />
   <path
   class="fil51"
   d="m 2460,6155 60,-50 c 1,0 27,-22 27,-22 l -33,-1 c -10,-59 2,-39 -33,-52 -27,49 -22,75 -21,125 z"
   id="path67" />
   <path
   class="fil52"
   d="m 3011,6319 -1,-18 -55,4 v 84 c 55,-3 66,-12 56,-70 z"
   id="path68" />
   <path
   class="fil19"
   d="m 4742,9084 -67,-3 15,98 z"
   id="path69" />
   <path
   class="fil49"
   d="m 2407,6538 c -24,-35 10,-31 -79,-43 12,21 24,45 42,72 z"
   id="path70" />
   <path
   class="fil53"
   d="m 2761,6434 c 1,-5 5,-30 4,-34 -4,-35 8,1 -14,-21 0,-39 -8,-26 36,-24 l -88,-24 c 11,22 16,33 26,52 l 28,42 c 2,2 5,6 8,9 z"
   id="path71" />
   <path
   class="fil54"
   d="m 3519,9391 37,3 -3,-32 -73,-47 c 12,40 20,44 39,76 z"
   id="path72" />
   <path
   class="fil34"
   d="m 2555,6199 24,-6 -7,28 c 23,-19 3,15 31,-33 13,-22 10,-24 15,-46 -40,14 -44,23 -63,57 z"
   id="path73" />
   <path
   class="fil55"
   d="m 2583,3636 h 102 l -25,-39 z"
   id="path74" />
   <path
   class="fil56"
   d="m 5346,5039 876,13 -182,614 168,531 -634,-35 82,-365 -157,-272 -178,-203 -368,-285 z"
   id="path75" />
   <path
   class="fil23"
   d="m 3128,5031 229,-12 185,12 v 266 h -414 z"
   id="path76" />
  </g>
 </g>
</svg>
